<svg width="705" height="410" viewBox="0 0 705 410" fill="none" xmlns="http://www.w3.org/2000/svg">
<g clip-path="url(#clip0)">
<path d="M508.859 272.924H469.232L449.265 238.233L469.078 204.002L470.461 204.77L451.108 238.233L470.154 271.389H508.859V272.924Z" fill="url(#paint0_linear)"/>
<path d="M567.686 306.694H527.752L507.784 272.003L527.752 237.312H567.686L587.654 272.003L567.686 306.694ZM528.673 305.159H566.918L585.964 272.157L566.918 239.154H528.673L509.627 272.157L528.673 305.159Z" fill="url(#paint1_linear)"/>
<path d="M586.118 340.157L566.611 306.387L567.994 305.466L587.5 339.39L586.118 340.157Z" fill="url(#paint2_linear)"/>
<path d="M626.513 340.157L625.13 339.39L644.483 305.927L624.977 272.156L626.359 271.389L646.326 305.927L626.513 340.157Z" fill="url(#paint3_linear)"/>
<path d="M626.359 272.924L624.977 272.157L644.79 237.926L646.019 238.693L626.359 272.924Z" fill="url(#paint4_linear)"/>
<path d="M687.49 305.159H645.405V306.694H687.49V305.159Z" fill="url(#paint5_linear)"/>
<path d="M442.661 162.097L461.706 195.253L442.661 228.409H404.416L385.37 195.253L404.416 162.097H442.661ZM443.736 160.408H403.494L383.373 195.253L403.494 230.097H443.736L463.857 195.253L443.736 160.408Z" fill="url(#paint6_linear)"/>
<path d="M531.285 238.233C531.285 239.614 530.21 240.842 528.674 240.842C527.291 240.842 526.062 239.768 526.062 238.233C526.062 236.851 527.138 235.623 528.674 235.623C530.21 235.623 531.285 236.698 531.285 238.233Z" fill="url(#paint7_linear)"/>
<path d="M648.016 238.233C648.016 239.614 646.941 240.842 645.405 240.842C644.023 240.842 642.794 239.768 642.794 238.233C642.794 236.851 643.869 235.623 645.405 235.623C646.787 235.623 648.016 236.698 648.016 238.233Z" fill="url(#paint8_linear)"/>
<path d="M589.343 340.618C589.343 341.999 588.268 343.227 586.732 343.227C585.35 343.227 584.121 342.153 584.121 340.618C584.121 339.083 585.196 338.008 586.732 338.008C588.268 338.162 589.343 339.236 589.343 340.618Z" fill="url(#paint9_linear)"/>
<path d="M530.824 305.927C530.824 307.308 529.749 308.536 528.213 308.536C526.677 308.536 525.602 307.462 525.602 305.927C525.602 304.545 526.677 303.317 528.213 303.317C529.749 303.317 530.824 304.545 530.824 305.927Z" fill="url(#paint10_linear)"/>
<path d="M687.49 305.927C687.49 307.308 686.415 308.536 684.879 308.536C683.496 308.536 682.268 307.462 682.268 305.927C682.268 304.545 683.343 303.317 684.879 303.317C686.261 303.317 687.49 304.545 687.49 305.927Z" fill="url(#paint11_linear)"/>
<path d="M648.016 305.927C648.016 307.308 646.941 308.536 645.405 308.536C644.023 308.536 642.794 307.462 642.794 305.927C642.794 304.545 643.869 303.317 645.405 303.317C646.787 303.317 648.016 304.545 648.016 305.927Z" fill="url(#paint12_linear)"/>
<path d="M452.797 238.233C452.797 239.614 451.722 240.842 450.186 240.842C448.65 240.842 447.575 239.768 447.575 238.233C447.575 236.851 448.65 235.623 450.186 235.623C451.722 235.623 452.797 236.698 452.797 238.233Z" fill="url(#paint13_linear)"/>
<path d="M472.765 204.616C472.765 205.998 471.69 207.226 470.154 207.226C468.772 207.226 467.543 206.151 467.543 204.616C467.543 203.081 468.618 202.007 470.154 202.007C471.69 202.007 472.765 203.081 472.765 204.616Z" fill="url(#paint14_linear)"/>
<path d="M173.255 128.633L170.183 126.945L170.644 126.024L173.716 127.712L173.255 128.633ZM168.494 125.87L165.422 124.182L165.882 123.261L168.954 124.949L168.494 125.87ZM163.732 123.107L160.66 121.419L161.121 120.498L164.193 122.186L163.732 123.107ZM158.971 120.344L155.899 118.656L156.36 117.735L159.432 119.423L158.971 120.344ZM154.209 117.735L151.137 116.046L151.598 115.125L154.67 116.814L154.209 117.735ZM149.294 114.972L146.222 113.283L146.683 112.362L149.755 114.051L149.294 114.972ZM144.533 112.209L141.461 110.52L141.922 109.599L144.994 111.288L144.533 112.209ZM139.771 109.446L136.699 107.757L137.16 106.836L140.232 108.525L139.771 109.446ZM135.01 106.683L131.938 104.994L132.399 104.073L135.471 105.762L135.01 106.683ZM130.249 103.92L127.177 102.231L127.637 101.31L130.709 102.999L130.249 103.92ZM125.487 101.157L122.415 99.4684L122.876 98.5474L125.948 100.236L125.487 101.157ZM120.726 98.3939L117.654 96.7054L118.115 95.7844L121.186 97.4729L120.726 98.3939ZM115.964 95.6309L112.892 93.9423L113.353 93.0213L116.425 94.7099L115.964 95.6309ZM111.203 92.8678L108.131 91.1793L108.592 90.2583L111.664 91.9468L111.203 92.8678Z" fill="url(#paint15_linear)"/>
<path d="M183.239 214.901L182.778 213.98L185.85 212.291L186.311 213.212L183.239 214.901ZM188.001 212.138L187.54 211.217L190.612 209.528L191.072 210.449L188.001 212.138ZM192.762 209.375L192.301 208.454L195.373 206.765L195.834 207.686L192.762 209.375ZM197.523 206.612L197.063 205.691L200.135 204.002L200.595 204.923L197.523 206.612ZM202.285 203.849L201.824 202.928L204.896 201.239L205.357 202.16L202.285 203.849ZM207.046 201.086L206.586 200.165L209.657 198.476L210.118 199.397L207.046 201.086ZM211.808 198.323L211.347 197.402L214.419 195.713L214.88 196.634L211.808 198.323ZM216.569 195.56L216.108 194.639L219.18 192.95L219.795 193.871L216.569 195.56ZM221.331 192.95L220.716 192.029L223.788 190.341L224.403 191.262L221.331 192.95ZM226.092 190.187L225.631 189.266L228.703 187.578L229.164 188.499L226.092 190.187ZM230.854 187.424L230.393 186.503L233.465 184.815L233.925 185.736L230.854 187.424ZM235.615 184.661L235.001 183.74L238.072 182.052L238.687 182.973L235.615 184.661ZM240.376 181.898L239.916 180.977L242.987 179.289L243.448 180.21L240.376 181.898ZM245.138 179.135L244.677 178.214L247.749 176.526L248.21 177.447L245.138 179.135Z" fill="url(#paint16_linear)"/>
<path d="M5.83676 128.787L5.37598 127.866L8.60147 126.484L9.06225 127.405L5.83676 128.787ZM10.9054 126.638L10.4446 125.717L13.6701 124.335L14.1309 125.256L10.9054 126.638ZM15.974 124.642L15.5132 123.721L18.7387 122.34L19.1995 123.261L15.974 124.642ZM20.889 122.493L20.4283 121.572L23.6538 120.191L24.1145 121.112L20.889 122.493ZM25.9577 120.344L25.4969 119.423L28.7224 118.042L29.1832 118.963L25.9577 120.344ZM31.0263 118.349L30.5655 117.428L33.791 116.046L34.2518 116.967L31.0263 118.349ZM36.0949 116.2L35.6341 115.125L38.8596 113.744L39.3204 114.665L36.0949 116.2ZM41.1636 114.051L40.7028 113.13L43.9283 111.748L44.389 112.669L41.1636 114.051ZM46.2322 111.902L45.7714 110.981L48.9969 109.599L49.4577 110.52L46.2322 111.902ZM51.1472 109.906L50.6864 108.985L53.9119 107.604L54.3727 108.525L51.1472 109.906ZM56.2158 107.757L55.7551 106.836L58.9806 105.455L59.4413 106.376L56.2158 107.757ZM61.2845 105.608L60.8237 104.687L64.0492 103.306L64.51 104.38L61.2845 105.608ZM66.3531 103.613L65.8923 102.692L69.1178 101.31L69.5786 102.231L66.3531 103.613ZM71.4217 101.464L70.9609 100.543L74.1864 99.1614L74.6472 100.082L71.4217 101.464ZM76.4904 99.3149L76.0296 98.3939L79.2551 97.0124L79.7158 97.9334L76.4904 99.3149ZM81.4054 97.1659L80.9446 96.2449L84.1701 94.8633L84.6309 95.7844L81.4054 97.1659ZM86.474 95.1703L86.0132 94.2493L89.2387 92.8678L89.6995 93.7888L86.474 95.1703ZM91.5426 93.0213L91.0819 92.1003L94.3074 90.7188L94.7681 91.6398L91.5426 93.0213ZM96.6113 90.8723L96.1505 89.9513L99.376 88.5698L99.8368 89.4908L96.6113 90.8723ZM248.67 87.3418L245.598 85.4998L246.213 84.5788L249.284 86.4208L248.67 87.3418ZM107.824 85.4998L107.209 84.5788L110.281 82.7368L110.896 83.6578L107.824 85.4998ZM243.909 84.5788L240.837 82.7368L241.451 81.8158L244.523 83.6578L243.909 84.5788ZM112.739 82.7368L112.124 81.8158L115.196 79.9738L115.811 80.8948L112.739 82.7368ZM239.147 81.6623L236.075 79.8203L236.69 78.8993L239.762 80.7413L239.147 81.6623ZM117.5 79.9738L116.886 79.0528L119.958 77.2108L120.572 78.1318L117.5 79.9738ZM234.232 78.7458L231.16 76.9038L231.775 75.9828L234.847 77.8248L234.232 78.7458ZM122.415 77.2108L121.801 76.2898L124.873 74.4478L125.487 75.3688L122.415 77.2108ZM229.471 75.8293L226.399 73.9873L227.013 73.0663L230.085 74.9083L229.471 75.8293ZM127.33 74.4478L126.716 73.5268L129.788 71.6848L130.402 72.6058L127.33 74.4478ZM224.709 73.0663L221.637 71.2243L222.252 70.3033L225.324 72.1453L224.709 73.0663ZM132.245 71.6848L131.631 70.7638L134.703 68.9218L135.317 69.8428L132.245 71.6848ZM219.794 70.1498L216.722 68.3078L217.337 67.3867L220.409 69.2288L219.794 70.1498ZM137.16 68.9218L136.546 68.0007L139.618 66.1587L140.232 67.0797L137.16 68.9218ZM215.033 67.2332L211.961 65.3912L212.575 64.4702L215.647 66.3122L215.033 67.2332ZM141.922 66.1587L141.307 65.2377L144.379 63.3957L144.994 64.3167L141.922 66.1587ZM210.271 64.3167L207.199 62.4747L207.814 61.5537L210.886 63.3957L210.271 64.3167ZM146.837 63.3957L146.222 62.4747L149.294 60.6327L149.909 61.5537L146.837 63.3957ZM205.51 61.5537L202.438 59.7117L203.052 58.7907L206.124 60.6327L205.51 61.5537ZM151.752 60.6327L151.137 59.7117L154.209 57.8697L154.824 58.7907L151.752 60.6327ZM200.595 58.6372L197.523 56.7952L198.137 55.8742L201.209 57.7162L200.595 58.6372ZM156.667 57.8697L156.052 56.9487L159.124 55.1067L159.739 56.0277L156.667 57.8697ZM195.833 55.7207L192.762 53.8787L193.376 52.9577L196.448 54.7997L195.833 55.7207ZM161.582 55.1067L160.967 54.1857L164.039 52.3437L164.654 53.2647L161.582 55.1067ZM191.072 52.8042L188 50.9622L188.615 50.0412L191.686 51.8832L191.072 52.8042ZM166.343 52.3437L165.729 51.4227L168.801 49.5807L169.415 50.5017L166.343 52.3437ZM186.157 50.0412L183.085 48.1992L183.699 47.2782L186.771 49.1202L186.157 50.0412ZM171.258 49.5807L170.644 48.6597L173.716 46.8177L174.33 47.7387L171.258 49.5807Z" fill="url(#paint17_linear)"/>
<path d="M326.85 43.5942V45.8967H327.771L328.693 46.8177L329.461 46.0502L326.85 43.5942ZM330.689 47.4317L329.922 48.1992L332.379 50.6552L333.147 49.8877L330.689 47.4317ZM327.925 47.8922H326.85V51.2692H327.925V47.8922ZM334.376 51.2692L333.608 52.0367L336.065 54.4927L336.833 53.7252L334.376 51.2692ZM327.925 53.1112H326.85V56.4882H327.925V53.1112ZM338.062 54.9532L337.294 55.7207L339.752 58.1767L340.52 57.4092L338.062 54.9532ZM327.925 58.4837H326.85V61.8607H327.925V58.4837ZM341.902 58.7907L341.134 59.5582L343.591 62.0142L344.359 61.2467L341.902 58.7907ZM345.588 62.6282L344.82 63.3957L347.278 65.8517L348.046 65.0842L345.588 62.6282ZM327.925 63.7027H326.85V67.0797H327.925V63.7027ZM349.274 66.3122L348.506 67.0797L350.964 69.5358L351.732 68.7683L349.274 66.3122ZM327.925 69.0753H326.85V72.4523H327.925V69.0753ZM353.114 70.1498L352.346 70.9173L354.804 73.3733L355.572 72.6058L353.114 70.1498ZM356.801 73.8338L356.033 74.6013L358.49 77.0573L359.258 76.2898L356.801 73.8338ZM327.925 74.4478H326.85V77.8248H327.925V74.4478ZM360.487 77.6713L359.719 78.4388L362.176 80.8948L362.944 80.1273L360.487 77.6713ZM327.925 79.6668H326.85V83.0438H327.925V79.6668ZM364.327 81.5088L363.559 82.2763L366.016 84.7323L366.784 83.9648L364.327 81.5088ZM327.925 85.0393H326.85V88.4163H327.925V85.0393ZM368.013 85.1928L367.245 85.9603L369.703 88.4163L370.471 87.6488L368.013 85.1928ZM371.699 89.0303L370.931 89.7978L373.389 92.2538L374.157 91.4863L371.699 89.0303ZM327.925 90.2583H326.85V93.6353H327.925V90.2583ZM375.386 92.8678L374.618 93.6353L377.075 96.0913L377.843 95.1703L375.386 92.8678ZM327.925 95.6309H326.85V99.0079H327.925V95.6309ZM379.225 96.5519L378.457 97.3194L380.915 99.7754L381.683 99.0079L379.225 96.5519ZM382.912 100.389L382.144 101.157L384.601 103.613L385.369 102.845L382.912 100.389ZM327.925 101.003H326.85V104.38H327.925V101.003ZM386.598 104.227L385.83 104.994L388.288 107.45L389.056 106.683L386.598 104.227ZM327.925 106.222H326.85V109.599H327.925V106.222ZM390.438 107.911L389.67 108.678L392.127 111.134L392.895 110.367L390.438 107.911ZM327.925 111.595H326.85V114.972H327.925V111.595ZM394.124 111.748L393.356 112.516L395.814 114.972L396.582 114.204L394.124 111.748ZM397.81 115.432L397.042 116.2L399.5 118.656L400.268 117.888L397.81 115.432ZM327.925 116.814H326.85V120.191H327.925V116.814ZM401.65 119.27L400.882 120.037L403.34 122.493L404.108 121.726L401.65 119.27ZM327.925 122.186H326.85V125.563H327.925V122.186ZM405.337 123.107L404.569 123.875L407.026 126.331L407.794 125.563L405.337 123.107ZM409.023 126.791L408.255 127.559L409.023 128.326L409.791 127.559L409.023 126.791Z" fill="url(#paint18_linear)"/>
<path d="M75.7218 45.8967H72.1891V44.8222H75.7218V45.8967ZM70.1924 45.8967H66.6597V44.8222H70.1924V45.8967ZM64.663 45.8967H61.1303V44.8222H64.663V45.8967ZM59.1336 45.8967H55.6009V44.8222H59.1336V45.8967ZM53.7578 45.8967H50.2251V44.8222H53.7578V45.8967ZM48.2283 45.8967H44.6957V44.8222H48.2283V45.8967ZM42.6989 45.8967H39.1662V44.8222H42.6989V45.8967ZM37.1695 45.8967H33.6368V44.8222H37.1695V45.8967ZM31.6401 45.8967H28.1074V44.8222H31.6401V45.8967Z" fill="url(#paint19_linear)"/>
<path d="M106.748 171.153L106.134 170.232L109.359 168.39L109.974 169.311L106.748 171.153ZM111.663 168.39L111.049 167.469L114.274 165.627L114.889 166.548L111.663 168.39ZM116.578 165.474L115.964 164.553L119.189 162.711L119.804 163.632L116.578 165.474ZM121.647 162.711L121.032 161.79L124.258 159.948L124.872 160.869L121.647 162.711ZM126.562 159.948L125.948 159.027L129.173 157.185L129.787 158.106L126.562 159.948ZM131.477 157.185L130.863 156.264L134.088 154.422L134.702 155.343L131.477 157.185ZM136.546 154.422L135.931 153.501L139.157 151.659L139.771 152.58L136.546 154.422ZM141.461 151.659L140.846 150.738L144.072 148.896L144.686 149.817L141.461 151.659ZM146.376 148.896L145.915 147.975L149.14 146.133L149.755 147.054L146.376 148.896ZM151.444 146.133L150.83 145.212L154.055 143.37L154.67 144.291L151.444 146.133ZM156.359 143.37L155.745 142.449L158.97 140.607L159.585 141.528L156.359 143.37ZM161.274 140.607L160.66 139.686L163.885 137.844L164.5 138.765L161.274 140.607ZM166.343 137.844L165.729 136.922L168.954 135.08L169.568 136.001L166.343 137.844ZM171.258 135.08L170.644 134.159L173.869 132.317L174.483 133.238L171.258 135.08Z" fill="url(#paint20_linear)"/>
<path d="M153.442 88.7233H103.216L77.873 44.8222L103.063 1.38151L104.291 2.14901L79.7162 44.8222L104.138 87.1883H153.442V88.7233Z" fill="url(#paint21_linear)"/>
<path d="M154.056 260.644L152.827 259.876L177.709 216.743L178.938 217.51L154.056 260.644Z" fill="url(#paint22_linear)"/>
<path d="M228.396 131.703H177.709L152.366 87.9558L177.709 44.0547H228.396L253.739 87.9558L228.396 131.703ZM178.631 130.168H227.474L251.896 87.9558L227.474 45.5897H178.631L154.209 87.9558L178.631 130.168Z" fill="url(#paint23_linear)"/>
<path d="M228.396 217.971H177.71L152.674 174.53L153.903 173.763L178.631 216.436H227.474L251.896 174.07L227.321 131.396L228.55 130.629L253.739 174.07L228.396 217.971Z" fill="url(#paint24_linear)"/>
<path d="M153.902 174.837H103.216L77.873 130.936L103.216 87.1883H153.442V88.7233H104.138L79.7162 130.936L104.138 173.302H152.981L177.71 130.629L178.938 131.396L153.902 174.837Z" fill="url(#paint25_linear)"/>
<path d="M303.197 174.53L301.814 173.763L326.543 130.936L301.968 88.7233H252.664V87.1883H302.89L328.233 130.936L303.197 174.53Z" fill="url(#paint26_linear)"/>
<path d="M303.197 88.2628L301.814 87.4953L326.697 44.5152L328.079 45.2827L303.197 88.2628Z" fill="url(#paint27_linear)"/>
<path d="M412.402 130.168H327.311V131.703H412.402V130.168Z" fill="url(#paint28_linear)"/>
<path d="M78.7946 130.168H2.45801V131.703H78.7946V130.168Z" fill="url(#paint29_linear)"/>
<path d="M155.898 174.07C155.898 175.451 154.823 176.526 153.441 176.526C152.059 176.526 150.983 175.451 150.983 174.07C150.983 172.688 152.059 171.614 153.441 171.614C154.823 171.614 155.898 172.688 155.898 174.07Z" fill="url(#paint30_linear)"/>
<path d="M106.134 174.07C106.134 175.451 105.059 176.526 103.676 176.526C102.294 176.526 101.219 175.451 101.219 174.07C101.219 172.688 102.294 171.614 103.676 171.614C105.059 171.614 106.134 172.688 106.134 174.07Z" fill="url(#paint31_linear)"/>
<path d="M155.898 260.183C155.898 261.565 154.823 262.639 153.441 262.639C152.059 262.639 150.983 261.565 150.983 260.183C150.983 258.802 152.059 257.727 153.441 257.727C154.823 257.727 155.898 258.802 155.898 260.183Z" fill="url(#paint32_linear)"/>
<path d="M180.781 130.936C180.781 132.317 179.706 133.392 178.324 133.392C176.941 133.392 175.866 132.317 175.866 130.936C175.866 129.554 176.941 128.48 178.324 128.48C179.706 128.48 180.781 129.708 180.781 130.936Z" fill="url(#paint33_linear)"/>
<path d="M180.781 217.203C180.781 218.585 179.706 219.659 178.324 219.659C176.941 219.659 175.866 218.585 175.866 217.203C175.866 215.822 176.941 214.747 178.324 214.747C179.706 214.747 180.781 215.822 180.781 217.203Z" fill="url(#paint34_linear)"/>
<path d="M230.853 130.936C230.853 132.317 229.777 133.392 228.395 133.392C227.013 133.392 225.938 132.317 225.938 130.936C225.938 129.554 227.013 128.48 228.395 128.48C229.777 128.48 230.853 129.708 230.853 130.936Z" fill="url(#paint35_linear)"/>
<path d="M230.853 44.8222C230.853 46.2037 229.777 47.2782 228.395 47.2782C227.013 47.2782 225.938 46.2037 225.938 44.8222C225.938 43.4407 227.013 42.3661 228.395 42.3661C229.777 42.3661 230.853 43.4407 230.853 44.8222Z" fill="url(#paint36_linear)"/>
<path d="M180.627 44.8222C180.627 46.2037 179.552 47.2782 178.169 47.2782C176.787 47.2782 175.712 46.2037 175.712 44.8222C175.712 43.4407 176.787 42.3661 178.169 42.3661C179.552 42.3661 180.627 43.4407 180.627 44.8222Z" fill="url(#paint37_linear)"/>
<path d="M329.922 130.936C329.922 132.317 328.847 133.392 327.464 133.392C326.082 133.392 325.007 132.317 325.007 130.936C325.007 129.554 326.082 128.48 327.464 128.48C328.693 128.48 329.922 129.708 329.922 130.936Z" fill="url(#paint38_linear)"/>
<path d="M414.859 130.936C414.859 132.317 413.784 133.392 412.402 133.392C411.02 133.392 409.944 132.317 409.944 130.936C409.944 129.554 411.02 128.48 412.402 128.48C413.784 128.48 414.859 129.708 414.859 130.936Z" fill="url(#paint39_linear)"/>
<path d="M81.2519 130.936C81.2519 132.317 80.1768 133.392 78.7944 133.392C77.4121 133.392 76.3369 132.317 76.3369 130.936C76.3369 129.554 77.4121 128.48 78.7944 128.48C80.1768 128.48 81.2519 129.708 81.2519 130.936Z" fill="url(#paint40_linear)"/>
<path d="M4.91503 130.936C4.91503 132.317 3.83987 133.392 2.45752 133.392C1.07516 133.545 0 132.317 0 130.936C0 129.554 1.07516 128.48 2.45752 128.48C3.83987 128.48 4.91503 129.708 4.91503 130.936Z" fill="url(#paint41_linear)"/>
<path d="M155.898 87.9558C155.898 89.3373 154.823 90.4118 153.441 90.4118C152.059 90.4118 150.983 89.3373 150.983 87.9558C150.983 86.5743 152.059 85.4998 153.441 85.4998C154.823 85.4998 155.898 86.5743 155.898 87.9558Z" fill="url(#paint42_linear)"/>
<path d="M106.134 87.9558C106.134 89.3373 105.059 90.4118 103.676 90.4118C102.294 90.4118 101.219 89.3373 101.219 87.9558C101.219 86.5743 102.294 85.4998 103.676 85.4998C105.059 85.4998 106.134 86.5743 106.134 87.9558Z" fill="url(#paint43_linear)"/>
<path d="M304.886 87.9558C304.886 89.3373 303.811 90.4118 302.428 90.4118C301.046 90.4118 299.971 89.3373 299.971 87.9558C299.971 86.5743 301.046 85.4998 302.428 85.4998C303.811 85.4998 304.886 86.5743 304.886 87.9558Z" fill="url(#paint44_linear)"/>
<path d="M329.922 44.8222C329.922 46.2037 328.847 47.2782 327.464 47.2782C326.082 47.2782 325.007 46.2037 325.007 44.8222C325.007 43.4407 326.082 42.3661 327.464 42.3661C328.693 42.3661 329.922 43.4407 329.922 44.8222Z" fill="url(#paint45_linear)"/>
<path d="M255.121 87.9558C255.121 89.3373 254.046 90.4118 252.664 90.4118C251.281 90.4118 250.206 89.3373 250.206 87.9558C250.206 86.5743 251.281 85.4998 252.664 85.4998C254.046 85.4998 255.121 86.5743 255.121 87.9558Z" fill="url(#paint46_linear)"/>
<path d="M230.853 217.203C230.853 218.585 229.777 219.659 228.395 219.659C227.013 219.659 225.938 218.585 225.938 217.203C225.938 215.822 227.013 214.747 228.395 214.747C229.777 214.747 230.853 215.822 230.853 217.203Z" fill="url(#paint47_linear)"/>
<path d="M255.121 174.07C255.121 175.451 254.046 176.526 252.664 176.526C251.281 176.526 250.206 175.451 250.206 174.07C250.206 172.688 251.281 171.614 252.664 171.614C254.046 171.614 255.121 172.688 255.121 174.07Z" fill="url(#paint48_linear)"/>
<path d="M304.886 174.07C304.886 175.451 303.811 176.526 302.428 176.526C301.046 176.526 299.971 175.451 299.971 174.07C299.971 172.688 301.046 171.614 302.428 171.614C303.811 171.614 304.886 172.688 304.886 174.07Z" fill="url(#paint49_linear)"/>
<path d="M81.2519 44.8222C81.2519 46.2037 80.1768 47.2782 78.7944 47.2782C77.4121 47.2782 76.3369 46.2037 76.3369 44.8222C76.3369 43.4407 77.4121 42.3661 78.7944 42.3661C80.1768 42.3661 81.2519 43.4407 81.2519 44.8222Z" fill="url(#paint50_linear)"/>
<path d="M106.134 2.45601C106.134 3.83751 105.059 4.91202 103.676 4.91202C102.294 4.91202 101.219 3.83751 101.219 2.45601C101.219 1.0745 102.294 0 103.676 0C105.059 0 106.134 1.0745 106.134 2.45601Z" fill="url(#paint51_linear)"/>
<path d="M454.333 239.461L453.872 240.382L456.637 242.07L457.098 241.149L454.333 239.461ZM458.787 242.07L458.326 242.991L461.091 244.68L461.552 243.759L458.787 242.07ZM463.241 244.68L462.781 245.601L465.545 247.289L466.006 246.368L463.241 244.68ZM467.696 247.289L467.235 248.21L470 249.899L470.46 248.978L467.696 247.289ZM472.15 249.899L471.689 250.82L474.454 252.508L474.915 251.587L472.15 249.899ZM476.451 252.508L475.99 253.429L478.754 255.118L479.215 254.197L476.451 252.508ZM480.905 255.118L480.444 256.039L483.209 257.727L483.669 256.806L480.905 255.118ZM485.359 257.727L484.898 258.648L487.663 260.337L488.124 259.416L485.359 257.727ZM489.813 260.337L489.352 261.258L492.117 262.946L492.578 262.025L489.813 260.337ZM494.114 262.946L493.653 263.867L496.418 265.556L496.879 264.635L494.114 262.946ZM498.568 265.556L498.107 266.477L500.872 268.166L501.333 267.245L498.568 265.556ZM503.022 268.166L502.562 269.087L505.326 270.775L505.787 269.854L503.022 268.166Z" fill="url(#paint52_linear)"/>
<path d="M532.053 304.238L531.592 303.317L534.51 301.629L534.971 302.55L532.053 304.238ZM536.814 301.629L536.353 300.708L539.272 299.019L539.732 299.94L536.814 301.629ZM541.422 298.866L540.961 297.945L543.879 296.256L544.34 297.177L541.422 298.866ZM546.03 296.256L545.569 295.335L548.487 293.647L548.948 294.568L546.03 296.256ZM550.638 293.493L550.177 292.572L553.095 290.884L553.556 291.805L550.638 293.493ZM555.399 290.884L554.938 289.963L557.857 288.274L558.317 289.195L555.399 290.884ZM560.007 288.121L559.546 287.2L562.464 285.511L562.925 286.432L560.007 288.121ZM564.615 285.511L564.154 284.59L567.072 282.902L567.533 283.823L564.615 285.511ZM569.376 282.748L568.915 281.827L571.834 280.139L572.294 281.06L569.376 282.748ZM573.984 280.139L573.523 279.217L576.441 277.529L576.902 278.45L573.984 280.139ZM578.592 277.375L578.131 276.455L581.049 274.766L581.51 275.687L578.592 277.375ZM583.353 274.766L582.892 273.845L585.811 272.156L586.272 273.077L583.353 274.766ZM587.961 272.003L587.5 271.082L590.419 269.393L590.879 270.314L587.961 272.003ZM592.569 269.393L592.108 268.472L595.026 266.784L595.487 267.705L592.569 269.393ZM597.33 266.63L596.87 265.709L599.788 264.021L600.249 264.942L597.33 266.63ZM601.938 264.021L601.477 263.1L604.396 261.411L604.856 262.332L601.938 264.021ZM606.546 261.258L606.085 260.337L609.004 258.648L609.464 259.569L606.546 261.258ZM611.307 258.648L610.847 257.727L613.765 256.039L614.226 256.96L611.307 258.648ZM615.915 255.885L615.455 254.964L618.373 253.276L618.834 254.197L615.915 255.885ZM620.523 253.122L620.062 252.201L622.981 250.513L623.441 251.434L620.523 253.122ZM625.285 250.513L624.824 249.592L627.742 247.903L628.203 248.824L625.285 250.513ZM629.892 247.75L629.432 246.829L632.35 245.14L632.811 246.061L629.892 247.75ZM634.5 245.14L634.04 244.219L636.958 242.531L637.419 243.452L634.5 245.14ZM639.262 242.377L638.801 241.456L641.719 239.768L642.18 240.689L639.262 242.377Z" fill="url(#paint53_linear)"/>
<g opacity="0.4">
<g opacity="0.4">
<g opacity="0.4">
<path opacity="0.4" d="M346.97 55.7207L348.814 57.5627C349.121 57.8697 349.735 57.8697 350.042 57.4092C353.268 52.6507 354.804 47.1247 354.65 41.2916C354.189 26.2486 341.441 14.2756 326.389 14.8896C325.314 14.8896 324.238 15.0431 323.317 15.1966C310.722 17.0386 300.892 27.4766 299.97 40.2171C299.51 47.1247 301.506 53.7252 305.5 58.9442C305.807 59.4047 306.421 59.4047 306.729 58.9442L308.418 56.9487C308.725 56.6417 308.725 56.3347 308.418 56.0277C305.5 52.0367 303.964 47.2782 303.964 42.3662C303.964 30.2396 313.333 19.9551 325.467 19.0341C338.83 17.9596 350.196 28.2441 350.657 41.4451C350.81 46.2037 349.582 50.8087 346.97 54.6462C346.817 55.1067 346.817 55.4137 346.97 55.7207Z" fill="url(#paint54_linear)"/>
</g>
</g>
</g>
<g opacity="0.6">
<g opacity="0.6">
<g opacity="0.6">
<path opacity="0.6" d="M340.673 48.6597L342.823 50.8087C343.284 51.2692 344.052 51.1157 344.206 50.5017C345.434 47.8922 346.049 45.1292 345.895 42.0592C345.588 33.3096 339.137 25.7881 330.536 24.4066C328.078 23.9461 325.313 24.0996 322.856 24.7136C314.408 26.8626 308.418 34.6911 308.725 43.4407C308.879 46.3572 309.647 49.1202 311.029 51.7297C311.336 52.3437 312.104 52.3437 312.565 51.8832L314.562 49.5807C314.715 49.2737 314.869 48.9667 314.715 48.6597C313.947 46.9712 313.487 45.2827 313.487 43.4407C313.333 37.6076 316.866 32.2351 322.242 29.9326C325.313 28.7046 328.693 28.5511 331.918 29.6256C337.447 31.4676 341.441 36.6866 341.594 42.5197C341.594 44.3617 341.287 46.2037 340.673 47.8922C340.366 48.0457 340.366 48.3527 340.673 48.6597Z" fill="url(#paint55_linear)"/>
</g>
</g>
</g>
<path d="M343.438 66.0052L343.131 58.3302C343.131 57.8697 342.977 56.0277 341.441 55.5672C340.673 55.4137 340.059 55.4137 339.444 55.7207H339.291C338.983 54.7997 338.369 54.1857 337.448 54.0322C336.372 53.8787 335.604 54.1857 334.99 54.6462C334.529 53.7252 333.454 53.1112 332.225 53.2647C331.304 53.4182 330.536 53.8787 330.075 54.4927L329.921 48.0457C329.921 46.8177 329.768 45.4362 329.768 44.2082C329.614 42.8267 328.385 41.7522 327.003 41.7522C326.235 41.7522 325.467 42.2127 324.853 42.6732C324.238 43.2872 324.238 44.0547 324.238 44.8222V47.8922V56.4882C324.238 56.7952 324.392 62.7817 324.392 62.7817C323.931 62.3212 323.317 61.7072 322.702 61.0932C321.474 59.8652 319.323 58.9442 317.787 58.9442C317.019 58.9442 316.405 58.9442 316.098 59.2512C315.944 59.4047 315.791 59.4047 315.791 59.5582C315.023 60.3257 314.562 61.5537 315.023 62.3212C315.33 62.6282 315.637 62.9352 316.098 63.2422C316.712 63.5492 317.634 64.0097 318.248 64.7772C319.477 66.1587 322.242 69.3822 323.931 71.2243C324.238 71.3778 325.006 72.1453 325.314 72.2988C326.389 72.9128 327.31 73.5268 327.617 73.8338C327.925 74.1408 329.307 74.7548 329.307 74.7548C330.382 75.3688 332.533 75.9828 334.836 75.9828C337.14 75.9828 339.291 75.9828 340.827 74.6013H340.98V74.4478C342.516 72.9128 343.438 70.9173 343.284 68.7682C343.591 68.4612 343.438 66.4657 343.438 66.0052Z" fill="url(#paint56_linear)"/>
<path d="M327.003 35.9191C323.471 36.0726 320.706 38.9891 320.706 42.5197C320.706 44.5152 321.474 46.2037 322.703 47.2782V44.5152C322.703 43.4407 323.01 42.5197 323.624 41.7522C324.392 40.6776 325.621 40.0636 327.003 40.0636C329.154 40.0636 330.843 41.4451 331.304 43.4407C331.458 43.7477 331.458 44.0547 331.458 44.5152V47.2782C332.994 46.0502 333.608 44.2082 333.454 42.0592C333.608 38.6821 330.69 35.7656 327.003 35.9191Z" fill="url(#paint57_linear)"/>
<path d="M150.062 27.9371L146.069 23.9461C144.84 22.7181 142.843 21.9506 141 22.1041C139.157 22.2576 137.467 23.0251 136.085 24.4066L128.559 31.9281C128.405 32.0816 128.252 32.2351 128.098 32.5421C127.33 32.2351 126.408 32.2351 125.64 32.2351C123.797 32.3886 122.108 33.1561 120.725 34.5376L108.591 46.6642C107.209 48.0457 106.441 49.7342 106.287 51.5762C105.98 53.7252 106.595 55.5672 107.977 56.7952L111.97 60.7862C113.199 62.0142 114.735 62.6282 116.425 62.6282C116.732 62.6282 116.886 62.6282 117.193 62.6282C119.036 62.4747 120.725 61.5537 122.108 60.3257L129.02 53.4182C129.327 53.1112 129.634 52.6507 129.787 52.0367C130.555 52.3437 131.323 52.4972 132.091 52.4972C134.088 52.4972 136.085 51.5762 137.621 50.0412L149.755 37.9146C151.137 36.5331 151.905 34.8446 152.059 33.0026C152.059 31.0071 151.444 29.1651 150.062 27.9371ZM127.484 42.5197C127.33 42.3662 127.33 42.0592 127.33 41.9057C127.33 41.4452 127.637 40.9846 128.098 40.5241C128.252 40.3706 128.405 40.2171 128.559 40.0636L130.555 42.0592C130.709 42.2127 130.709 42.5197 130.709 42.6732C130.709 43.1337 130.402 43.5942 129.941 44.0547C129.787 44.2082 129.634 44.3617 129.48 44.5152L127.484 42.5197ZM134.703 38.0681L132.706 36.0726L140.232 28.5511C140.693 28.0906 141.153 27.9371 141.614 27.7836C141.921 27.7836 142.075 27.7836 142.229 27.9371L146.222 31.9281C146.376 32.0816 146.376 32.3886 146.376 32.5421C146.376 33.0026 146.069 33.4631 145.608 33.9236L136.699 42.8267C136.546 40.9846 135.931 39.2961 134.703 38.0681ZM124.872 49.2737L117.961 56.1812C117.5 56.6417 117.039 56.7952 116.578 56.9487C116.271 56.9487 116.118 56.9487 115.964 56.7952L112.124 52.8042C111.97 52.6507 111.97 52.3437 111.97 52.1902C111.97 51.7297 112.278 51.2692 112.738 50.8087L121.647 41.9057C121.647 43.7477 122.261 45.4362 123.49 46.6642L125.487 48.6597C125.18 48.8132 125.026 48.9667 124.872 49.2737Z" fill="url(#paint58_linear)"/>
<path d="M681.653 220.887L672.284 209.835C674.434 207.379 675.817 204.156 675.817 200.625C675.817 192.95 669.519 186.657 661.839 186.657C654.16 186.657 647.862 192.95 647.862 200.625C647.862 208.3 654.16 214.594 661.839 214.594C663.836 214.594 665.833 214.133 667.676 213.366L677.353 224.725C677.967 225.339 678.735 225.799 679.656 225.799C680.424 225.799 681.039 225.492 681.653 225.032C682.421 223.957 682.575 222.115 681.653 220.887ZM661.686 192.183C666.294 192.183 670.134 196.02 670.134 200.625C670.134 205.23 666.294 209.068 661.686 209.068C657.078 209.068 653.238 205.23 653.238 200.625C653.238 196.02 656.924 192.183 661.686 192.183Z" fill="url(#paint59_linear)"/>
<path d="M281.385 328.491C250.973 328.338 226.245 303.471 226.398 273.077C226.552 242.684 251.434 217.971 281.846 218.124C312.258 218.278 336.986 243.145 336.833 273.538C336.679 303.931 311.797 328.491 281.385 328.491ZM281.846 223.957C254.66 223.804 232.542 245.754 232.388 272.924C232.235 300.094 254.199 322.198 281.385 322.351C308.571 322.505 330.689 300.554 330.843 273.385C330.996 246.368 309.032 224.111 281.846 223.957Z" fill="url(#paint60_linear)"/>
<path d="M281.232 340.004C244.369 339.85 214.572 309.764 214.725 272.924H219.794C219.64 306.848 247.134 334.785 281.232 334.938C315.176 335.092 343.13 307.615 343.284 273.538C343.438 239.614 315.944 211.677 281.846 211.524V206.458C318.709 206.612 348.506 236.698 348.353 273.538C348.199 310.378 318.094 340.157 281.232 340.004Z" fill="url(#paint61_linear)"/>
<path d="M336.987 329.566L333.454 325.882C362.33 297.331 362.484 250.666 333.915 221.808L337.601 218.278C368.013 248.978 367.859 299.019 336.987 329.566Z" fill="url(#paint62_linear)"/>
<path d="M385.83 267.244L358.029 267.091V266.477L385.83 266.63V267.244Z" fill="url(#paint63_linear)"/>
<path d="M400.421 289.349L344.513 289.042V288.428L400.421 288.735V289.349Z" fill="url(#paint64_linear)"/>
<path d="M415.627 308.997L320.859 308.536V308.076L415.627 308.536V308.997Z" fill="url(#paint65_linear)"/>
<path d="M382.758 267.244C382.758 265.556 384.14 264.174 385.83 264.174C387.519 264.174 388.902 265.556 388.902 267.244C388.902 268.933 387.519 270.315 385.83 270.315C384.14 270.161 382.758 268.78 382.758 267.244Z" fill="url(#paint66_linear)"/>
<path d="M397.35 288.581C397.35 286.893 398.732 285.511 400.422 285.511C402.111 285.511 403.493 286.893 403.493 288.581C403.493 290.27 402.111 291.651 400.422 291.651C398.732 291.651 397.35 290.27 397.35 288.581Z" fill="url(#paint67_linear)"/>
<path d="M412.709 308.69C412.709 307.001 414.091 305.62 415.781 305.62C417.47 305.62 418.853 307.001 418.853 308.69C418.853 310.378 417.47 311.76 415.781 311.76C413.938 311.76 412.709 310.378 412.709 308.69Z" fill="url(#paint68_linear)"/>
<path d="M303.964 261.104H300.124V256.192C300.124 246.368 291.83 238.386 281.846 238.386C271.709 238.386 263.568 246.368 263.568 256.192V261.104H260.189C258.192 261.104 256.503 262.793 256.503 264.788V300.094C256.503 302.089 258.192 303.778 260.189 303.778H304.117C306.114 303.778 307.804 302.089 307.804 300.094V264.788C307.65 262.639 305.96 261.104 303.964 261.104ZM285.686 287.66C285.686 289.656 283.996 291.344 282 291.344C280.003 291.344 278.313 289.656 278.313 287.66V276.915C278.313 274.919 280.003 273.231 282 273.231C283.996 273.231 285.686 274.919 285.686 276.915V287.66ZM293.058 261.104H270.787V256.192C270.787 250.359 275.702 245.601 281.846 245.601C287.99 245.601 292.905 250.359 292.905 256.192V261.104H293.058Z" fill="url(#paint69_linear)"/>
<path d="M522.222 119.73H553.709C555.092 119.73 556.32 118.502 556.32 117.121V91.7933C556.32 90.4118 555.092 89.1838 553.709 89.1838H529.902V86.4208C529.902 82.2763 533.435 78.7458 537.889 78.7458C541.422 78.7458 544.494 81.0483 545.569 84.1183C545.722 84.7323 546.183 85.1928 546.798 85.3463C547.412 85.4998 548.026 85.4998 548.487 85.1928L549.562 84.5788C550.33 84.1183 550.791 83.0438 550.484 82.1228C548.641 76.9038 543.726 73.3733 538.043 73.3733C530.824 73.3733 524.834 79.0528 524.834 86.2673V89.0303H522.222C520.84 89.0303 519.611 90.2583 519.611 91.6398V116.967C519.611 118.502 520.84 119.73 522.222 119.73ZM535.432 100.696C535.432 99.3149 536.66 98.0869 538.043 98.0869C539.425 98.0869 540.654 99.3149 540.654 100.696V108.371C540.654 109.753 539.425 110.981 538.043 110.981C536.66 110.981 535.432 109.753 535.432 108.371V100.696Z" fill="url(#paint70_linear)"/>
<path d="M576.595 60.9397C576.288 60.6327 575.981 60.4792 575.674 60.3257L574.138 59.7117C550.791 50.6552 525.141 50.6552 501.641 59.7117L501.334 59.8652C498.723 60.9397 497.033 63.3957 497.033 66.1587V122.34C497.033 124.489 498.108 126.484 499.798 127.559L534.51 150.584C535.585 151.198 536.661 151.659 537.889 151.659C539.118 151.659 540.193 151.352 541.268 150.584L575.827 127.559C577.67 126.331 578.746 124.335 578.746 122.033V63.8562C578.899 62.4747 577.824 61.2467 576.595 60.9397ZM503.023 66.0052C503.023 65.6982 503.177 65.5447 503.331 65.3912C514.389 61.0932 526.216 58.9442 537.889 58.9442C549.563 58.9442 561.236 61.0932 572.448 65.3912L572.755 65.5447V122.033C572.755 122.186 572.602 122.34 572.448 122.493L538.197 145.212C538.043 145.365 537.736 145.365 537.582 145.212L503.331 122.493C503.177 122.34 503.023 122.186 503.023 122.033V66.0052Z" fill="url(#paint71_linear)"/>
<path d="M684.879 239.154H644.944L624.977 204.463L644.944 169.772H684.879L704.846 204.463L684.879 239.154ZM645.865 237.619H684.111L703.156 204.616L684.111 171.614H645.865L626.82 204.616L645.865 237.619Z" fill="url(#paint72_linear)"/>
<path d="M144.84 184.508L163.425 216.589L144.84 248.671H107.824L89.2389 216.589L107.824 184.508H144.84ZM145.762 182.819H106.749L87.2422 216.589L106.749 250.359H145.762L165.268 216.589L145.762 182.819Z" fill="url(#paint73_linear)"/>
<path opacity="0.5" d="M645.252 169.465L644.33 171L625.131 204.156H587.039L572.141 178.214L568.301 171.614L567.994 171L567.379 169.925H531.284C530.977 168.851 530.056 168.083 528.827 168.083C527.445 168.083 526.216 169.158 526.216 170.693C526.216 172.074 527.291 173.302 528.827 173.302C529.902 173.302 530.824 172.535 531.284 171.614H566.458L585.503 204.616L566.458 237.619H528.213L528.059 237.465V239.307H567.226L586.579 205.844H626.052L646.02 171.153L645.252 169.465Z" fill="url(#paint74_linear)"/>
<g opacity="0.2">
<path opacity="0.2" d="M302.889 88.8768H252.357L227.167 45.1292L252.357 1.535H302.889L328.079 45.2827L302.889 88.8768ZM253.278 87.3418H301.968L326.389 45.1292L301.968 3.07001H253.278L228.857 45.1292L253.278 87.3418Z" fill="url(#paint75_linear)"/>
</g>
<g opacity="0.2">
<path opacity="0.2" d="M153.749 347.218H103.216L78.0264 303.471L103.216 259.723H153.749L178.938 303.471L153.749 347.218ZM104.137 345.683H152.827L177.249 303.471L152.827 261.258H104.137L79.7159 303.471L104.137 345.683Z" fill="url(#paint76_linear)"/>
</g>
<g opacity="0.2">
<path opacity="0.2" d="M452.03 89.1838H401.497L376.308 45.5897L401.497 1.842H452.03L477.219 45.5897L452.03 89.1838ZM402.419 87.6488H451.108L475.53 45.4362L451.108 3.37701H402.419L377.997 45.5897L402.419 87.6488Z" fill="url(#paint77_linear)"/>
</g>
<g opacity="0.2">
<path opacity="0.2" d="M452.03 358.884H401.497L376.308 315.137L401.497 271.389H452.03L477.219 315.137L452.03 358.884ZM402.419 357.349H451.108L475.53 315.137L451.108 272.924H402.419L377.997 315.137L402.419 357.349Z" fill="url(#paint78_linear)"/>
</g>
<g opacity="0.2">
<path opacity="0.2" d="M558.625 410H508.092L482.902 366.252L508.092 322.505H558.625L583.814 366.252L558.625 410ZM509.013 408.465H557.703L582.125 366.252L557.703 324.04H509.013L484.592 366.252L509.013 408.465Z" fill="url(#paint79_linear)"/>
</g>
<path d="M211.306 172.143H209.838C209.458 172.143 209.15 172.451 209.15 172.831C209.15 173.211 209.458 173.519 209.838 173.519H211.306C211.685 173.519 211.994 173.211 211.994 172.831C211.993 172.451 211.685 172.143 211.306 172.143Z" fill="#5173C9"/>
<path d="M211.486 177.826C211.215 177.479 210.806 177.28 210.365 177.28H194.634C194.193 177.28 193.785 177.479 193.514 177.826C193.242 178.174 193.148 178.619 193.255 179.046L193.622 180.514C193.78 181.148 194.348 181.591 195.001 181.591H209.999C210.652 181.591 211.219 181.148 211.378 180.514L211.745 179.046C211.852 178.618 211.757 178.174 211.486 177.826ZM210.41 178.713L210.043 180.18C210.038 180.201 210.02 180.215 209.999 180.215H195.001C194.98 180.215 194.962 180.201 194.957 180.18L194.59 178.713C194.588 178.706 194.584 178.691 194.598 178.673C194.612 178.656 194.628 178.656 194.634 178.656H210.365C210.372 178.656 210.388 178.656 210.402 178.673C210.415 178.691 210.412 178.706 210.41 178.713Z" fill="#5173C9"/>
<path d="M220.845 173.519C222.033 173.519 223 172.552 223 171.364C223 170.175 222.033 169.208 220.845 169.208H220.111C219.039 169.208 218.148 169.994 217.983 171.02L216.148 165.974C215.734 164.836 214.643 164.072 213.432 164.072H208.2L207.813 162.136C207.612 161.132 206.723 160.403 205.7 160.403H199.3C198.276 160.403 197.388 161.132 197.187 162.136L196.8 164.072H191.567C190.357 164.072 189.266 164.836 188.852 165.974L187.017 171.02C186.852 169.994 185.961 169.208 184.889 169.208H184.156C182.967 169.208 182 170.175 182 171.364C182 172.552 182.967 173.519 184.155 173.519H184.889C185.228 173.519 185.549 173.44 185.834 173.3L184.261 175.266C183.749 175.906 183.468 176.71 183.468 177.53V191.176C183.468 191.96 184.105 192.597 184.889 192.597H187.091C187.875 192.597 188.512 191.96 188.512 191.176V188.195H216.488V191.176C216.488 191.96 217.125 192.597 217.909 192.597H220.111C220.895 192.597 221.532 191.96 221.532 191.176V177.53C221.532 176.71 221.25 175.906 220.738 175.266L219.166 173.3C219.451 173.44 219.772 173.519 220.111 173.519H220.845ZM184.889 172.143H184.156C183.726 172.143 183.376 171.794 183.376 171.364C183.376 170.934 183.726 170.584 184.156 170.584H184.889C185.319 170.584 185.669 170.934 185.669 171.364C185.669 171.793 185.319 172.143 184.889 172.143ZM198.536 162.405C198.609 162.042 198.93 161.779 199.3 161.779H205.7C206.07 161.779 206.391 162.042 206.464 162.405L206.797 164.072H198.203L198.536 162.405ZM187.136 191.176C187.136 191.201 187.116 191.222 187.091 191.222H184.889C184.864 191.222 184.843 191.201 184.843 191.176V187.765C185.284 188.037 185.802 188.195 186.357 188.195H187.136V191.176H187.136ZM210.617 186.819H194.383V185.305C194.383 185.28 194.403 185.26 194.428 185.26H210.572C210.597 185.26 210.618 185.28 210.618 185.305V186.819H210.617ZM220.157 191.176C220.157 191.201 220.136 191.222 220.111 191.222H217.909C217.884 191.222 217.863 191.201 217.863 191.176V188.195H218.643C219.198 188.195 219.716 188.037 220.157 187.765V191.176H220.157ZM219.664 176.126C219.982 176.523 220.157 177.021 220.157 177.53V185.305C220.157 186.14 219.478 186.819 218.643 186.819H211.993V185.305C211.993 184.521 211.356 183.884 210.572 183.884H194.428C193.644 183.884 193.007 184.521 193.007 185.305V186.819H186.357C185.522 186.819 184.843 186.14 184.843 185.305V177.53C184.843 177.021 185.018 176.523 185.336 176.126L187.421 173.519H206.903C207.283 173.519 207.591 173.211 207.591 172.831C207.591 172.451 207.283 172.143 206.903 172.143H188.073L190.145 166.444C190.362 165.848 190.934 165.447 191.568 165.447H213.433C214.067 165.447 214.638 165.848 214.855 166.444L216.927 172.143H214.241C213.861 172.143 213.553 172.451 213.553 172.831C213.553 173.211 213.861 173.519 214.241 173.519H217.579L219.664 176.126ZM219.331 171.364C219.331 170.934 219.681 170.584 220.111 170.584H220.844C221.274 170.584 221.624 170.934 221.624 171.364C221.624 171.794 221.274 172.143 220.844 172.143H220.111C219.681 172.143 219.331 171.793 219.331 171.364Z" fill="#5173C9"/>
<path d="M189.292 182.416C188.508 182.416 187.87 183.054 187.87 183.838C187.87 184.622 188.508 185.259 189.292 185.259C190.076 185.259 190.714 184.622 190.714 183.838C190.714 183.054 190.076 182.416 189.292 182.416Z" fill="#5173C9"/>
<path d="M215.708 182.416C214.924 182.416 214.286 183.054 214.286 183.838C214.286 184.622 214.924 185.259 215.708 185.259C216.492 185.259 217.13 184.622 217.13 183.838C217.13 183.054 216.492 182.416 215.708 182.416Z" fill="#5173C9"/>
<path d="M188.925 176.546C187.534 176.546 186.402 177.677 186.402 179.068C186.402 180.459 187.534 181.591 188.925 181.591C190.316 181.591 191.447 180.459 191.447 179.068C191.447 177.677 190.316 176.546 188.925 176.546ZM188.925 180.215C188.293 180.215 187.778 179.7 187.778 179.068C187.778 178.436 188.292 177.922 188.925 177.922C189.557 177.922 190.071 178.436 190.071 179.068C190.071 179.7 189.557 180.215 188.925 180.215Z" fill="#5173C9"/>
<path d="M216.075 176.546C214.684 176.546 213.553 177.677 213.553 179.068C213.553 180.459 214.684 181.591 216.075 181.591C217.466 181.591 218.597 180.459 218.597 179.068C218.597 177.677 217.466 176.546 216.075 176.546ZM216.075 180.215C215.443 180.215 214.929 179.7 214.929 179.068C214.929 178.436 215.443 177.922 216.075 177.922C216.707 177.922 217.222 178.436 217.222 179.068C217.222 179.7 216.707 180.215 216.075 180.215Z" fill="#5173C9"/>
<path d="M119.033 138.308C116.662 138.308 114.733 140.237 114.733 142.608C114.733 144.98 116.662 146.908 119.033 146.908C121.405 146.908 123.333 144.98 123.333 142.608C123.333 140.237 121.405 138.308 119.033 138.308ZM119.033 145.475C117.452 145.475 116.167 144.189 116.167 142.608C116.167 141.027 117.452 139.742 119.033 139.742C120.614 139.742 121.9 141.027 121.9 142.608C121.9 144.189 120.614 145.475 119.033 145.475Z" fill="#5173C9"/>
<path d="M143.4 138.308C141.028 138.308 139.1 140.237 139.1 142.608C139.1 144.98 141.028 146.908 143.4 146.908C145.771 146.908 147.7 144.98 147.7 142.608C147.7 140.237 145.771 138.308 143.4 138.308ZM143.4 145.475C141.819 145.475 140.533 144.189 140.533 142.608C140.533 141.027 141.819 139.742 143.4 139.742C144.981 139.742 146.266 141.027 146.266 142.608C146.266 144.189 144.981 145.475 143.4 145.475Z" fill="#5173C9"/>
<path d="M151.886 134.337L145.436 124.304C145.304 124.099 145.077 123.975 144.833 123.975H136.95C136.554 123.975 136.233 124.296 136.233 124.692V142.608C136.233 143.005 136.554 143.325 136.95 143.325H139.817V141.892H137.667V125.408H144.442L150.567 134.936V141.892H146.983V143.325H151.283C151.68 143.325 152 143.005 152 142.608V134.725C152 134.588 151.961 134.453 151.886 134.337Z" fill="#5173C9"/>
<path d="M140.533 133.292V128.275H146.266V126.842H139.816C139.42 126.842 139.1 127.163 139.1 127.558V134.008C139.1 134.405 139.42 134.725 139.816 134.725H150.566V133.292H140.533V133.292Z" fill="#5173C9"/>
<path d="M136.95 118.958H109.717C109.321 118.958 109 119.279 109 119.675V142.608C109 143.005 109.321 143.325 109.717 143.325H115.45V141.892H110.433V120.392H136.233V141.892H122.617V143.325H136.95C137.346 143.325 137.667 143.005 137.667 142.608V119.675C137.667 119.279 137.346 118.958 136.95 118.958Z" fill="#5173C9"/>
<path d="M114.017 139.025H109.717V140.458H114.017V139.025Z" fill="#5173C9"/>
<path d="M136.233 139.025H124.05V140.458H136.233V139.025Z" fill="#5173C9"/>
<path d="M151.284 139.025H148.417V140.458H151.284V139.025Z" fill="#5173C9"/>
<path d="M136.95 121.825H111.866V123.258H136.95V121.825Z" fill="#5173C9"/>
<path d="M119.75 141.892H118.316V143.325H119.75V141.892Z" fill="#5173C9"/>
<path d="M144.117 141.892H142.684V143.325H144.117V141.892Z" fill="#5173C9"/>
<path d="M121.9 116.092H111.866V117.525H121.9V116.092Z" fill="#5173C9"/>
<path d="M110.433 116.092H109V117.525H110.433V116.092Z" fill="#5173C9"/>
<g clip-path="url(#clip1)">
<path d="M412.852 201.504C411.717 201.504 410.793 202.428 410.793 203.563C410.793 204.698 411.717 205.622 412.852 205.622C413.988 205.622 414.911 204.698 414.911 203.563C414.911 202.428 413.988 201.504 412.852 201.504ZM412.852 204.124C412.543 204.124 412.291 203.872 412.291 203.563C412.291 203.254 412.543 203.002 412.852 203.002C413.161 203.002 413.413 203.254 413.413 203.563C413.413 203.872 413.161 204.124 412.852 204.124Z" fill="#5173C9"/>
<path d="M434.148 201.504C433.013 201.504 432.089 202.428 432.089 203.563C432.089 204.698 433.013 205.622 434.148 205.622C435.283 205.622 436.207 204.698 436.207 203.563C436.207 202.428 435.284 201.504 434.148 201.504ZM434.148 204.124C433.839 204.124 433.587 203.872 433.587 203.563C433.587 203.254 433.839 203.002 434.148 203.002C434.457 203.002 434.709 203.254 434.709 203.563C434.709 203.872 434.457 204.124 434.148 204.124Z" fill="#5173C9"/>
<path d="M443.049 199.95V192.921V185.267C443.049 182.882 441.11 180.943 438.725 180.943H410.668C406.964 180.943 403.951 183.956 403.951 187.66V199.95C403.374 200.383 403 201.073 403 201.848V201.94C403 203.248 404.064 204.312 405.372 204.312H408.421C408.779 206.435 410.629 208.057 412.852 208.057C415.075 208.057 416.925 206.435 417.282 204.312H429.718C430.076 206.435 431.925 208.057 434.148 208.057C436.371 208.057 438.221 206.435 438.579 204.312H441.628C442.936 204.312 444 203.248 444 201.94V201.848C444 201.073 443.626 200.383 443.049 199.95ZM441.551 192.172H439.495C439.39 192.172 439.305 192.087 439.305 191.981V186.206C439.305 186.101 439.39 186.016 439.495 186.016H441.551V192.172ZM404.498 201.94V201.848C404.498 201.366 404.89 200.973 405.372 200.973H409.182C408.801 201.512 408.535 202.137 408.421 202.814H405.372C404.89 202.814 404.498 202.422 404.498 201.94ZM412.852 206.559C411.2 206.559 409.856 205.215 409.856 203.563C409.856 201.911 411.2 200.567 412.852 200.567C414.504 200.567 415.848 201.911 415.848 203.563C415.848 205.215 414.504 206.559 412.852 206.559ZM429.718 202.814H417.282C416.925 200.691 415.075 199.069 412.852 199.069C412.187 199.069 411.556 199.215 410.988 199.475H405.449V187.66C405.449 184.782 407.79 182.441 410.668 182.441H438.725C440.024 182.441 441.12 183.322 441.45 184.518H439.495C438.564 184.518 437.806 185.275 437.806 186.206V191.982C437.806 192.913 438.564 193.67 439.495 193.67H441.551V199.476H436.012C435.444 199.215 434.813 199.069 434.148 199.069C431.925 199.069 430.075 200.691 429.718 202.814ZM434.148 206.559C432.496 206.559 431.152 205.215 431.152 203.563C431.152 201.911 432.496 200.567 434.148 200.567C435.8 200.567 437.144 201.911 437.144 203.563C437.144 205.215 435.8 206.559 434.148 206.559ZM442.502 201.94C442.502 202.422 442.11 202.814 441.628 202.814H438.579C438.465 202.137 438.199 201.512 437.818 200.973H441.628C442.11 200.973 442.502 201.366 442.502 201.848V201.94Z" fill="#5173C9"/>
<path d="M435.596 191.981V186.206C435.596 185.275 434.839 184.517 433.908 184.517H410.844C408.852 184.517 407.23 186.139 407.23 188.131V191.981C407.23 192.913 407.988 193.67 408.919 193.67H433.908C434.839 193.67 435.596 192.913 435.596 191.981ZM422.163 186.016H428.051V192.172H422.163V186.016ZM420.664 192.172H414.776V186.016H420.664V192.172ZM408.729 191.981V188.131C408.729 186.965 409.678 186.016 410.844 186.016H413.278V192.172H408.919C408.814 192.172 408.729 192.087 408.729 191.981ZM434.098 191.981C434.098 192.087 434.013 192.172 433.908 192.172H429.549V186.016H433.908C434.013 186.016 434.098 186.101 434.098 186.206V191.981Z" fill="#5173C9"/>
<path d="M439.907 198.31C440.321 198.31 440.656 197.975 440.656 197.561V196.896C440.656 196.482 440.321 196.147 439.907 196.147C439.494 196.147 439.158 196.482 439.158 196.896V197.561C439.158 197.975 439.494 198.31 439.907 198.31Z" fill="#5173C9"/>
</g>
<g clip-path="url(#clip2)">
<path d="M539.05 266.975H544.761C546.008 266.975 547.022 265.962 547.022 264.717C547.022 263.47 546.008 262.456 544.761 262.456H539.05C537.803 262.456 536.788 263.47 536.788 264.717C536.788 265.962 537.803 266.975 539.05 266.975ZM539.05 263.755H544.761C545.292 263.755 545.724 264.186 545.724 264.717C545.724 265.246 545.292 265.677 544.761 265.677H539.05C538.519 265.677 538.087 265.246 538.087 264.717C538.087 264.186 538.519 263.755 539.05 263.755Z" fill="#5173C9"/>
<path d="M564.456 258.92V257.693C564.456 256.325 563.342 255.211 561.972 255.211H538.015C536.646 255.211 535.532 256.325 535.532 257.693V258.92C532.975 259.25 530.99 261.499 530.99 264.218V275.124V278.958V280.371H527.348C526.458 280.371 525.91 280.744 525.607 281.056C525.216 281.461 525 282.002 525 282.581C525 283.679 525.807 284.791 527.348 284.791H530.99V286.143H530.979C529.891 286.143 529.005 287.029 529.005 288.119C529.005 289.207 529.891 290.093 530.979 290.093H535.697C536.787 290.093 537.673 289.207 537.673 288.119C537.673 287.029 536.787 286.143 535.697 286.143H535.689V284.791H537.438H546.395H550.252C550.425 286.223 551.043 287.556 552.055 288.633C553.361 290.024 555.131 290.789 557.041 290.789C558.948 290.789 560.718 290.024 562.023 288.636C563.036 287.558 563.655 286.224 563.829 284.791H566.796C568.011 284.784 569 283.79 569 282.576V271.823V264.218C569 261.499 567.014 259.25 564.456 258.92ZM560.354 264.867H567.701V271.174H560.354V264.867ZM536.181 260.176H548.444C548.802 260.176 549.093 259.885 549.093 259.527C549.093 259.168 548.802 258.877 548.444 258.877H536.831V257.693C536.831 257.041 537.362 256.51 538.015 256.51H561.972C562.625 256.51 563.157 257.041 563.157 257.693V258.877H551.278C550.92 258.877 550.629 259.168 550.629 259.526C550.629 259.885 550.92 260.176 551.278 260.176H563.806C565.741 260.176 567.35 261.647 567.65 263.568H559.705H554.922C552.467 263.568 550.471 265.565 550.471 268.02C550.471 270.475 552.467 272.472 554.922 272.472H559.705H567.701V274.733H555.979C555.62 274.733 555.329 275.023 555.329 275.382C555.329 275.741 555.62 276.031 555.979 276.031H567.701V278.309H560.904C559.776 277.533 558.442 277.116 557.041 277.116C555.639 277.116 554.305 277.533 553.177 278.309H547.045V276.031H553.18C553.539 276.031 553.83 275.741 553.83 275.382C553.83 275.023 553.539 274.733 553.18 274.733H547.045V271.523C547.045 270.219 545.982 269.158 544.676 269.158H539.157C537.851 269.158 536.788 270.219 536.788 271.523V274.475H532.289V264.218C532.289 261.989 534.035 260.176 536.181 260.176ZM554.922 271.174C553.184 271.174 551.77 269.759 551.77 268.02C551.77 266.282 553.184 264.867 554.922 264.867H559.055V271.173H554.922V271.174ZM535.039 283.492H532.289V279.608H536.789V283.492H535.039ZM532.289 275.773H536.789V278.309H532.289V275.773ZM526.299 282.581C526.299 282.341 526.385 282.121 526.541 281.96C526.724 281.77 527.003 281.67 527.348 281.67H530.99V283.492H527.348C526.574 283.492 526.299 283.001 526.299 282.581ZM536.375 288.119C536.375 288.491 536.07 288.794 535.697 288.794H530.979C530.607 288.794 530.304 288.491 530.304 288.119C530.304 287.746 530.607 287.442 530.979 287.442H531.639H535.039H535.697C536.07 287.442 536.375 287.746 536.375 288.119ZM534.39 286.143H532.289V284.791H534.39V286.143ZM538.088 283.492V271.524C538.088 270.935 538.567 270.457 539.157 270.457H544.676C545.266 270.457 545.746 270.935 545.746 271.524V283.492H538.088V283.492ZM550.216 283.492H547.045V279.608H551.759C550.854 280.706 550.312 282.064 550.216 283.492ZM561.076 287.746C560.019 288.871 558.586 289.49 557.041 289.49C555.494 289.49 554.059 288.87 553.002 287.744C551.943 286.617 551.413 285.144 551.51 283.598C551.594 282.272 552.155 281.02 553.088 280.071C554.138 279.003 555.542 278.415 557.041 278.415C558.539 278.415 559.943 279.003 560.993 280.071C561.926 281.02 562.487 282.272 562.571 283.597C562.667 285.145 562.136 286.618 561.076 287.746ZM566.792 283.492H563.865C563.77 282.064 563.227 280.706 562.322 279.608H567.701V282.576C567.701 283.078 567.292 283.489 566.792 283.492Z" fill="#5173C9"/>
<path d="M557.041 280.846C555.326 280.846 553.932 282.239 553.932 283.951C553.932 285.665 555.326 287.059 557.041 287.059C558.754 287.059 560.148 285.665 560.148 283.951C560.148 282.239 558.754 280.846 557.041 280.846ZM557.041 285.761C556.043 285.761 555.231 284.949 555.231 283.951C555.231 282.955 556.043 282.144 557.041 282.144C558.038 282.144 558.849 282.955 558.849 283.951C558.849 284.949 558.038 285.761 557.041 285.761Z" fill="#5173C9"/>
</g>
</g>
<defs>
<linearGradient id="paint0_linear" x1="687.351" y1="238.466" x2="327.392" y2="238.466" gradientUnits="userSpaceOnUse">
<stop stop-color="#5173C9"/>
<stop offset="0.2604" stop-color="#5177CE"/>
<stop offset="0.5477" stop-color="#5284DB"/>
<stop offset="0.8469" stop-color="#5499F1"/>
<stop offset="1" stop-color="#55A7FF"/>
</linearGradient>
<linearGradient id="paint1_linear" x1="687.358" y1="272.102" x2="327.385" y2="272.102" gradientUnits="userSpaceOnUse">
<stop stop-color="#5173C9"/>
<stop offset="0.2604" stop-color="#5177CE"/>
<stop offset="0.5477" stop-color="#5284DB"/>
<stop offset="0.8469" stop-color="#5499F1"/>
<stop offset="1" stop-color="#55A7FF"/>
</linearGradient>
<linearGradient id="paint2_linear" x1="687.352" y1="322.848" x2="327.401" y2="322.848" gradientUnits="userSpaceOnUse">
<stop stop-color="#5173C9"/>
<stop offset="0.2604" stop-color="#5177CE"/>
<stop offset="0.5477" stop-color="#5284DB"/>
<stop offset="0.8469" stop-color="#5499F1"/>
<stop offset="1" stop-color="#55A7FF"/>
</linearGradient>
<linearGradient id="paint3_linear" x1="687.841" y1="305.735" x2="323.639" y2="305.735" gradientUnits="userSpaceOnUse">
<stop stop-color="#5173C9"/>
<stop offset="0.2604" stop-color="#5177CE"/>
<stop offset="0.5477" stop-color="#5284DB"/>
<stop offset="0.8469" stop-color="#5499F1"/>
<stop offset="1" stop-color="#55A7FF"/>
</linearGradient>
<linearGradient id="paint4_linear" x1="687.851" y1="255.382" x2="323.588" y2="255.382" gradientUnits="userSpaceOnUse">
<stop stop-color="#5173C9"/>
<stop offset="0.2604" stop-color="#5177CE"/>
<stop offset="0.5477" stop-color="#5284DB"/>
<stop offset="0.8469" stop-color="#5499F1"/>
<stop offset="1" stop-color="#55A7FF"/>
</linearGradient>
<linearGradient id="paint5_linear" x1="671.822" y1="305.933" x2="445.154" y2="305.933" gradientUnits="userSpaceOnUse">
<stop stop-color="#5173C9"/>
<stop offset="0.2604" stop-color="#5177CE"/>
<stop offset="0.5477" stop-color="#5284DB"/>
<stop offset="0.8469" stop-color="#5499F1"/>
<stop offset="1" stop-color="#55A7FF"/>
</linearGradient>
<linearGradient id="paint6_linear" x1="383.408" y1="195.252" x2="463.827" y2="195.252" gradientUnits="userSpaceOnUse">
<stop stop-color="#5173C9"/>
<stop offset="0.2604" stop-color="#5177CE"/>
<stop offset="0.5477" stop-color="#5284DB"/>
<stop offset="0.8469" stop-color="#5499F1"/>
<stop offset="1" stop-color="#55A7FF"/>
</linearGradient>
<linearGradient id="paint7_linear" x1="447.028" y1="238.177" x2="786.39" y2="238.177" gradientUnits="userSpaceOnUse">
<stop stop-color="#5173C9"/>
<stop offset="0.2604" stop-color="#5177CE"/>
<stop offset="0.5477" stop-color="#5284DB"/>
<stop offset="0.8469" stop-color="#5499F1"/>
<stop offset="1" stop-color="#55A7FF"/>
</linearGradient>
<linearGradient id="paint8_linear" x1="446.991" y1="238.177" x2="786.455" y2="238.177" gradientUnits="userSpaceOnUse">
<stop stop-color="#5173C9"/>
<stop offset="0.2604" stop-color="#5177CE"/>
<stop offset="0.5477" stop-color="#5284DB"/>
<stop offset="0.8469" stop-color="#5499F1"/>
<stop offset="1" stop-color="#55A7FF"/>
</linearGradient>
<linearGradient id="paint9_linear" x1="447.038" y1="340.692" x2="786.404" y2="340.692" gradientUnits="userSpaceOnUse">
<stop stop-color="#5173C9"/>
<stop offset="0.2604" stop-color="#5177CE"/>
<stop offset="0.5477" stop-color="#5284DB"/>
<stop offset="0.8469" stop-color="#5499F1"/>
<stop offset="1" stop-color="#55A7FF"/>
</linearGradient>
<linearGradient id="paint10_linear" x1="447.002" y1="305.933" x2="786.47" y2="305.933" gradientUnits="userSpaceOnUse">
<stop stop-color="#5173C9"/>
<stop offset="0.2604" stop-color="#5177CE"/>
<stop offset="0.5477" stop-color="#5284DB"/>
<stop offset="0.8469" stop-color="#5499F1"/>
<stop offset="1" stop-color="#55A7FF"/>
</linearGradient>
<linearGradient id="paint11_linear" x1="422.242" y1="305.933" x2="761.71" y2="305.933" gradientUnits="userSpaceOnUse">
<stop stop-color="#5173C9"/>
<stop offset="0.2604" stop-color="#5177CE"/>
<stop offset="0.5477" stop-color="#5284DB"/>
<stop offset="0.8469" stop-color="#5499F1"/>
<stop offset="1" stop-color="#55A7FF"/>
</linearGradient>
<linearGradient id="paint12_linear" x1="446.991" y1="305.933" x2="786.455" y2="305.933" gradientUnits="userSpaceOnUse">
<stop stop-color="#5173C9"/>
<stop offset="0.2604" stop-color="#5177CE"/>
<stop offset="0.5477" stop-color="#5284DB"/>
<stop offset="0.8469" stop-color="#5499F1"/>
<stop offset="1" stop-color="#55A7FF"/>
</linearGradient>
<linearGradient id="paint13_linear" x1="447.694" y1="238.177" x2="787.16" y2="238.177" gradientUnits="userSpaceOnUse">
<stop stop-color="#5173C9"/>
<stop offset="0.2604" stop-color="#5177CE"/>
<stop offset="0.5477" stop-color="#5284DB"/>
<stop offset="0.8469" stop-color="#5499F1"/>
<stop offset="1" stop-color="#55A7FF"/>
</linearGradient>
<linearGradient id="paint14_linear" x1="467.66" y1="204.539" x2="807.027" y2="204.539" gradientUnits="userSpaceOnUse">
<stop stop-color="#5173C9"/>
<stop offset="0.2604" stop-color="#5177CE"/>
<stop offset="0.5477" stop-color="#5284DB"/>
<stop offset="0.8469" stop-color="#5499F1"/>
<stop offset="1" stop-color="#55A7FF"/>
</linearGradient>
<linearGradient id="paint15_linear" x1="108.183" y1="109.441" x2="173.738" y2="109.441" gradientUnits="userSpaceOnUse">
<stop stop-color="#5173C9"/>
<stop offset="0.2604" stop-color="#5177CE"/>
<stop offset="0.5477" stop-color="#5284DB"/>
<stop offset="0.8469" stop-color="#5499F1"/>
<stop offset="1" stop-color="#55A7FF"/>
</linearGradient>
<linearGradient id="paint16_linear" x1="182.662" y1="195.672" x2="248.139" y2="195.672" gradientUnits="userSpaceOnUse">
<stop stop-color="#5173C9"/>
<stop offset="0.2604" stop-color="#5177CE"/>
<stop offset="0.5477" stop-color="#5284DB"/>
<stop offset="0.8469" stop-color="#5499F1"/>
<stop offset="1" stop-color="#55A7FF"/>
</linearGradient>
<linearGradient id="paint17_linear" x1="5.35797" y1="87.9223" x2="249.267" y2="87.5563" gradientUnits="userSpaceOnUse">
<stop stop-color="#5173C9"/>
<stop offset="0.2604" stop-color="#5177CE"/>
<stop offset="0.5477" stop-color="#5284DB"/>
<stop offset="0.8469" stop-color="#5499F1"/>
<stop offset="1" stop-color="#55A7FF"/>
</linearGradient>
<linearGradient id="paint18_linear" x1="326.83" y1="85.9548" x2="409.834" y2="85.9548" gradientUnits="userSpaceOnUse">
<stop stop-color="#5173C9"/>
<stop offset="0.2604" stop-color="#5177CE"/>
<stop offset="0.5477" stop-color="#5284DB"/>
<stop offset="0.8469" stop-color="#5499F1"/>
<stop offset="1" stop-color="#55A7FF"/>
</linearGradient>
<linearGradient id="paint19_linear" x1="28.1566" y1="45.331" x2="75.7111" y2="45.331" gradientUnits="userSpaceOnUse">
<stop stop-color="#5173C9"/>
<stop offset="0.2604" stop-color="#5177CE"/>
<stop offset="0.5477" stop-color="#5284DB"/>
<stop offset="0.8469" stop-color="#5499F1"/>
<stop offset="1" stop-color="#55A7FF"/>
</linearGradient>
<linearGradient id="paint20_linear" x1="106.169" y1="151.705" x2="174.423" y2="151.705" gradientUnits="userSpaceOnUse">
<stop stop-color="#5173C9"/>
<stop offset="0.2604" stop-color="#5177CE"/>
<stop offset="0.5477" stop-color="#5284DB"/>
<stop offset="0.8469" stop-color="#5499F1"/>
<stop offset="1" stop-color="#55A7FF"/>
</linearGradient>
<linearGradient id="paint21_linear" x1="54.4168" y1="-3.91825" x2="346.073" y2="287.917" gradientUnits="userSpaceOnUse">
<stop stop-color="#5173C9"/>
<stop offset="0.2604" stop-color="#5177CE"/>
<stop offset="0.5477" stop-color="#5284DB"/>
<stop offset="0.8469" stop-color="#5499F1"/>
<stop offset="1" stop-color="#55A7FF"/>
</linearGradient>
<linearGradient id="paint22_linear" x1="-11.2136" y1="61.6971" x2="280.421" y2="353.511" gradientUnits="userSpaceOnUse">
<stop stop-color="#5173C9"/>
<stop offset="0.2604" stop-color="#5177CE"/>
<stop offset="0.5477" stop-color="#5284DB"/>
<stop offset="0.8469" stop-color="#5499F1"/>
<stop offset="1" stop-color="#55A7FF"/>
</linearGradient>
<linearGradient id="paint23_linear" x1="82.7756" y1="-32.2601" x2="374.433" y2="259.577" gradientUnits="userSpaceOnUse">
<stop stop-color="#5173C9"/>
<stop offset="0.2604" stop-color="#5177CE"/>
<stop offset="0.5477" stop-color="#5284DB"/>
<stop offset="0.8469" stop-color="#5499F1"/>
<stop offset="1" stop-color="#55A7FF"/>
</linearGradient>
<linearGradient id="paint24_linear" x1="39.6342" y1="10.8569" x2="331.289" y2="302.691" gradientUnits="userSpaceOnUse">
<stop stop-color="#5173C9"/>
<stop offset="0.2604" stop-color="#5177CE"/>
<stop offset="0.5477" stop-color="#5284DB"/>
<stop offset="0.8469" stop-color="#5499F1"/>
<stop offset="1" stop-color="#55A7FF"/>
</linearGradient>
<linearGradient id="paint25_linear" x1="23.8779" y1="26.6018" x2="315.534" y2="318.437" gradientUnits="userSpaceOnUse">
<stop stop-color="#5173C9"/>
<stop offset="0.2604" stop-color="#5177CE"/>
<stop offset="0.5477" stop-color="#5284DB"/>
<stop offset="0.8469" stop-color="#5499F1"/>
<stop offset="1" stop-color="#55A7FF"/>
</linearGradient>
<linearGradient id="paint26_linear" x1="111.174" y1="-60.6421" x2="402.831" y2="231.194" gradientUnits="userSpaceOnUse">
<stop stop-color="#5173C9"/>
<stop offset="0.2604" stop-color="#5177CE"/>
<stop offset="0.5477" stop-color="#5284DB"/>
<stop offset="0.8469" stop-color="#5499F1"/>
<stop offset="1" stop-color="#55A7FF"/>
</linearGradient>
<linearGradient id="paint27_linear" x1="149.498" y1="-98.9285" x2="441.145" y2="192.897" gradientUnits="userSpaceOnUse">
<stop stop-color="#5173C9"/>
<stop offset="0.2604" stop-color="#5177CE"/>
<stop offset="0.5477" stop-color="#5284DB"/>
<stop offset="0.8469" stop-color="#5499F1"/>
<stop offset="1" stop-color="#55A7FF"/>
</linearGradient>
<linearGradient id="paint28_linear" x1="144.648" y1="-94.0954" x2="436.305" y2="197.741" gradientUnits="userSpaceOnUse">
<stop stop-color="#5173C9"/>
<stop offset="0.2604" stop-color="#5177CE"/>
<stop offset="0.5477" stop-color="#5284DB"/>
<stop offset="0.8469" stop-color="#5499F1"/>
<stop offset="1" stop-color="#55A7FF"/>
</linearGradient>
<linearGradient id="paint29_linear" x1="-19.9764" y1="70.4281" x2="271.683" y2="362.267" gradientUnits="userSpaceOnUse">
<stop stop-color="#5173C9"/>
<stop offset="0.2604" stop-color="#5177CE"/>
<stop offset="0.5477" stop-color="#5284DB"/>
<stop offset="0.8469" stop-color="#5499F1"/>
<stop offset="1" stop-color="#55A7FF"/>
</linearGradient>
<linearGradient id="paint30_linear" x1="304.511" y1="174.086" x2="-28.1287" y2="174.086" gradientUnits="userSpaceOnUse">
<stop stop-color="#5173C9"/>
<stop offset="0.2604" stop-color="#5177CE"/>
<stop offset="0.5477" stop-color="#5284DB"/>
<stop offset="0.8469" stop-color="#5499F1"/>
<stop offset="1" stop-color="#55A7FF"/>
</linearGradient>
<linearGradient id="paint31_linear" x1="304.515" y1="174.086" x2="-28.1313" y2="174.086" gradientUnits="userSpaceOnUse">
<stop stop-color="#5173C9"/>
<stop offset="0.2604" stop-color="#5177CE"/>
<stop offset="0.5477" stop-color="#5284DB"/>
<stop offset="0.8469" stop-color="#5499F1"/>
<stop offset="1" stop-color="#55A7FF"/>
</linearGradient>
<linearGradient id="paint32_linear" x1="304.511" y1="260.237" x2="-28.1287" y2="260.237" gradientUnits="userSpaceOnUse">
<stop stop-color="#5173C9"/>
<stop offset="0.2604" stop-color="#5177CE"/>
<stop offset="0.5477" stop-color="#5284DB"/>
<stop offset="0.8469" stop-color="#5499F1"/>
<stop offset="1" stop-color="#55A7FF"/>
</linearGradient>
<linearGradient id="paint33_linear" x1="304.492" y1="131.009" x2="-28.0968" y2="131.009" gradientUnits="userSpaceOnUse">
<stop stop-color="#5173C9"/>
<stop offset="0.2604" stop-color="#5177CE"/>
<stop offset="0.5477" stop-color="#5284DB"/>
<stop offset="0.8469" stop-color="#5499F1"/>
<stop offset="1" stop-color="#55A7FF"/>
</linearGradient>
<linearGradient id="paint34_linear" x1="304.492" y1="217.162" x2="-28.0968" y2="217.162" gradientUnits="userSpaceOnUse">
<stop stop-color="#5173C9"/>
<stop offset="0.2604" stop-color="#5177CE"/>
<stop offset="0.5477" stop-color="#5284DB"/>
<stop offset="0.8469" stop-color="#5499F1"/>
<stop offset="1" stop-color="#55A7FF"/>
</linearGradient>
<linearGradient id="paint35_linear" x1="304.524" y1="131.009" x2="-28.1751" y2="131.009" gradientUnits="userSpaceOnUse">
<stop stop-color="#5173C9"/>
<stop offset="0.2604" stop-color="#5177CE"/>
<stop offset="0.5477" stop-color="#5284DB"/>
<stop offset="0.8469" stop-color="#5499F1"/>
<stop offset="1" stop-color="#55A7FF"/>
</linearGradient>
<linearGradient id="paint36_linear" x1="304.524" y1="44.8559" x2="-28.1751" y2="44.8559" gradientUnits="userSpaceOnUse">
<stop stop-color="#5173C9"/>
<stop offset="0.2604" stop-color="#5177CE"/>
<stop offset="0.5477" stop-color="#5284DB"/>
<stop offset="0.8469" stop-color="#5499F1"/>
<stop offset="1" stop-color="#55A7FF"/>
</linearGradient>
<linearGradient id="paint37_linear" x1="304.495" y1="44.8559" x2="-28.1029" y2="44.8559" gradientUnits="userSpaceOnUse">
<stop stop-color="#5173C9"/>
<stop offset="0.2604" stop-color="#5177CE"/>
<stop offset="0.5477" stop-color="#5284DB"/>
<stop offset="0.8469" stop-color="#5499F1"/>
<stop offset="1" stop-color="#55A7FF"/>
</linearGradient>
<linearGradient id="paint38_linear" x1="329.85" y1="131.009" x2="324.88" y2="131.009" gradientUnits="userSpaceOnUse">
<stop stop-color="#5173C9"/>
<stop offset="0.2604" stop-color="#5177CE"/>
<stop offset="0.5477" stop-color="#5284DB"/>
<stop offset="0.8469" stop-color="#5499F1"/>
<stop offset="1" stop-color="#55A7FF"/>
</linearGradient>
<linearGradient id="paint39_linear" x1="414.901" y1="131.009" x2="409.93" y2="131.009" gradientUnits="userSpaceOnUse">
<stop stop-color="#5173C9"/>
<stop offset="0.2604" stop-color="#5177CE"/>
<stop offset="0.5477" stop-color="#5284DB"/>
<stop offset="0.8469" stop-color="#5499F1"/>
<stop offset="1" stop-color="#55A7FF"/>
</linearGradient>
<linearGradient id="paint40_linear" x1="304.513" y1="131.009" x2="-28.1273" y2="131.009" gradientUnits="userSpaceOnUse">
<stop stop-color="#5173C9"/>
<stop offset="0.2604" stop-color="#5177CE"/>
<stop offset="0.5477" stop-color="#5284DB"/>
<stop offset="0.8469" stop-color="#5499F1"/>
<stop offset="1" stop-color="#55A7FF"/>
</linearGradient>
<linearGradient id="paint41_linear" x1="304.514" y1="131.009" x2="-28.1269" y2="131.009" gradientUnits="userSpaceOnUse">
<stop stop-color="#5173C9"/>
<stop offset="0.2604" stop-color="#5177CE"/>
<stop offset="0.5477" stop-color="#5284DB"/>
<stop offset="0.8469" stop-color="#5499F1"/>
<stop offset="1" stop-color="#55A7FF"/>
</linearGradient>
<linearGradient id="paint42_linear" x1="304.511" y1="87.9331" x2="-28.1287" y2="87.9331" gradientUnits="userSpaceOnUse">
<stop stop-color="#5173C9"/>
<stop offset="0.2604" stop-color="#5177CE"/>
<stop offset="0.5477" stop-color="#5284DB"/>
<stop offset="0.8469" stop-color="#5499F1"/>
<stop offset="1" stop-color="#55A7FF"/>
</linearGradient>
<linearGradient id="paint43_linear" x1="304.515" y1="87.9331" x2="-28.1313" y2="87.9331" gradientUnits="userSpaceOnUse">
<stop stop-color="#5173C9"/>
<stop offset="0.2604" stop-color="#5177CE"/>
<stop offset="0.5477" stop-color="#5284DB"/>
<stop offset="0.8469" stop-color="#5499F1"/>
<stop offset="1" stop-color="#55A7FF"/>
</linearGradient>
<linearGradient id="paint44_linear" x1="304.51" y1="87.9331" x2="-28.086" y2="87.9331" gradientUnits="userSpaceOnUse">
<stop stop-color="#5173C9"/>
<stop offset="0.2604" stop-color="#5177CE"/>
<stop offset="0.5477" stop-color="#5284DB"/>
<stop offset="0.8469" stop-color="#5499F1"/>
<stop offset="1" stop-color="#55A7FF"/>
</linearGradient>
<linearGradient id="paint45_linear" x1="329.85" y1="44.8559" x2="324.88" y2="44.8559" gradientUnits="userSpaceOnUse">
<stop stop-color="#5173C9"/>
<stop offset="0.2604" stop-color="#5177CE"/>
<stop offset="0.5477" stop-color="#5284DB"/>
<stop offset="0.8469" stop-color="#5499F1"/>
<stop offset="1" stop-color="#55A7FF"/>
</linearGradient>
<linearGradient id="paint46_linear" x1="304.512" y1="87.9331" x2="-28.1389" y2="87.9331" gradientUnits="userSpaceOnUse">
<stop stop-color="#5173C9"/>
<stop offset="0.2604" stop-color="#5177CE"/>
<stop offset="0.5477" stop-color="#5284DB"/>
<stop offset="0.8469" stop-color="#5499F1"/>
<stop offset="1" stop-color="#55A7FF"/>
</linearGradient>
<linearGradient id="paint47_linear" x1="304.524" y1="217.162" x2="-28.1751" y2="217.162" gradientUnits="userSpaceOnUse">
<stop stop-color="#5173C9"/>
<stop offset="0.2604" stop-color="#5177CE"/>
<stop offset="0.5477" stop-color="#5284DB"/>
<stop offset="0.8469" stop-color="#5499F1"/>
<stop offset="1" stop-color="#55A7FF"/>
</linearGradient>
<linearGradient id="paint48_linear" x1="304.512" y1="174.086" x2="-28.1389" y2="174.086" gradientUnits="userSpaceOnUse">
<stop stop-color="#5173C9"/>
<stop offset="0.2604" stop-color="#5177CE"/>
<stop offset="0.5477" stop-color="#5284DB"/>
<stop offset="0.8469" stop-color="#5499F1"/>
<stop offset="1" stop-color="#55A7FF"/>
</linearGradient>
<linearGradient id="paint49_linear" x1="304.51" y1="174.086" x2="-28.086" y2="174.086" gradientUnits="userSpaceOnUse">
<stop stop-color="#5173C9"/>
<stop offset="0.2604" stop-color="#5177CE"/>
<stop offset="0.5477" stop-color="#5284DB"/>
<stop offset="0.8469" stop-color="#5499F1"/>
<stop offset="1" stop-color="#55A7FF"/>
</linearGradient>
<linearGradient id="paint50_linear" x1="304.513" y1="44.8559" x2="-28.1273" y2="44.8559" gradientUnits="userSpaceOnUse">
<stop stop-color="#5173C9"/>
<stop offset="0.2604" stop-color="#5177CE"/>
<stop offset="0.5477" stop-color="#5284DB"/>
<stop offset="0.8469" stop-color="#5499F1"/>
<stop offset="1" stop-color="#55A7FF"/>
</linearGradient>
<linearGradient id="paint51_linear" x1="304.515" y1="2.48349" x2="-28.1313" y2="2.48349" gradientUnits="userSpaceOnUse">
<stop stop-color="#5173C9"/>
<stop offset="0.2604" stop-color="#5177CE"/>
<stop offset="0.5477" stop-color="#5284DB"/>
<stop offset="0.8469" stop-color="#5499F1"/>
<stop offset="1" stop-color="#55A7FF"/>
</linearGradient>
<linearGradient id="paint52_linear" x1="453.88" y1="255.067" x2="505.856" y2="255.067" gradientUnits="userSpaceOnUse">
<stop stop-color="#5173C9"/>
<stop offset="0.2604" stop-color="#5177CE"/>
<stop offset="0.5477" stop-color="#5284DB"/>
<stop offset="0.8469" stop-color="#5499F1"/>
<stop offset="1" stop-color="#55A7FF"/>
</linearGradient>
<linearGradient id="paint53_linear" x1="535.82" y1="301.364" x2="642.913" y2="239.822" gradientUnits="userSpaceOnUse">
<stop stop-color="#5173C9"/>
<stop offset="0.2604" stop-color="#5177CE"/>
<stop offset="0.5477" stop-color="#5284DB"/>
<stop offset="0.8469" stop-color="#5499F1"/>
<stop offset="1" stop-color="#55A7FF"/>
</linearGradient>
<linearGradient id="paint54_linear" x1="312.508" y1="27.3874" x2="418.739" y2="133.683" gradientUnits="userSpaceOnUse">
<stop stop-color="#5173C9"/>
<stop offset="0.2604" stop-color="#5177CE"/>
<stop offset="0.5477" stop-color="#5284DB"/>
<stop offset="0.8469" stop-color="#5499F1"/>
<stop offset="1" stop-color="#55A7FF"/>
</linearGradient>
<linearGradient id="paint55_linear" x1="312.413" y1="27.4826" x2="418.642" y2="133.777" gradientUnits="userSpaceOnUse">
<stop stop-color="#5173C9"/>
<stop offset="0.2604" stop-color="#5177CE"/>
<stop offset="0.5477" stop-color="#5284DB"/>
<stop offset="0.8469" stop-color="#5499F1"/>
<stop offset="1" stop-color="#55A7FF"/>
</linearGradient>
<linearGradient id="paint56_linear" x1="308.623" y1="39.0837" x2="387.956" y2="118.466" gradientUnits="userSpaceOnUse">
<stop stop-color="#5173C9"/>
<stop offset="0.2604" stop-color="#5177CE"/>
<stop offset="0.5477" stop-color="#5284DB"/>
<stop offset="0.8469" stop-color="#5499F1"/>
<stop offset="1" stop-color="#55A7FF"/>
</linearGradient>
<linearGradient id="paint57_linear" x1="316.22" y1="31.4919" x2="395.553" y2="110.874" gradientUnits="userSpaceOnUse">
<stop stop-color="#5173C9"/>
<stop offset="0.2604" stop-color="#5177CE"/>
<stop offset="0.5477" stop-color="#5284DB"/>
<stop offset="0.8469" stop-color="#5499F1"/>
<stop offset="1" stop-color="#55A7FF"/>
</linearGradient>
<linearGradient id="paint58_linear" x1="106.172" y1="42.3724" x2="151.913" y2="42.3724" gradientUnits="userSpaceOnUse">
<stop stop-color="#5173C9"/>
<stop offset="0.2604" stop-color="#5177CE"/>
<stop offset="0.5477" stop-color="#5284DB"/>
<stop offset="0.8469" stop-color="#5499F1"/>
<stop offset="1" stop-color="#55A7FF"/>
</linearGradient>
<linearGradient id="paint59_linear" x1="626.55" y1="165.58" x2="724.377" y2="263.467" gradientUnits="userSpaceOnUse">
<stop stop-color="#5173C9"/>
<stop offset="0.2604" stop-color="#5177CE"/>
<stop offset="0.5477" stop-color="#5284DB"/>
<stop offset="0.8469" stop-color="#5499F1"/>
<stop offset="1" stop-color="#55A7FF"/>
</linearGradient>
<linearGradient id="paint60_linear" x1="384.928" y1="377.505" x2="190.363" y2="180.903" gradientUnits="userSpaceOnUse">
<stop stop-color="#5173C9"/>
<stop offset="0.2604" stop-color="#5177CE"/>
<stop offset="0.5477" stop-color="#5284DB"/>
<stop offset="0.8469" stop-color="#5499F1"/>
<stop offset="1" stop-color="#55A7FF"/>
</linearGradient>
<linearGradient id="paint61_linear" x1="384.928" y1="377.505" x2="190.363" y2="180.904" gradientUnits="userSpaceOnUse">
<stop stop-color="#5173C9"/>
<stop offset="0.2604" stop-color="#5177CE"/>
<stop offset="0.5477" stop-color="#5284DB"/>
<stop offset="0.8469" stop-color="#5499F1"/>
<stop offset="1" stop-color="#55A7FF"/>
</linearGradient>
<linearGradient id="paint62_linear" x1="346.386" y1="387.324" x2="347.754" y2="110.812" gradientUnits="userSpaceOnUse">
<stop stop-color="#5173C9"/>
<stop offset="0.2604" stop-color="#5177CE"/>
<stop offset="0.5477" stop-color="#5284DB"/>
<stop offset="0.8469" stop-color="#5499F1"/>
<stop offset="1" stop-color="#55A7FF"/>
</linearGradient>
<linearGradient id="paint63_linear" x1="427.057" y1="322.49" x2="251.341" y2="144.939" gradientUnits="userSpaceOnUse">
<stop stop-color="#5173C9"/>
<stop offset="0.2604" stop-color="#5177CE"/>
<stop offset="0.5477" stop-color="#5284DB"/>
<stop offset="0.8469" stop-color="#5499F1"/>
<stop offset="1" stop-color="#55A7FF"/>
</linearGradient>
<linearGradient id="paint64_linear" x1="439.854" y1="356.859" x2="194.422" y2="108.863" gradientUnits="userSpaceOnUse">
<stop stop-color="#5173C9"/>
<stop offset="0.2604" stop-color="#5177CE"/>
<stop offset="0.5477" stop-color="#5284DB"/>
<stop offset="0.8469" stop-color="#5499F1"/>
<stop offset="1" stop-color="#55A7FF"/>
</linearGradient>
<linearGradient id="paint65_linear" x1="437.369" y1="378.229" x2="165.726" y2="103.738" gradientUnits="userSpaceOnUse">
<stop stop-color="#5173C9"/>
<stop offset="0.2604" stop-color="#5177CE"/>
<stop offset="0.5477" stop-color="#5284DB"/>
<stop offset="0.8469" stop-color="#5499F1"/>
<stop offset="1" stop-color="#55A7FF"/>
</linearGradient>
<linearGradient id="paint66_linear" x1="390.359" y1="271.778" x2="370.055" y2="251.26" gradientUnits="userSpaceOnUse">
<stop stop-color="#5173C9"/>
<stop offset="0.2604" stop-color="#5177CE"/>
<stop offset="0.5477" stop-color="#5284DB"/>
<stop offset="0.8469" stop-color="#5499F1"/>
<stop offset="1" stop-color="#55A7FF"/>
</linearGradient>
<linearGradient id="paint67_linear" x1="404.964" y1="293.2" x2="384.66" y2="272.684" gradientUnits="userSpaceOnUse">
<stop stop-color="#5173C9"/>
<stop offset="0.2604" stop-color="#5177CE"/>
<stop offset="0.5477" stop-color="#5284DB"/>
<stop offset="0.8469" stop-color="#5499F1"/>
<stop offset="1" stop-color="#55A7FF"/>
</linearGradient>
<linearGradient id="paint68_linear" x1="420.224" y1="313.333" x2="399.917" y2="292.813" gradientUnits="userSpaceOnUse">
<stop stop-color="#5173C9"/>
<stop offset="0.2604" stop-color="#5177CE"/>
<stop offset="0.5477" stop-color="#5284DB"/>
<stop offset="0.8469" stop-color="#5499F1"/>
<stop offset="1" stop-color="#55A7FF"/>
</linearGradient>
<linearGradient id="paint69_linear" x1="199.433" y1="196.284" x2="308.017" y2="304.935" gradientUnits="userSpaceOnUse">
<stop stop-color="#5173C9"/>
<stop offset="0.2604" stop-color="#5177CE"/>
<stop offset="0.5477" stop-color="#5284DB"/>
<stop offset="0.8469" stop-color="#5499F1"/>
<stop offset="1" stop-color="#55A7FF"/>
</linearGradient>
<linearGradient id="paint70_linear" x1="460.749" y1="25.2716" x2="626.828" y2="191.452" gradientUnits="userSpaceOnUse">
<stop stop-color="#5173C9"/>
<stop offset="0.2604" stop-color="#5177CE"/>
<stop offset="0.5477" stop-color="#5284DB"/>
<stop offset="0.8469" stop-color="#5499F1"/>
<stop offset="1" stop-color="#55A7FF"/>
</linearGradient>
<linearGradient id="paint71_linear" x1="465.084" y1="20.9404" x2="631.162" y2="187.12" gradientUnits="userSpaceOnUse">
<stop stop-color="#5173C9"/>
<stop offset="0.2604" stop-color="#5177CE"/>
<stop offset="0.5477" stop-color="#5284DB"/>
<stop offset="0.8469" stop-color="#5499F1"/>
<stop offset="1" stop-color="#55A7FF"/>
</linearGradient>
<linearGradient id="paint72_linear" x1="620.693" y1="160.331" x2="695.145" y2="234.829" gradientUnits="userSpaceOnUse">
<stop stop-color="#5173C9"/>
<stop offset="0.2604" stop-color="#5177CE"/>
<stop offset="0.5477" stop-color="#5284DB"/>
<stop offset="0.8469" stop-color="#5499F1"/>
<stop offset="1" stop-color="#55A7FF"/>
</linearGradient>
<linearGradient id="paint73_linear" x1="87.2869" y1="216.532" x2="165.345" y2="216.532" gradientUnits="userSpaceOnUse">
<stop stop-color="#5173C9"/>
<stop offset="0.2604" stop-color="#5177CE"/>
<stop offset="0.5477" stop-color="#5284DB"/>
<stop offset="0.8469" stop-color="#5499F1"/>
<stop offset="1" stop-color="#55A7FF"/>
</linearGradient>
<linearGradient id="paint74_linear" x1="526.193" y1="203.608" x2="646.088" y2="203.608" gradientUnits="userSpaceOnUse">
<stop stop-color="#5173C9"/>
<stop offset="1" stop-color="#55A7FF"/>
</linearGradient>
<linearGradient id="paint75_linear" x1="227.156" y1="45.1935" x2="328.137" y2="45.1935" gradientUnits="userSpaceOnUse">
<stop stop-color="#5173C9"/>
<stop offset="1" stop-color="#55A7FF"/>
</linearGradient>
<linearGradient id="paint76_linear" x1="77.9683" y1="303.572" x2="178.95" y2="303.572" gradientUnits="userSpaceOnUse">
<stop stop-color="#5173C9"/>
<stop offset="1" stop-color="#55A7FF"/>
</linearGradient>
<linearGradient id="paint77_linear" x1="376.287" y1="45.5289" x2="477.268" y2="45.5289" gradientUnits="userSpaceOnUse">
<stop stop-color="#5173C9"/>
<stop offset="1" stop-color="#55A7FF"/>
</linearGradient>
<linearGradient id="paint78_linear" x1="376.287" y1="315.21" x2="477.268" y2="315.21" gradientUnits="userSpaceOnUse">
<stop stop-color="#5173C9"/>
<stop offset="1" stop-color="#55A7FF"/>
</linearGradient>
<linearGradient id="paint79_linear" x1="482.816" y1="366.345" x2="583.797" y2="366.345" gradientUnits="userSpaceOnUse">
<stop stop-color="#5173C9"/>
<stop offset="1" stop-color="#55A7FF"/>
</linearGradient>
<clipPath id="clip0">
<rect width="705" height="410" fill="white"/>
</clipPath>
<clipPath id="clip1">
<rect width="41" height="41" fill="white" transform="translate(403 174)"/>
</clipPath>
<clipPath id="clip2">
<rect width="44" height="44" fill="white" transform="translate(525 251)"/>
</clipPath>
</defs>
</svg>
