<svg width="70" height="70" viewBox="0 0 70 70" fill="none" xmlns="http://www.w3.org/2000/svg"><path d="M65.3333 64.1666H63V6.99996H31.5V4.66663H65.3333V64.1666Z" fill="#6791FB"/><path d="M70 59.5H67.6667V2.33333H36.1667V0H70V59.5Z" fill="#6791FB"/><path d="M26.3503 9.33337L11.6667 24.017V32.6667H14V25.6667H28V11.6667H58.3333V67.6667H26.8333V70H60.6667V9.33337H26.3503ZM15.6497 23.3334L25.6667 13.3164V23.3334H15.6497Z" fill="#6791FB"/><path d="M24.5 70H15.1667V64.6065C14.3953 64.3604 13.6457 64.0516 12.9245 63.6836L9.11174 67.4964L2.50366 60.8883L6.31755 57.0744C5.95182 56.3532 5.64478 55.6036 5.39811 54.8334H0V45.5H5.39811C5.64478 44.7299 5.95182 43.9802 6.31755 43.259L2.50366 39.4451L9.11174 32.837L12.9256 36.6509C13.6468 36.2852 14.3965 35.9781 15.1667 35.7315V30.3334H24.5V35.7315C25.2702 35.9781 26.0199 36.2852 26.741 36.6509L30.5549 32.837L37.163 39.4451L33.3491 43.259C33.7148 43.9802 34.0219 44.7299 34.2686 45.5H39.6667V54.8334H34.2686C34.0219 55.6036 33.7148 56.3532 33.3491 57.0744L37.163 60.8883L30.5549 67.4964L26.7422 63.6836C26.021 64.0516 25.2713 64.3604 24.5 64.6065V70ZM17.5 67.6667H22.1667V62.8086L23.0559 62.5905C24.2186 62.2994 25.334 61.8425 26.3668 61.2335L27.1438 60.7812L30.5595 64.1969L33.8681 60.8883L30.4501 57.4726L30.9024 56.6956C31.508 55.6582 31.9654 54.5423 32.2616 53.3785L32.4832 52.5H37.3333V47.8334H32.4832L32.2594 46.955C31.9637 45.79 31.5063 44.6718 30.9001 43.6333L30.4478 42.8562L33.8635 39.4406L30.5549 36.1365L27.1392 39.5499L26.3622 39.0976C25.3249 38.4921 24.2089 38.0346 23.0451 37.7384L22.1667 37.5168V32.6667H17.5V37.5168L16.6216 37.7407C15.4566 38.0363 14.3384 38.4938 13.2999 39.0999L12.5229 39.5522L9.11174 36.1365L5.80314 39.4451L9.21655 42.8608L8.76424 43.6378C8.15869 44.6752 7.70125 45.7911 7.40503 46.955L7.18343 47.8334H2.33333V52.5H7.18343L7.40731 53.3785C7.70296 54.5434 8.1604 55.6617 8.76652 56.7002L9.21883 57.4772L5.80314 60.8883L9.11174 64.1969L12.5274 60.7835L13.3044 61.2358C14.3361 61.8448 15.4498 62.3016 16.6108 62.5927L17.5 62.8109V67.6667Z" fill="#6791FB"/><path d="M19.8333 58.3333C15.3228 58.3333 11.6667 54.6772 11.6667 50.1667C11.6667 45.6561 15.3228 42 19.8333 42C24.3439 42 28 45.6561 28 50.1667C27.9949 54.675 24.3416 58.3282 19.8333 58.3333ZM19.8333 44.3333C16.6119 44.3333 14 46.9452 14 50.1667C14 53.3881 16.6119 56 19.8333 56C23.0548 56 25.6667 53.3881 25.6667 50.1667C25.6627 46.9464 23.0536 44.3373 19.8333 44.3333Z" fill="#6791FB"/><path d="M32.6667 17.5H35V19.8333H32.6667V17.5Z" fill="#6791FB"/><path d="M37.3333 17.5H53.6667V19.8333H37.3333V17.5Z" fill="#6791FB"/><path d="M32.6667 22.1666H35V24.5H32.6667V22.1666Z" fill="#6791FB"/><path d="M37.3333 22.1666H53.6667V24.5H37.3333V22.1666Z" fill="#6791FB"/><path d="M53.6667 40.8334H39.6667V38.5H51.3333V29.1667H32.6667V26.8334H53.6667V40.8334Z" fill="#6791FB"/><path d="M44.3333 43.1666H53.6667V45.5H44.3333V43.1666Z" fill="#6791FB"/></svg>