<svg width="70" height="70" viewBox="0 0 70 70" fill="none" xmlns="http://www.w3.org/2000/svg"><g clip-path="url(#clip0)"><path d="M63.8741 47.3653L55.3226 45.3917V43.1683C56.192 42.471 56.9246 41.6137 57.488 40.6451H58.7097C61.8222 40.6451 64.3548 38.1125 64.3548 35C64.3548 33.7397 63.9259 32.5881 63.2258 31.6476V27.0967C63.2258 19.6257 57.1484 13.5483 49.6774 13.5483C42.2064 13.5483 36.129 19.6257 36.129 27.0967V31.6476C35.4289 32.5881 35 33.7408 35 35C35 38.1125 37.5326 40.6451 40.6452 40.6451H41.8668C42.4291 41.6137 43.1629 42.471 44.0323 43.1683V45.3917L35.4807 47.3653C34.9223 47.4937 34.3859 47.695 33.871 47.9397V41.7741C33.871 39.9069 32.3511 38.387 30.4839 38.387H3.3871C1.51989 38.387 0 39.9069 0 41.7741V62.0967C0 63.9639 1.51989 65.4838 3.3871 65.4838H12.4194V67.7419H10.1613V70H70V55.0662C70 51.3643 67.4812 48.1972 63.8741 47.3653V47.3653ZM44.9049 47.5086L47.6575 49.5726L44.8746 51.2425L44.2759 47.6531L44.9049 47.5086ZM48.458 56.4516H50.898L51.8385 67.7419H47.5175L48.458 56.4516ZM51.1212 54.1935H48.2325L47.5842 52.2491L49.6774 50.9938L51.7695 52.2491L51.1212 54.1935ZM51.6984 49.5726L54.451 47.5086L55.2471 47.6927L54.5309 51.2717L51.6984 49.5726ZM58.7097 38.387H58.4125C58.6 37.6632 58.7097 36.9102 58.7097 36.129V31.6129C60.5769 31.6129 62.0968 33.1327 62.0968 35C62.0968 36.8672 60.5769 38.387 58.7097 38.387ZM49.6774 15.8064C55.9031 15.8064 60.9677 20.8711 60.9677 27.0967V29.8333C60.2748 29.5284 59.5135 29.3548 58.7097 29.3548V27.0967H56.4516V27.7268C55.6682 28.4088 54.7299 28.8939 53.7261 29.147C53.7702 29.104 53.8187 29.067 53.8628 29.024L52.2663 27.4275C51.4239 28.2699 50.3572 28.8581 49.2099 29.147C49.254 29.104 49.3025 29.067 49.3466 29.024L47.7501 27.4275C46.5252 28.6525 44.8294 29.3548 43.0973 29.3548H42.9032V27.0967H40.6452V29.3548C39.8414 29.3548 39.0801 29.5284 38.3871 29.8333V27.0967C38.3871 20.8711 43.4518 15.8064 49.6774 15.8064ZM40.6452 38.387C38.778 38.387 37.2581 36.8672 37.2581 35C37.2581 33.1327 38.778 31.6129 40.6452 31.6129V36.129C40.6452 36.9102 40.7549 37.6632 40.9423 38.387H40.6452ZM42.9032 36.129V31.6129H43.0973C44.1938 31.6129 45.2765 31.3962 46.2903 31.002V31.6129H47.6134C48.7099 31.6129 49.7926 31.3962 50.8065 31.002V31.6129H52.1295C53.6461 31.6129 55.1385 31.2055 56.4516 30.4711V36.129C56.4516 36.9217 56.3072 37.6792 56.0563 38.387H49.6774V40.6451H54.7129C53.4719 42.0272 51.678 42.9032 49.6774 42.9032C45.9414 42.9032 42.9032 39.865 42.9032 36.129V36.129ZM49.6774 45.1612C50.8754 45.1612 52.0182 44.922 53.0645 44.4964V45.7258L49.6774 48.2661L46.2903 45.7258V44.4964C47.3367 44.922 48.4795 45.1612 49.6774 45.1612ZM35.9879 49.5655L42.0713 48.1624L43.191 54.8854L45.6018 53.4393L46.2754 55.4604L45.2517 67.7419H39.5161V55.3225H37.2581V67.7419H31.6129V65.276C32.9239 64.8085 33.871 63.5665 33.871 62.0967V50.5627C34.4989 50.0897 35.2178 49.7441 35.9879 49.5655V49.5655ZM21.4516 65.4838H29.3548V67.7419H21.4516V65.4838ZM3.3871 63.2258C2.76414 63.2258 2.25806 62.7197 2.25806 62.0967V41.7741C2.25806 41.1512 2.76414 40.6451 3.3871 40.6451H30.4839C31.1068 40.6451 31.6129 41.1512 31.6129 41.7741V62.0967C31.6129 62.7197 31.1068 63.2258 30.4839 63.2258H21.4516V60.9677C21.4516 58.477 19.4262 56.4516 16.9355 56.4516C14.4448 56.4516 12.4194 58.477 12.4194 60.9677V63.2258H3.3871ZM14.6774 60.9677C14.6774 59.7223 15.6901 58.7096 16.9355 58.7096C18.1808 58.7096 19.1935 59.7223 19.1935 60.9677V67.7419H14.6774V60.9677ZM67.7419 67.7419H62.0968V55.3225H59.8387V67.7419H54.1031L53.0805 55.4604L53.7531 53.4393L56.1153 54.8572L57.4461 48.2005L63.3669 49.5666C65.942 50.1608 67.7419 52.4222 67.7419 55.0662V67.7419Z" fill="#6791FB"/><path d="M28.2258 23.0784C28.2258 21.6186 27.2952 20.327 25.9104 19.8655L21.4516 18.3793V16.9062C22.8144 15.8742 23.7097 14.2551 23.7097 12.4193V10.1613C23.7097 7.04872 21.1771 4.51611 18.0645 4.51611C14.952 4.51611 12.4194 7.04872 12.4194 10.1613V12.4193C12.4194 14.2562 13.3146 15.8753 14.6774 16.9062V18.3793L10.2186 19.8655C8.8338 20.3281 7.90323 21.6186 7.90323 23.0784V29.3548H28.2258V23.0784ZM14.6774 10.1613C14.6774 8.29407 16.1973 6.77418 18.0645 6.77418C19.9317 6.77418 21.4516 8.29407 21.4516 10.1613V12.4193C21.4516 14.2865 19.9317 15.8064 18.0645 15.8064C16.1973 15.8064 14.6774 14.2865 14.6774 12.4193V10.1613ZM25.9677 27.0968H10.1613V23.0784C10.1613 22.5917 10.4706 22.1617 10.9336 22.0073L16.9355 20.0078V17.9504C17.3004 18.0248 17.6786 18.0645 18.0645 18.0645C18.4504 18.0645 18.8286 18.0248 19.1936 17.9504V20.0078L25.1954 22.0073C25.6585 22.1617 25.9677 22.5933 25.9677 23.0784V27.0968Z" fill="#6791FB"/><path d="M18.0645 36.129C28.0246 36.129 36.129 28.0246 36.129 18.0645C36.129 8.10444 28.0246 0 18.0645 0C8.10444 0 0 8.10444 0 18.0645C0 28.0246 8.10444 36.129 18.0645 36.129ZM18.0645 2.25806C26.7809 2.25806 33.871 9.34814 33.871 18.0645C33.871 26.7809 26.7809 33.871 18.0645 33.871C9.34814 33.871 2.25806 26.7809 2.25806 18.0645C2.25806 9.34814 9.34814 2.25806 18.0645 2.25806Z" fill="#6791FB"/><path d="M41.7742 6.77417H44.0323V9.03223H41.7742V6.77417Z" fill="#6791FB"/><path d="M48.5484 6.77417H50.8065V9.03223H48.5484V6.77417Z" fill="#6791FB"/><path d="M55.3226 6.77417H57.5806V9.03223H55.3226V6.77417Z" fill="#6791FB"/></g><defs><clipPath id="clip0"><rect width="70" height="70" fill="white"/></clipPath></defs></svg>