<svg width="68" height="70" viewBox="0 0 68 70" fill="none" xmlns="http://www.w3.org/2000/svg"><path d="M13.5833 28H42.75C43.394 28 43.9167 27.4773 43.9167 26.8333C43.9167 26.1893 43.394 25.6666 42.75 25.6666H13.5833C12.9393 25.6666 12.4167 26.1893 12.4167 26.8333C12.4167 27.4773 12.9393 28 13.5833 28Z" fill="#6791FB"/><path d="M13.5833 18.6667H25.25C25.894 18.6667 26.4167 18.144 26.4167 17.5C26.4167 16.856 25.894 16.3334 25.25 16.3334H13.5833C12.9393 16.3334 12.4167 16.856 12.4167 17.5C12.4167 18.144 12.9393 18.6667 13.5833 18.6667Z" fill="#6791FB"/><path d="M13.5833 37.3333H42.75C43.394 37.3333 43.9167 36.8107 43.9167 36.1667C43.9167 35.5227 43.394 35 42.75 35H13.5833C12.9393 35 12.4167 35.5227 12.4167 36.1667C12.4167 36.8107 12.9393 37.3333 13.5833 37.3333Z" fill="#6791FB"/><path d="M33.4167 44.3334H13.5833C12.9393 44.3334 12.4167 44.856 12.4167 45.5C12.4167 46.144 12.9393 46.6667 13.5833 46.6667H33.4167C34.0607 46.6667 34.5833 46.144 34.5833 45.5C34.5833 44.856 34.0607 44.3334 33.4167 44.3334Z" fill="#6791FB"/><path d="M29.9167 53.6666H13.5833C12.9393 53.6666 12.4167 54.1893 12.4167 54.8333C12.4167 55.4773 12.9393 56 13.5833 56H29.9167C30.5607 56 31.0833 55.4773 31.0833 54.8333C31.0833 54.1893 30.5607 53.6666 29.9167 53.6666Z" fill="#6791FB"/><path d="M55.5833 40.0902V17.017L38.5663 0H0.75V70H52.0833C60.446 70 67.25 63.196 67.25 54.8333C67.25 47.677 62.2613 41.6768 55.5833 40.0902ZM39.25 3.983L51.6003 16.3333H39.25V3.983ZM44.0077 67.6667H3.08333V2.33333H36.9167V18.6667H53.25V39.718C52.851 39.6842 52.4637 39.6667 52.0833 39.6667C43.7207 39.6667 36.9167 46.4707 36.9167 54.8333C36.9167 55.2988 36.9458 55.7573 36.9867 56.2135C36.996 56.3197 37.0065 56.4247 37.0182 56.5308C37.0683 56.9765 37.1325 57.4175 37.22 57.8503C37.2305 57.9017 37.2445 57.9518 37.255 58.0032C37.339 58.3975 37.4405 58.7848 37.5548 59.1675C37.584 59.2632 37.6108 59.36 37.6412 59.4545C37.773 59.8652 37.92 60.2688 38.0845 60.6643C38.116 60.739 38.151 60.8113 38.1825 60.8848C38.333 61.2302 38.4963 61.5673 38.6713 61.8987C38.7133 61.978 38.753 62.0585 38.7962 62.1378C39.0003 62.5077 39.2197 62.8682 39.4542 63.2193C39.5078 63.2998 39.5638 63.3768 39.6187 63.4562C39.8322 63.7642 40.0562 64.064 40.2907 64.3545C40.335 64.4093 40.377 64.4665 40.4225 64.5213C40.692 64.8457 40.9767 65.156 41.2718 65.4558C41.3442 65.5293 41.4177 65.6005 41.4923 65.6728C41.7782 65.9517 42.071 66.2223 42.3778 66.4778C42.4047 66.5012 42.4303 66.5257 42.4583 66.5478C42.7873 66.8185 43.1315 67.0717 43.4838 67.3155C43.569 67.375 43.6553 67.4322 43.7417 67.4893C43.8315 67.5465 43.9178 67.6095 44.0077 67.6667ZM52.0833 67.6667C45.0075 67.6667 39.25 61.9092 39.25 54.8333C39.25 47.7575 45.0075 42 52.0833 42C52.4473 42 52.8067 42.0245 53.1637 42.0548C53.5032 42.0875 53.8543 42.1318 54.2242 42.1937L54.741 42.28C60.5452 43.5085 64.9167 48.6687 64.9167 54.8333C64.9167 61.9092 59.1592 67.6667 52.0833 67.6667Z" fill="#6791FB"/><path d="M58.1255 48.3338L51.5968 57.7138L46.9896 53.9315C46.4926 53.522 45.7565 53.5955 45.3482 54.0937C44.9387 54.5918 45.011 55.3268 45.5103 55.7352L51.094 60.319C51.304 60.4905 51.5653 60.5838 51.8336 60.5838C51.8861 60.5838 51.9398 60.5803 51.9935 60.5733C52.3155 60.5278 52.6048 60.3517 52.7915 60.0845L60.0411 49.6673C60.4086 49.1388 60.2791 48.4108 59.7495 48.0433C59.2198 47.6735 58.4941 47.8053 58.1255 48.3338Z" fill="#6791FB"/></svg>