<svg width="70" height="70" viewBox="0 0 70 70" fill="none" xmlns="http://www.w3.org/2000/svg"><path d="M16.4062 44.8438C17.6127 44.8438 18.5938 45.8248 18.5938 47.0312H20.7812C20.7812 44.998 19.3813 43.3005 17.5 42.8116V40.4688H15.3125V42.6562H12.0312V47.0312C12.0312 49.4441 13.9934 51.4062 16.4062 51.4062C17.6127 51.4062 18.5938 52.3873 18.5938 53.5938V55.7812H16.4062C15.1998 55.7812 14.2188 54.8002 14.2188 53.5938H12.0312C12.0312 55.627 13.4312 57.3245 15.3125 57.8134V60.1562H17.5V57.9688H20.7812V53.5938C20.7812 51.1809 18.8191 49.2188 16.4062 49.2188C15.1998 49.2188 14.2188 48.2377 14.2188 47.0312V44.8438H16.4062Z" fill="#6791FB"/><path d="M5.46875 64.5312H27.3438V36.0938H5.46875V64.5312ZM7.65625 38.2812H25.1562V62.3438H7.65625V38.2812Z" fill="#6791FB"/><path d="M5.46875 20.7812H7.65625V22.9688H5.46875V20.7812Z" fill="#6791FB"/><path d="M9.84375 20.7812H43.75V22.9688H9.84375V20.7812Z" fill="#6791FB"/><path d="M5.46875 25.1562H43.75V27.3438H5.46875V25.1562Z" fill="#6791FB"/><path d="M5.46875 29.5312H29.5312V31.7188H5.46875V29.5312Z" fill="#6791FB"/><path d="M29.5312 9.84375H31.7188V12.0312H29.5312V9.84375Z" fill="#6791FB"/><path d="M25.1562 9.84375H27.3438V12.0312H25.1562V9.84375Z" fill="#6791FB"/><path d="M20.7812 9.84375H22.9688V12.0312H20.7812V9.84375Z" fill="#6791FB"/><path d="M45.9375 62.3438H48.125V64.5312H45.9375V62.3438Z" fill="#6791FB"/><path d="M41.5625 62.3438H43.75V64.5312H41.5625V62.3438Z" fill="#6791FB"/><path d="M37.1875 62.3438H39.375V64.5312H37.1875V62.3438Z" fill="#6791FB"/><path d="M59.6794 31.5306L63.1334 17.4869C63.992 14.4769 62.9836 11.2558 60.5019 9.07922C58.3198 7.16734 55.3525 6.35578 52.5 6.63469V1.09375H12.6722L1.09375 12.6722V68.9062H52.5V60.1169C52.8631 60.1355 53.2241 60.1562 53.5938 60.1562C62.0375 60.1562 68.9062 55.2497 68.9062 49.2188V41.5625C68.9062 37.1766 65.2411 33.2423 59.6794 31.5306ZM66.7188 41.5625C66.7188 46.387 60.8311 50.3125 53.5938 50.3125C46.3564 50.3125 40.4688 46.387 40.4688 41.5625C40.4688 38.2113 43.4186 35.152 47.9194 33.6973C48.0506 34.6445 48.125 35.6005 48.125 36.5586V40.728L48.2398 40.9588C48.2978 41.0725 49.6814 43.75 53.5938 43.75C57.5061 43.75 58.8897 41.0725 58.9477 40.9577L59.0625 40.7269V36.5575C59.0625 35.6005 59.1369 34.6445 59.2681 33.6963C63.7689 35.152 66.7188 38.2113 66.7188 41.5625V41.5625ZM59.0603 10.7253C60.9273 12.3627 61.6634 14.6672 61.0203 16.9258L57.54 31.0713C57.0992 32.8639 56.875 34.7102 56.875 36.5586V40.1516C56.5611 40.5748 55.6117 41.5625 53.5938 41.5625C51.567 41.5625 50.6188 40.5672 50.3125 40.1548V36.5586C50.3125 34.7112 50.0883 32.8639 49.6475 31.0702L46.1672 16.9258L46.1573 16.8875C45.5241 14.6672 46.2602 12.3627 48.1272 10.7253C51.1405 8.085 56.0448 8.08391 59.0603 10.7253V10.7253ZM43.8309 16.4062H18.5938V7.65625H45.9375V9.82953C44.2717 11.6747 43.5072 14.0569 43.8309 16.4062ZM12.0312 4.82781V12.0312H4.82781L12.0312 4.82781ZM50.3125 66.7188H3.28125V14.2188H14.2188V3.28125H50.3125V7.08094C49.5502 7.31828 48.8141 7.63547 48.125 8.04344V5.46875H16.4062V18.5938H44.3253L47.5081 31.5306C41.9464 33.2423 38.2812 37.1766 38.2812 41.5625V49.2188C38.2812 54.4447 43.4416 58.8208 50.3125 59.897V66.7188ZM66.7188 49.2188C66.7188 54.0433 60.8311 57.9688 53.5938 57.9688C46.3564 57.9688 40.4688 54.0433 40.4688 49.2188V47.1669C43.1473 50.3552 48.02 52.5 53.5938 52.5C59.1675 52.5 64.0402 50.3552 66.7188 47.1669V49.2188Z" fill="#6791FB"/></svg>