<svg width="70" height="70" viewBox="0 0 70 70" fill="none" xmlns="http://www.w3.org/2000/svg"><path d="M39.7928 33.1965C39.9992 33.6002 40.4099 33.8334 40.8346 33.8334C41.0119 33.8334 41.1939 33.7926 41.3631 33.7063C41.4319 33.6713 48.299 30.183 51.6858 29.1131C52.2995 28.9183 52.6401 28.2626 52.4452 27.649C52.2515 27.0353 51.6006 26.6935 50.9811 26.8872C47.4135 28.0154 40.5931 31.4804 40.3038 31.6274C39.7297 31.919 39.5011 32.6214 39.7928 33.1965Z" fill="#6791FB"/><path d="M40.8345 19.8337C41.0119 19.8337 41.1938 19.7928 41.3631 19.7065C41.4319 19.6715 48.299 16.1832 51.6857 15.1134C52.2995 14.9186 52.64 14.2629 52.4452 13.6493C52.2515 13.0356 51.6006 12.6938 50.9811 12.8875C47.4134 14.0157 40.5931 17.4806 40.3038 17.6276C39.7299 17.9192 39.5011 18.6216 39.7927 19.1967C39.9992 19.6003 40.4099 19.8337 40.8345 19.8337Z" fill="#6791FB"/><path d="M68.8332 17.5004C68.1881 17.5004 67.6666 18.0231 67.6666 18.667V64.1665C67.6666 66.0962 66.0963 67.6665 64.1666 67.6665H36.1667V64.9821C37.8677 64.3871 42.2987 62.9999 46.6667 62.9999C56.8295 62.9999 63.7304 65.2504 63.7991 65.2737C64.1502 65.3903 64.5423 65.3321 64.8491 65.1126C65.1536 64.8933 65.3333 64.541 65.3333 64.1664V12.8338C65.3333 12.2867 64.9541 11.8129 64.4197 11.6951C64.4197 11.6951 63.5051 11.491 61.9417 11.2039C61.3105 11.0872 60.7004 11.5072 60.5837 12.1396C60.467 12.7742 60.8858 13.382 61.5194 13.4987C62.1156 13.6083 62.6149 13.7051 62.9999 13.7822V62.616C60.3562 61.923 54.4856 60.6666 46.6665 60.6666C41.5833 60.6666 36.5901 62.336 35.0453 62.9019C33.6721 62.2953 29.5212 60.6666 24.4998 60.6666C16.4638 60.6666 9.84414 61.9919 6.99985 62.6651V13.7367C9.32967 13.1638 16.2107 11.6671 24.4998 11.6671C28.7535 11.6671 32.4016 12.9912 33.8332 13.5897V59.5C33.8332 59.92 34.0594 60.3085 34.4246 60.515C34.7898 60.7226 35.2401 60.7167 35.6007 60.4998C35.7162 60.431 47.2755 53.5266 57.5351 50.1072C58.0123 49.9474 58.3331 49.5029 58.3331 49.0001V1.16717C58.3331 0.784493 58.1453 0.426294 57.8303 0.208229C57.5176 -0.00997161 57.1163 -0.0601469 56.7558 0.0741096C47.4214 3.57517 37.9762 9.45279 37.8816 9.51116C37.3355 9.85296 37.1687 10.5728 37.5105 11.1188C37.8512 11.6649 38.571 11.8317 39.1182 11.4899C39.2044 11.4351 47.4214 6.32278 55.9998 2.87299V48.1649C48.036 50.9322 39.7212 55.4507 36.1664 57.4735V12.8338C36.1664 12.3917 35.9168 11.9879 35.5212 11.7897C35.3205 11.6906 30.5396 9.33384 24.4998 9.33384C13.9579 9.33384 5.85306 11.6147 5.51235 11.7126C5.01183 11.8549 4.66648 12.3135 4.66648 12.8338V64.1667C4.66648 64.5319 4.83915 64.8772 5.12968 65.0977C5.33503 65.2529 5.58235 65.3334 5.83323 65.3334C5.94056 65.3334 6.04788 65.3182 6.15288 65.2879C6.23341 65.2657 14.3009 63.0001 24.4998 63.0001C28.7652 63.0001 32.4098 64.3277 33.8332 64.9238V67.6666H5.83323C3.90359 67.6666 2.33324 66.0963 2.33324 64.1667V18.6671C2.33324 18.0232 1.81056 17.5005 1.16662 17.5005C0.522675 17.5005 0 18.0232 0 18.6671V64.1667C0 67.3831 2.61679 70 5.83337 70H64.1666C67.3831 70 70 67.3832 70 64.1667V18.6671C69.9999 18.0231 69.4784 17.5004 68.8332 17.5004Z" fill="#6791FB"/><path d="M39.7928 26.1966C39.9992 26.6003 40.4099 26.8336 40.8346 26.8336C41.0119 26.8336 41.1939 26.7927 41.3631 26.7064C41.4319 26.6714 48.299 23.1831 51.6858 22.1133C52.2995 21.9184 52.6401 21.2627 52.4452 20.6492C52.2515 20.0354 51.6006 19.6936 50.9811 19.8874C47.4135 21.0156 40.5931 24.4805 40.3038 24.6275C39.7297 24.9191 39.5011 25.6216 39.7928 26.1966Z" fill="#6791FB"/><path d="M39.7928 40.1965C39.9992 40.6002 40.4099 40.8334 40.8346 40.8334C41.0119 40.8334 41.1939 40.7926 41.3631 40.7063C41.4319 40.6713 48.299 37.183 51.6858 36.1131C52.2995 35.9183 52.6401 35.2626 52.4452 34.649C52.2515 34.0353 51.6006 33.6935 50.9811 33.8872C47.4135 35.0154 40.5931 38.4804 40.3038 38.6274C39.7297 38.919 39.5011 39.6214 39.7928 40.1965Z" fill="#6791FB"/><path d="M28.2661 21.6514C21.062 19.9609 12.8755 22.1146 12.5314 22.2067C11.9096 22.3735 11.5397 23.0128 11.7065 23.6358C11.8465 24.1573 12.3178 24.5003 12.8324 24.5003C12.9328 24.5003 13.0342 24.4874 13.1358 24.4606C13.214 24.4385 21.0959 22.3653 27.7343 23.9228C28.3584 24.0687 28.9897 23.6801 29.1366 23.0525C29.2835 22.426 28.8938 21.7983 28.2661 21.6514Z" fill="#6791FB"/><path d="M28.2661 28.6513C21.062 26.962 12.8755 29.1145 12.5314 29.2067C11.9096 29.3735 11.5397 30.0129 11.7065 30.6358C11.8465 31.1572 12.3178 31.5002 12.8324 31.5002C12.9328 31.5002 13.0342 31.4874 13.1358 31.4606C13.214 31.4384 21.0959 29.3653 27.7343 30.9227C28.3584 31.0686 28.9897 30.6801 29.1366 30.0524C29.2835 29.426 28.8938 28.7983 28.2661 28.6513Z" fill="#6791FB"/><path d="M39.7928 47.1963C39.9992 47.6001 40.4099 47.8333 40.8346 47.8333C41.0119 47.8333 41.1939 47.7924 41.3631 47.7062C41.4319 47.6712 48.299 44.1828 51.6858 43.113C52.2995 42.9182 52.6401 42.2625 52.4452 41.6489C52.2515 41.0353 51.6006 40.6934 50.9811 40.8871C47.4135 42.0153 40.5931 45.4803 40.3038 45.6272C39.7297 45.9189 39.5011 46.6213 39.7928 47.1963Z" fill="#6791FB"/><path d="M28.2661 35.6513C21.062 33.962 12.8755 36.1133 12.5314 36.2066C11.9096 36.3734 11.5397 37.0129 11.7065 37.6357C11.8465 38.1572 12.3178 38.5014 12.8324 38.5014C12.9328 38.5014 13.0342 38.4875 13.1358 38.4606C13.214 38.4384 21.0959 36.3652 27.7343 37.9227C28.3584 38.0686 28.9897 37.68 29.1366 37.0524C29.2835 36.4259 28.8938 35.7983 28.2661 35.6513Z" fill="#6791FB"/><path d="M28.2661 49.6511C21.062 47.9606 12.8755 50.1143 12.5314 50.2065C11.9096 50.3733 11.5397 51.0127 11.7065 51.6356C11.8465 52.157 12.3178 52.5013 12.8324 52.5013C12.9328 52.5013 13.0342 52.4873 13.1358 52.4604C13.214 52.4382 21.0959 50.3651 27.7343 51.9226C28.3584 52.0672 28.9897 51.6799 29.1366 51.0522C29.2835 50.4258 28.8938 49.7981 28.2661 49.6511Z" fill="#6791FB"/><path d="M28.2661 42.6512C21.062 40.9607 12.8755 43.1132 12.5314 43.2066C11.9096 43.3734 11.5397 44.0128 11.7065 44.6357C11.8465 45.1571 12.3178 45.5014 12.8324 45.5014C12.9328 45.5014 13.0342 45.4874 13.1358 45.4605C13.214 45.4383 21.0959 43.3651 27.7343 44.9226C28.3584 45.0685 28.9897 44.68 29.1366 44.0523C29.2835 43.4259 28.8938 42.7982 28.2661 42.6512Z" fill="#6791FB"/></svg>