<svg width="70" height="70" viewBox="0 0 70 70" fill="none" xmlns="http://www.w3.org/2000/svg">
<path d="M35.0002 5.47009C34.2431 5.47009 33.6344 6.07986 33.6344 6.83591C33.6344 7.5396 34.1638 8.12517 34.8635 8.19462C35.6735 8.27501 36.366 7.64406 36.366 6.83591C36.366 6.07876 35.7563 5.47009 35.0002 5.47009Z" fill="#6791FB"/>
<path d="M62.3438 8.20312C58.5744 8.20312 55.5078 5.13652 55.5078 1.36719C55.5078 0.612227 54.8956 0 54.1406 0H15.8594C15.1044 0 14.4922 0.612227 14.4922 1.36719C14.4922 5.13652 11.4256 8.20312 7.65625 8.20312C6.90129 8.20312 6.28906 8.81535 6.28906 9.57031V31.8814C6.28906 49.2689 17.6224 64.8491 34.6073 69.9424C34.7355 69.9807 34.8677 70 35 70C35.1323 70 35.2648 69.9807 35.3928 69.9423C52.0099 64.9577 63.7109 49.6493 63.7109 31.8814V9.57031C63.7109 8.81535 63.0987 8.20312 62.3438 8.20312ZM60.9766 31.8814C60.9766 48.2122 50.5557 62.355 35 67.2031C19.5683 62.3937 9.02344 48.1228 9.02344 31.8814V10.8402C13.2085 10.2389 16.5279 6.91947 17.1292 2.73438H52.8708C53.4721 6.91947 56.7915 10.2389 60.9766 10.8402V31.8814Z" fill="#6791FB"/>
<path d="M57.4235 12.6451C54.5724 11.3965 52.3145 9.13855 51.0658 6.28742C50.8479 5.79004 50.3565 5.46875 49.8135 5.46875H40.466C39.7111 5.46875 39.0988 6.08098 39.0988 6.83594C39.0988 7.5909 39.7111 8.20312 40.466 8.20312H48.949C50.3934 11.0306 52.6803 13.3174 55.5078 14.7619V31.8814C55.5078 45.2611 47.4757 56.8057 35 61.4269C22.5243 56.8055 14.4922 45.2611 14.4922 31.8814V14.7619C17.3197 13.3174 19.6064 11.0306 21.051 8.20312H29.534C30.2889 8.20312 30.9012 7.5909 30.9012 6.83594C30.9012 6.08098 30.2889 5.46875 29.534 5.46875H20.1865C19.6435 5.46875 19.1521 5.79018 18.9342 6.28742C17.6855 9.13855 15.4276 11.3965 12.5765 12.6451C12.0792 12.863 11.7578 13.3546 11.7578 13.8975V31.8814C11.7578 46.5395 20.8238 59.3145 34.5439 64.1698C34.6914 64.222 34.8456 64.2481 35 64.2481C35.1544 64.2481 35.3086 64.222 35.4561 64.1698C49.1647 59.3186 58.2422 46.5514 58.2422 31.8814V13.8975C58.2422 13.3544 57.9208 12.863 57.4235 12.6451Z" fill="#6791FB"/>
<path d="M35 19.9609C28.2152 19.9609 22.6953 25.4808 22.6953 32.2656C22.6953 39.0504 28.2152 44.5703 35 44.5703C41.7848 44.5703 47.3047 39.0504 47.3047 32.2656C47.3047 25.4808 41.7848 19.9609 35 19.9609ZM35 41.8359C29.7229 41.8359 25.4297 37.5427 25.4297 32.2656C25.4297 26.9886 29.7229 22.6953 35 22.6953C40.2771 22.6953 44.5703 26.9886 44.5703 32.2656C44.5703 37.5427 40.2771 41.8359 35 41.8359Z" fill="#6791FB"/>
<path d="M41.4357 28.5644C40.9017 28.0306 40.0362 28.0306 39.5021 28.5644L33.633 34.4336L31.8654 32.6661C31.3313 32.1323 30.4659 32.1323 29.9317 32.6661C29.3979 33.2 29.3979 34.0657 29.9317 34.5997L32.6661 37.3341C32.9333 37.6008 33.283 37.7344 33.633 37.7344C33.983 37.7344 34.3327 37.6008 34.5997 37.3339L41.4357 30.498C41.9696 29.9641 41.9696 29.0984 41.4357 28.5644Z" fill="#6791FB"/>
</svg>
