<svg width="70" height="70" viewBox="0 0 70 70" fill="none" xmlns="http://www.w3.org/2000/svg"><path d="M49.7485 36.129C50.4194 36.129 51.0683 36.3253 51.6273 36.698L59.5123 41.955C60.444 42.5747 61.5267 42.9032 62.6442 42.9032H70V40.6452H62.6453C61.9749 40.6452 61.3244 40.4489 60.7654 40.0762L57.5806 37.9527V0H14.6774V6.77419H0V70H42.9032V63.2258H57.5806V53.7272C57.6518 53.7101 57.7251 53.7046 57.7962 53.6875L63.0483 52.3749C64.2137 52.0832 65.4128 51.9355 66.6129 51.9355H70V49.6774H66.6129C65.2286 49.6774 63.8443 49.8478 62.5009 50.1835L57.2488 51.4961C54.5491 52.1703 51.6758 52.0606 49.0385 51.1813L47.136 50.5468C45.4039 49.9696 43.6001 49.6774 41.7742 49.6774H31.9222C31.9222 47.8102 33.4421 46.2903 35.3093 46.2903H47.7286C49.5964 46.2903 51.1157 44.7704 51.1157 42.9032C51.1157 41.1711 49.8037 39.7554 48.125 39.5558L49.0517 36.129H49.7485ZM48.3224 53.3231C50.0545 53.9014 51.8589 54.1936 53.6842 54.1936C54.2321 54.1936 54.7785 54.1461 55.3226 54.0932V60.9677H42.9032V57.2747C43.2996 56.8177 43.6067 56.2769 43.7715 55.6649L44.696 52.2403C45.2776 52.3589 45.8543 52.5 46.4204 52.6896L48.3224 53.3231ZM42.4335 51.9614L41.5923 55.0751C41.3734 55.886 40.6341 56.4516 39.7951 56.4516H39.429C38.4031 56.4516 37.5684 55.6175 37.5684 54.591C37.5684 54.4262 37.5899 54.2636 37.6329 54.1053L38.219 51.9355H41.7742C41.9942 51.9355 42.2136 51.9526 42.4335 51.9614ZM35.8793 51.9355L35.4526 53.5149C35.3578 53.865 35.3104 54.2261 35.3104 54.591C35.3104 56.1175 36.1549 57.4373 37.3915 58.1485L37.037 59.5642L39.2273 60.1121L39.5784 58.7097H39.7951C40.0862 58.7097 40.3684 58.6689 40.6452 58.6104V67.7419H2.25806V9.03226H16.9355V2.25806H55.3226V36.4477L52.8804 34.8192C51.9493 34.1995 50.8665 33.871 49.7485 33.871H49.6614L54.3606 16.4851C54.4554 16.135 54.5028 15.7739 54.5028 15.409C54.5028 13.1377 52.6549 11.2903 50.3842 11.2903H50.0181C48.1614 11.2903 46.5263 12.5423 46.0417 14.3351L42.9032 25.9484V6.77419H19.1935V9.03226H40.6452V33.871H38.3094C37.0806 33.871 35.9234 34.2784 34.9559 35H23.7097V37.2581H32.5837L30.3257 39.5161H23.7097V41.7742H28.0687L26.1822 43.6607C25.5162 44.3255 25.1491 45.2109 25.1491 46.1536C25.1491 48.0969 26.7296 49.6774 28.674 49.6774C29.0219 49.6774 29.357 49.6107 29.6823 49.5137C29.6812 49.5688 29.6652 49.6212 29.6652 49.6774C29.6652 50.9228 30.6779 51.9355 31.9233 51.9355H35.8793ZM44.5764 44.0323H40.3552L45.1227 26.3922L48.9955 27.6828L44.5764 44.0323ZM35.9146 37.1202C36.5458 36.4901 37.4185 36.129 38.3094 36.129H40.1518L39.2306 39.5365C37.8022 39.5883 36.4631 40.1529 35.4471 41.1689L29.5682 47.0478C29.3322 47.2837 29.0059 47.4194 28.6729 47.4194C27.9739 47.4194 27.406 46.8515 27.406 46.1536C27.406 45.8151 27.5384 45.4976 27.7776 45.2583L35.9146 37.1202ZM37.0436 42.7654C37.4703 42.3387 38.0133 42.0476 38.5927 41.896L38.0155 44.0323H35.7779L37.0436 42.7654ZM52.1803 15.8958L50.7976 21.0111L46.9249 19.7206L48.2209 14.9249C48.4409 14.114 49.1796 13.5484 50.0181 13.5484H50.3842C51.4107 13.5484 52.2448 14.3825 52.2448 15.409C52.2448 15.5738 52.2233 15.7364 52.1803 15.8958ZM46.3355 21.9042L50.2083 23.1948L49.5848 25.4991L45.712 24.2086L46.3355 21.9042ZM47.7286 41.7742C48.351 41.7742 48.8577 42.2814 48.8577 42.9032C48.8577 43.5251 48.351 44.0323 47.7286 44.0323H46.9149L47.5258 41.7742H47.7286Z" fill="#6791FB"/><path d="M33.8709 11.2903H4.51611V22.5806H33.8709V11.2903ZM31.6129 20.3225H6.77418V13.5483H31.6129V20.3225Z" fill="#6791FB"/><path d="M9.03226 15.8064H11.2903V18.0645H9.03226V15.8064Z" fill="#6791FB"/><path d="M13.5484 15.8064H15.8065V18.0645H13.5484V15.8064Z" fill="#6791FB"/><path d="M18.0645 15.8064H20.3226V18.0645H18.0645V15.8064Z" fill="#6791FB"/><path d="M22.5806 15.8064H24.8387V18.0645H22.5806V15.8064Z" fill="#6791FB"/><path d="M27.0968 15.8064H29.3548V18.0645H27.0968V15.8064Z" fill="#6791FB"/><path d="M18.0645 36.1291H15.8064V40.6452H6.77418V31.6129H13.5484V29.3549H4.51611V42.9032H18.0645V36.1291Z" fill="#6791FB"/><path d="M21.7824 25.1694L11.2903 35.6615L9.83053 34.2017L8.23401 35.7982L11.2903 38.8545L23.3789 26.766L21.7824 25.1694Z" fill="#6791FB"/><path d="M15.8064 59.8387H6.77418V50.8064H13.5484V48.5483H4.51611V62.0967H18.0645V55.3225H15.8064V59.8387Z" fill="#6791FB"/><path d="M9.83053 53.3953L8.23401 54.9918L11.2903 58.0481L23.3789 45.9596L21.7824 44.363L11.2903 54.8551L9.83053 53.3953Z" fill="#6791FB"/><path d="M36.129 62.0968H38.3871V64.3549H36.129V62.0968Z" fill="#6791FB"/><path d="M21.4516 62.0968H33.8709V64.3549H21.4516V62.0968Z" fill="#6791FB"/><path d="M23.7097 30.4839H38.3871V32.742H23.7097V30.4839Z" fill="#6791FB"/></svg>