<svg width="70" height="70" viewBox="0 0 70 70" fill="none" xmlns="http://www.w3.org/2000/svg"><g clip-path="url(#clip0)"><path d="M70 29.3548H67.463L63.6817 31.3444C63.2561 31.1096 62.8134 30.9106 62.336 30.7909L57.5795 29.6007V29.0599C59.6838 27.5913 60.9677 25.1651 60.9677 22.5806V20.607C60.9677 16.221 57.531 12.5506 53.3071 12.4227C53.0926 12.4171 52.8815 12.4249 52.6692 12.4353L53.9025 9.54826L47.9238 3.57123L44.3994 5.86512C43.0603 5.11097 41.6441 4.52385 40.1733 4.11204L39.3028 0H30.6983L29.8278 4.11314C28.357 4.52495 26.9397 5.11207 25.6017 5.86623L22.0773 3.57233L16.1036 9.54606L17.3159 12.4353C17.2696 12.4331 17.2255 12.4249 17.1792 12.4238C15.017 12.3609 12.9806 13.1498 11.4337 14.6515C9.88454 16.1521 9.03226 18.166 9.03226 20.3226V22.5806C9.03226 25.1651 10.3151 27.5902 12.4194 29.0588V29.6007L9.31672 30.3764L3.69306 27.0968H0V50.4917L11.1073 54.1935H13.2705L13.5407 53.2475L16.9454 55.2912C17.0011 57.1424 18.4857 58.6319 20.3353 58.697C20.4003 60.5388 21.8805 62.019 23.7224 62.0841C23.7874 63.9259 25.2676 65.4061 27.1095 65.4712C27.1767 67.356 28.7203 68.871 30.6206 68.871C31.3262 68.871 32.0181 68.651 32.5997 68.259L33.5997 69.1422C34.2265 69.694 35.0336 70 35.8716 70H36.0805C37.9593 70 39.488 68.4812 39.5117 66.6085C41.3701 66.5848 42.8751 65.0798 42.8988 63.2214C44.7583 63.1977 46.2644 61.6905 46.2859 59.831C48.1625 59.7869 49.6774 58.2538 49.6774 56.3667C49.6774 56.2531 49.6719 56.1412 49.6603 56.0282L70 45.8592V29.3548ZM58.7097 20.607V22.5806C58.7097 24.5846 57.627 26.4567 55.8838 27.4661L55.3193 27.7925L55.3237 31.3654L60.9644 32.7745L48.5484 39.3094V36.268C48.5484 34.7503 47.9354 33.3605 46.9315 32.3334L50.8065 31.3654V27.7897L50.243 27.4639C48.501 26.4567 47.4194 24.5846 47.4194 22.5806V20.3226C47.4194 18.7828 48.028 17.3429 49.1344 16.2706C50.2397 15.1989 51.7061 14.6212 53.2393 14.6807C56.2554 14.7711 58.7097 17.43 58.7097 20.607ZM36.7024 38.4218L31.5914 36.7884C29.2622 36.0419 26.7412 35.9306 24.3569 36.4587L23.7097 36.602V36.268C23.7097 34.7111 24.7654 33.3594 26.2748 32.9812L32.7419 31.3654V27.7897L32.1785 27.4639C30.4365 26.4567 29.3548 24.5846 29.3548 22.5806V20.3226C29.3548 18.7828 29.9635 17.3429 31.0699 16.2706C32.1752 15.1989 33.651 14.6212 35.1748 14.6807C38.1908 14.7711 40.6452 17.43 40.6452 20.607V22.5806C40.6452 24.5846 39.5624 26.4567 37.8193 27.4661L37.2548 27.7925L37.2592 31.3654L43.7252 32.9812C45.2346 33.3594 46.2903 34.7111 46.2903 36.268V40.4985L46.0114 40.6452H45.3195L38.3783 38.6616C37.8314 38.5067 37.268 38.4433 36.7024 38.4218V38.4218ZM23.9627 16.898C26.083 12.7898 30.3505 10.1613 35 10.1613C39.6054 10.1613 43.8547 12.7545 45.991 16.807C45.4535 17.8848 45.1613 19.0783 45.1613 20.3226V22.5806C45.1613 25.1651 46.4441 27.5902 48.5484 29.0588V29.6007L44.0323 30.7314L39.515 29.6007V29.0599C41.6193 27.5913 42.9032 25.1651 42.9032 22.5806V20.607C42.9032 16.221 39.4665 12.5506 35.2426 12.4227C33.0815 12.3593 31.044 13.1487 29.4971 14.6504C27.9491 16.1521 27.0968 18.166 27.0968 20.3226V22.5806C27.0968 25.1651 28.3796 27.5902 30.4839 29.0588V29.6007L25.9677 30.7314L21.4505 29.6007V29.0599C23.5548 27.5913 24.8387 25.1651 24.8387 22.5806V20.607C24.8387 19.2784 24.519 18.0171 23.9627 16.898V16.898ZM18.7702 10.0698L22.3772 6.46272L25.5521 8.52893L26.1596 8.15627C27.6817 7.22349 29.3267 6.54045 31.0484 6.12864L31.743 5.96215L32.5286 2.25806H37.4725L38.2559 5.96105L38.9505 6.12698C40.6722 6.53935 42.3172 7.22239 43.8393 8.15516L44.4468 8.52783L47.6217 6.46161L51.2243 10.0654L49.9437 13.0638C49.0721 13.4387 48.2639 13.9663 47.5605 14.6482C47.5142 14.6934 47.4745 14.7419 47.4293 14.7882C44.7693 10.5599 40.0669 7.90323 35 7.90323C29.8968 7.90323 25.1811 10.5847 22.5277 14.856C21.8177 14.1129 20.9731 13.5109 20.037 13.0903L18.7702 10.0698ZM14.6774 31.3654V27.7897L14.114 27.4639C12.3719 26.4567 11.2903 24.5846 11.2903 22.5806V20.3226C11.2903 18.7828 11.8989 17.3429 13.0054 16.2706C14.1107 15.1989 15.5804 14.6212 17.1102 14.6807C20.1263 14.7711 22.5806 17.43 22.5806 20.607V22.5806C22.5806 24.5846 21.4979 26.4567 19.7548 27.4661L19.1902 27.7925L19.1947 31.3654L23.0685 32.3334C22.0646 33.3605 21.4516 34.7503 21.4516 36.268V37.1043L17.93 37.8871L18.0215 37.5673L18.0645 35.4807L12.1101 32.0071L14.6774 31.3654ZM2.25806 29.3548H3.08113L11.201 34.0909L7.10386 50.479L2.25806 48.8632V29.3548ZM11.4733 51.9355L9.25112 51.1951L13.2314 35.2756L15.8065 36.7773V37.0998L11.5682 51.9355H11.4733ZM19.1935 55.1859C19.1935 54.8529 19.3281 54.5265 19.564 54.2906L21.5486 52.3059C21.7846 52.07 22.111 51.9355 22.4439 51.9355C23.1419 51.9355 23.7097 52.5033 23.7097 53.2012C23.7097 53.5342 23.5752 53.8606 23.3392 54.0965L21.3546 56.0811C21.1186 56.3171 20.7923 56.4516 20.4593 56.4516C19.7614 56.4516 19.1935 55.8838 19.1935 55.1859ZM22.5806 58.573C22.5806 58.24 22.7152 57.9136 22.9511 57.6777L24.9357 55.693C25.1717 55.4571 25.498 55.3226 25.831 55.3226C26.529 55.3226 27.0968 55.8904 27.0968 56.5883C27.0968 56.9213 26.9623 57.2477 26.7263 57.4836L24.7417 59.4682C24.5057 59.7042 24.1794 59.8387 23.8464 59.8387C23.1485 59.8387 22.5806 59.2709 22.5806 58.573ZM25.9677 61.9601C25.9677 61.6271 26.1023 61.3007 26.3382 61.0648L28.3228 59.0801C28.5588 58.8442 28.8851 58.7097 29.2181 58.7097C29.916 58.7097 30.4839 59.2775 30.4839 59.9754C30.4839 60.3084 30.3494 60.6348 30.1134 60.8707L28.1288 62.8553C27.8928 63.0913 27.5665 63.2258 27.2335 63.2258C26.5356 63.2258 25.9677 62.658 25.9677 61.9601ZM30.6206 66.6129C29.9227 66.6129 29.3548 66.0451 29.3548 65.3472C29.3548 65.0142 29.4894 64.6878 29.7253 64.4519L31.7099 62.4672C31.9459 62.2313 32.2722 62.0968 32.6052 62.0968C33.3031 62.0968 33.871 62.6646 33.871 63.3625C33.871 63.6955 33.7365 64.0219 33.5005 64.2578L31.5159 66.2424C31.2799 66.4784 30.9536 66.6129 30.6206 66.6129ZM36.0805 67.7419H35.8716C35.5838 67.7419 35.3082 67.6372 35.0937 67.447L34.2491 66.7022L35.097 65.8543C35.3997 65.5517 35.6345 65.1917 35.8082 64.8052L36.8347 65.6597C37.1032 65.8836 37.2581 66.2132 37.2581 66.5644C37.2581 67.2138 36.7299 67.7419 36.0805 67.7419V67.7419ZM46.2054 57.5806H46.0103C45.7269 57.5806 45.4502 57.4803 45.2335 57.2984L39.1109 52.1962L37.6644 53.9317L43.61 58.8855C43.8773 59.1094 44.0323 59.439 44.0323 59.7902C44.0323 60.4396 43.5041 60.9677 42.8547 60.9677H42.6083C42.3343 60.9677 42.0664 60.8707 41.8552 60.6943L35.7227 55.5844L34.2762 57.3199L40.2218 62.2743C40.4903 62.4965 40.6452 62.8261 40.6452 63.1773C40.6452 63.8267 40.117 64.3548 39.4676 64.3548C39.0343 64.3548 38.612 64.201 38.2796 63.9248L35.7597 61.8244C35.2045 60.6899 34.0639 59.8988 32.7282 59.8514C32.6631 58.0095 31.1829 56.5293 29.3411 56.4643C29.276 54.6224 27.7958 53.1422 25.954 53.0772C25.8878 51.1924 24.3442 49.6774 22.4439 49.6774C21.5161 49.6774 20.6081 50.0534 19.9521 50.7094L17.9675 52.6941C17.849 52.8126 17.7508 52.9471 17.6511 53.0805L14.1829 50.9994L17.2233 40.3585L24.8453 38.6638C26.8448 38.2167 28.953 38.3138 30.9028 38.9378L32.5661 39.4698L26.9275 42.2891C25.6392 42.9346 24.8387 44.2307 24.8387 45.6718V45.8951C24.8387 47.9806 26.5356 49.6774 28.6211 49.6774C29.3063 49.6774 29.9805 49.4911 30.5666 49.1377L34.7707 46.6167C35.6152 46.1106 36.7487 46.2214 37.478 46.8774L47.0175 55.4626C47.2727 55.6941 47.4194 56.0227 47.4194 56.3667C47.4194 57.0365 46.8752 57.5806 46.2054 57.5806V57.5806ZM67.7419 44.4634L48.7209 53.9747C48.6592 53.9091 48.5947 53.8468 48.5269 53.7861L38.9891 45.201C38.1534 44.4468 37.0728 44.0323 35.9471 44.0323C35.124 44.0323 34.3159 44.2561 33.608 44.6806L29.4022 47.2027C29.1663 47.3449 28.8967 47.4194 28.6211 47.4194C27.7798 47.4194 27.0968 46.7363 27.0968 45.8951V45.6718C27.0968 45.0902 27.4198 44.5687 27.9391 44.309L34.237 41.1601C35.3148 40.6204 36.5943 40.4996 37.7559 40.8337L44.8509 42.8602L46.5693 42.9032L67.7419 31.7595V44.4634Z" fill="#6791FB"/></g><defs><clipPath id="clip0"><rect width="70" height="70" fill="white"/></clipPath></defs></svg>