<svg width="70" height="70" viewBox="0 0 70 70" fill="none" xmlns="http://www.w3.org/2000/svg">
<g clip-path="url(#clip0)">
<path d="M63.8118 47.3956L49.6774 44.2561V42.0079C51.8269 40.6022 53.5105 38.5497 54.4598 36.1279H57.5806C60.0714 36.1279 62.0968 34.1025 62.0968 31.6118V23.7086C62.0968 22.0442 61.1822 20.6037 59.8387 19.8204V14.883C59.8387 12.4238 58.369 10.2324 56.1357 9.28529L55.8667 8.74669C53.1764 3.36559 47.7672 0.0225983 41.7505 0.0225983C33.0479 0.0237009 25.9677 7.10386 25.9677 15.8064V19.8215C24.6243 20.6048 23.7097 22.0453 23.7097 23.7097V31.6129C23.7097 34.1036 25.7351 36.129 28.2258 36.129H31.3466C32.2959 38.5508 33.9796 40.6033 36.129 42.009V44.2572L21.9946 47.3967C18.3512 48.206 15.8064 51.3798 15.8064 55.1114V70H70V55.1114C70 51.3798 67.4553 48.206 63.8118 47.3956ZM50.6482 46.7848L48.9707 53.4945L44.6745 50.6317L48.9084 46.3978L50.6482 46.7848ZM41.5708 58.7097H44.2368L46.0428 67.7419H39.7648L41.5708 58.7097ZM44.2798 56.4516H41.5267L40.8034 53.5623L42.9032 52.1637L45.002 53.5634L44.2798 56.4516ZM59.8387 31.6129C59.8387 32.8583 58.826 33.871 57.5806 33.871H55.107C55.2426 33.1372 55.3226 32.3853 55.3226 31.6129V21.4516H57.5806C58.826 21.4516 59.8387 22.4643 59.8387 23.7097V31.6129ZM28.2258 15.8064C28.2258 8.34921 34.2933 2.28177 41.7505 2.28177C46.9056 2.28177 51.5413 5.14624 53.8468 9.7583L54.5232 11.1084L54.967 11.2567C56.5293 11.7782 57.5806 13.2358 57.5806 14.8852V19.1935H55.3226V15.8064H53.0645V18.4708C52.2233 18.9014 51.3043 19.1428 50.3572 19.1776C50.8776 18.7035 51.3462 18.1637 51.7458 17.5623L49.8671 16.3098C48.7066 18.0507 46.7903 19.1053 44.7098 19.1798C45.2313 18.7046 45.6999 18.1637 46.1007 17.5623L44.2219 16.3098C43.0614 18.0507 41.1452 19.1053 39.0646 19.1798C39.5861 18.7046 40.0547 18.1637 40.4555 17.5623L38.5767 16.3098C37.3733 18.1152 35.3578 19.1935 33.1879 19.1935H32.7419V15.8064H30.4839V19.1935H28.2258V15.8064ZM28.2258 33.871C26.9805 33.871 25.9677 32.8583 25.9677 31.6129V23.7097C25.9677 22.4643 26.9805 21.4516 28.2258 21.4516H30.4839V31.6129C30.4839 32.3853 30.5638 33.1372 30.6994 33.871H28.2258ZM32.7419 31.6129V21.4516H33.1879C34.6317 21.4516 36.0226 21.0949 37.2581 20.4444V21.4516H38.8331C40.2769 21.4516 41.6678 21.0949 42.9032 20.4444V21.4516H44.4782C45.9221 21.4516 47.313 21.0949 48.5484 20.4444V21.4516H50.1234C51.135 21.4516 52.124 21.2565 53.0645 20.9185V31.6129C53.0645 32.3897 52.9686 33.1438 52.8027 33.871H47.2104C46.7429 32.56 45.5009 31.6129 44.0312 31.6129H41.7731C39.9059 31.6129 38.386 33.1328 38.386 35C38.386 36.8672 39.9059 38.3871 41.7731 38.3871H44.0312C45.5009 38.3871 46.7429 37.44 47.2104 36.129H51.9917C50.3257 39.4687 46.8818 41.7742 42.9032 41.7742C37.3 41.7742 32.7419 37.2162 32.7419 31.6129ZM45.1613 35C45.1613 35.6218 44.6552 36.129 44.0323 36.129H41.7742C41.1512 36.129 40.6452 35.6218 40.6452 35C40.6452 34.3781 41.1512 33.871 41.7742 33.871H44.0323C44.6552 33.871 45.1613 34.3781 45.1613 35ZM42.9032 44.0323C44.4975 44.0323 46.0169 43.7197 47.4194 43.1695V44.6938L42.9032 49.2099L38.3871 44.6938V43.1695C39.7896 43.7197 41.3089 44.0323 42.9032 44.0323ZM36.8981 46.3978L41.1319 50.6317L36.8358 53.4945L35.1582 46.7848L36.8981 46.3978ZM18.0645 55.1114C18.0645 52.446 19.8821 50.1785 22.4847 49.6008L32.9542 47.2738L35.4223 57.1506L38.8094 54.8926L39.488 57.6088L37.4615 67.7419H27.0968V55.3226H24.8387V67.7419H18.0645V55.1114ZM67.7419 67.7419H60.9677V55.3226H58.7097V67.7419H48.345L46.3184 57.6088L46.9971 54.8926L50.3842 57.1506L52.8523 47.2738L63.3217 49.6008C65.9243 50.1785 67.7419 52.446 67.7419 55.1114V67.7419Z" fill="#6791FB"/>
<path d="M50.8065 24.8387C50.8065 25.4622 50.3009 25.9678 49.6774 25.9678C49.0539 25.9678 48.5484 25.4622 48.5484 24.8387C48.5484 24.2152 49.0539 23.7097 49.6774 23.7097C50.3009 23.7097 50.8065 24.2152 50.8065 24.8387Z" fill="#6791FB"/>
<path d="M37.2581 24.8387C37.2581 25.4622 36.7525 25.9678 36.129 25.9678C35.5055 25.9678 35 25.4622 35 24.8387C35 24.2152 35.5055 23.7097 36.129 23.7097C36.7525 23.7097 37.2581 24.2152 37.2581 24.8387Z" fill="#6791FB"/>
<path d="M4.51613 4.51613H15.8064V6.77419H4.51613V4.51613Z" fill="#6791FB"/>
<path d="M4.51613 9.03226H15.8064V11.2903H4.51613V9.03226Z" fill="#6791FB"/>
<path d="M16.9355 19.967V15.8065H20.3226V0H0V15.8065H9.31341L16.9355 19.967ZM2.25806 2.25806H18.0645V13.5484H14.6774V16.162L9.88896 13.5484H2.25806V2.25806Z" fill="#6791FB"/>
<path d="M23.7097 41.7742H5.49632L6.77419 39.8585V21.4516C6.77419 19.5844 5.2543 18.0645 3.3871 18.0645C1.51989 18.0645 0 19.5844 0 21.4516V39.8585L2.78289 44.0323H23.7097V41.7742ZM3.3871 20.3226C4.01005 20.3226 4.51613 20.8298 4.51613 21.4516V23.7097H2.25806V21.4516C2.25806 20.8298 2.76414 20.3226 3.3871 20.3226ZM3.3871 40.8673L2.25806 39.1738V25.9677H4.51613V39.1738L3.3871 40.8673Z" fill="#6791FB"/>
<path d="M21.4516 37.2581H23.7097V39.5161H21.4516V37.2581Z" fill="#6791FB"/>
<path d="M9.03226 37.2581H19.1935V39.5161H9.03226V37.2581Z" fill="#6791FB"/>
<path d="M9.03226 32.7419H19.1935V35H9.03226V32.7419Z" fill="#6791FB"/>
<path d="M16.9355 28.2258H19.1936V30.4839H16.9355V28.2258Z" fill="#6791FB"/>
<path d="M9.03226 28.2258H14.6774V30.4839H9.03226V28.2258Z" fill="#6791FB"/>
</g>
<defs>
<clipPath id="clip0">
<rect width="70" height="70" fill="white"/>
</clipPath>
</defs>
</svg>
