<svg width="40" height="40" viewBox="0 0 70 70" fill="none" xmlns="http://www.w3.org/2000/svg">
<g clip-path="url(#clip0)">
<path d="M63.7371 56.1124L60.9114 55.1313C62.4933 53.8784 63.5107 51.943 63.5107 49.7731V47.702C63.5107 43.9337 60.4446 40.8677 56.6763 40.8677C52.908 40.8677 49.842 43.9337 49.842 47.702V49.7731C49.842 51.943 50.8599 53.8784 52.4418 55.1313L49.6156 56.1124C47.803 56.742 46.2793 57.8967 45.1882 59.3691H37.5544V56.3564C37.5544 52.3911 35.0374 48.8529 31.2915 47.5525L28.4653 46.5714C30.0471 45.3185 31.0651 43.3831 31.0651 41.2132V39.1422C31.0651 35.3733 27.999 32.3078 24.2307 32.3078C20.4624 32.3078 17.3964 35.3738 17.3964 39.1422V41.2132C17.3964 43.3831 18.4143 45.3185 19.9957 46.5714L17.17 47.5525C13.4241 48.8529 10.9071 52.3911 10.9071 56.3564V59.3691H1.03554C0.463562 59.3691 0 59.8326 0 60.4046V68.9645C0 69.5364 0.463562 70 1.03554 70H44.1126C44.1591 70 44.205 69.9957 44.2504 69.9899C44.2958 69.9957 44.3417 70 44.3887 70H68.9645C69.5364 70 70 69.5364 70 68.9645V64.9163C70 60.9515 67.4835 57.4133 63.7371 56.1124ZM51.9131 47.702C51.9131 45.0755 54.0498 42.9388 56.6763 42.9388C59.3028 42.9388 61.4396 45.0755 61.4396 47.702V49.7731C61.4396 52.3996 59.3028 54.5364 56.6763 54.5364C54.0498 54.5364 51.9131 52.3996 51.9131 49.7731V47.702ZM19.4675 39.1422C19.4675 36.5157 21.6042 34.3789 24.2307 34.3789C26.8572 34.3789 28.994 36.5157 28.994 39.1422V41.2132C28.994 43.8397 26.8572 45.9765 24.2307 45.9765C21.6042 45.9765 19.4675 43.8397 19.4675 41.2132V39.1422ZM26.4033 48.0476L27.4094 48.3968L24.2307 53.9121L21.052 48.3968L22.0582 48.0476H26.4033ZM12.9781 56.3564C12.9781 53.2722 14.936 50.5203 17.8493 49.5087L19.0605 49.0884L23.3335 56.5033C23.5183 56.8243 23.8606 57.0219 24.2307 57.0219C24.6008 57.0219 24.9432 56.8243 25.1279 56.5033L29.4009 49.0884L30.6122 49.5087C33.5255 50.5203 35.4828 53.2722 35.4828 56.3564V59.3691H12.9781V56.3564ZM2.07108 61.4401H44.0277C43.5909 62.5237 43.3532 63.6997 43.3532 64.9163V67.9289H2.07108V61.4401ZM67.9289 67.9289H45.4243V64.9163C45.4243 61.8321 47.3816 59.0807 50.2949 58.0686L54.5038 56.6074H58.8489L63.0578 58.0686C65.9716 59.0807 67.9289 61.8321 67.9289 64.9163V67.9289Z" fill="#6791FB"/>
<path d="M63.4418 7.45544H52.923C52.351 7.45544 51.8874 7.91954 51.8874 8.49098C51.8874 9.06296 52.351 9.52652 52.923 9.52652H63.4418C65.9161 9.52652 67.9289 11.5394 67.9289 14.0142V28.3729C67.9289 30.8472 65.9161 32.86 63.4418 32.86H49.2209C48.6489 32.86 48.1853 33.3236 48.1853 33.8956V38.2994L43.0499 33.1634C42.8555 32.969 42.5922 32.86 42.3177 32.86H33.8956C31.4213 32.86 29.4079 30.8472 29.4079 28.3729V14.0137C29.4079 11.5394 31.4207 9.52652 33.8956 9.52652H48.0817C48.6537 9.52652 49.1173 9.06296 49.1173 8.49098C49.1173 7.91901 48.6537 7.45544 48.0817 7.45544H42.6627V6.55823C42.6627 2.94212 39.7205 0 36.1044 0H6.55823C2.94212 0 0 2.94212 0 6.55823V8.84773C0 9.41971 0.463562 9.88327 1.03554 9.88327C1.60751 9.88327 2.07108 9.41971 2.07108 8.84773V6.55823C2.07108 4.08394 4.08394 2.07108 6.55823 2.07108H36.1044C38.5787 2.07108 40.5916 4.08394 40.5916 6.55823V7.45544H33.8956C30.2795 7.45544 27.3373 10.3976 27.3373 14.0137V25.4041H16.4992C15.9272 25.4041 15.4636 25.8676 15.4636 26.4396V30.8434L10.3281 25.7074C10.1337 25.513 9.87045 25.4041 9.59595 25.4041H6.55823C4.08394 25.4041 2.07108 23.3912 2.07108 20.9169V13.6628C2.07108 13.0908 1.60751 12.6273 1.03554 12.6273C0.463562 12.6273 0 13.0908 0 13.6628V20.9169C0 24.5335 2.94212 27.4751 6.55823 27.4751H9.16656L15.767 34.0755C15.9651 34.2737 16.23 34.3789 16.4992 34.3784C16.6327 34.3784 16.7673 34.3527 16.8954 34.2999C17.2821 34.1396 17.5347 33.7621 17.5347 33.3434V27.4751H27.3373V28.3729C27.3373 31.989 30.2795 34.9306 33.8956 34.9306H41.8888L48.4887 41.531C48.6868 41.7291 48.9517 41.8343 49.2209 41.8343C49.3544 41.8343 49.489 41.8087 49.6172 41.7553C50.0038 41.5951 50.2564 41.2175 50.2564 40.7988V34.9306H63.4418C67.0579 34.9306 70 31.989 70 28.3729V14.0137C70 10.3976 67.0579 7.45544 63.4418 7.45544Z" fill="#6791FB"/>
</g>
<defs>
<clipPath id="clip0">
<rect width="70" height="70" fill="white"/>
</clipPath>
</defs>
</svg>
