<svg width="40" height="40" viewBox="0 0 68 68" fill="none" xmlns="http://www.w3.org/2000/svg">
<path d="M24.1562 49.3125V43.8438C27.1717 43.8438 29.625 41.3905 29.625 38.375V27.4375C29.625 21.867 25.8144 17.1825 20.6672 15.8186C22.7814 14.2206 24.1562 11.693 24.1562 8.84375C24.1562 4.01922 20.2308 0.09375 15.4062 0.09375C10.5817 0.09375 6.65625 4.01922 6.65625 8.84375C6.65625 11.5759 7.91625 14.0172 9.88391 15.6239C4.31891 16.6772 0.09375 21.5695 0.09375 27.4375V30.7188C0.09375 33.7342 2.54703 36.1875 5.5625 36.1875H6.65625V40.5625V41.6562V62.9844C6.65625 65.698 8.86453 67.9062 11.5781 67.9062C13.1323 67.9062 14.5039 67.168 15.4062 66.0403C16.3086 67.168 17.6802 67.9062 19.2344 67.9062C21.3705 67.9062 23.1741 66.5303 23.8544 64.625H55.0842L67.845 56.9688L55.0842 49.3125H24.1562ZM24.1562 58.0625H53.6875V62.4375H24.1562V58.0625ZM53.6875 51.5V55.875H24.1562V51.5H53.6875ZM8.84375 8.84375C8.84375 5.22453 11.787 2.28125 15.4062 2.28125C19.0255 2.28125 21.9687 5.22453 21.9687 8.84375C21.9687 12.463 19.0255 15.4062 15.4062 15.4062C11.787 15.4062 8.84375 12.463 8.84375 8.84375ZM13.7656 36.1875C15.8766 36.1875 17.5937 34.4703 17.5937 32.3594C17.5937 30.2484 15.8766 28.5312 13.7656 28.5312H8.84375V26.3438H17.5937V32.3594V39.4688H8.84375V36.1875H13.7656ZM11.5781 65.7188C10.0709 65.7188 8.84375 64.4916 8.84375 62.9844V41.6562H14.3125V42.75V62.9844C14.3125 64.4916 13.0853 65.7188 11.5781 65.7188ZM21.9687 24.1562V62.9844C21.9687 64.4916 20.7416 65.7188 19.2344 65.7188C17.7272 65.7188 16.5 64.4916 16.5 62.9844V42.75V41.6562H19.7812V24.1562H6.65625V28.5312H4.46875V30.7188H13.7656C14.6702 30.7188 15.4062 31.4548 15.4062 32.3594C15.4062 33.2639 14.6702 34 13.7656 34H5.5625C3.75344 34 2.28125 32.5278 2.28125 30.7188V27.4375C2.28125 22.0103 6.69781 17.5938 12.125 17.5938H15.4062H17.5937C23.0209 17.5938 27.4375 22.0103 27.4375 27.4375V38.375C27.4375 40.1841 25.9653 41.6562 24.1562 41.6562V24.1562H21.9687ZM55.875 61.5997V52.3378L63.5925 56.9688L55.875 61.5997Z" fill="#6791FB"/>
</svg>
