<svg width="70" height="70" viewBox="0 0 70 70" fill="none" xmlns="http://www.w3.org/2000/svg">
<path d="M53.5938 15.9884L68.0706 8.74997L53.5938 1.51154V4.37497H32.8125V6.56247H55.7812V5.05091L63.1794 8.74997L55.7812 12.449V10.9375H24.0625V13.125H53.5938V15.9884Z" fill="#6791FB"/>
<path d="M28.4375 4.375H30.625V6.5625H28.4375V4.375Z" fill="#6791FB"/>
<path d="M24.0625 4.375H26.25V6.5625H24.0625V4.375Z" fill="#6791FB"/>
<path d="M39.3749 54.0115L24.8981 61.25L39.3749 68.4884V65.625H60.1562V63.4375H37.1874V64.949L29.7893 61.25L37.1874 57.5509V59.0625H68.9062V56.875H39.3749V54.0115Z" fill="#6791FB"/>
<path d="M62.3438 63.4375H64.5312V65.625H62.3438V63.4375Z" fill="#6791FB"/>
<path d="M66.7188 63.4375H68.9062V65.625H66.7188V63.4375Z" fill="#6791FB"/>
<path d="M62.3438 43.75H64.5312V45.9375H62.3438V43.75Z" fill="#6791FB"/>
<path d="M57.9688 43.75H60.1562V45.9375H57.9688V43.75Z" fill="#6791FB"/>
<path d="M53.5938 43.75H55.7812V45.9375H53.5938V43.75Z" fill="#6791FB"/>
<path d="M53.5938 39.375H64.5312V41.5625H53.5938V39.375Z" fill="#6791FB"/>
<path d="M65.625 21.875H57.9688H47.0312H39.573C35.4025 17.0056 29.3869 14.2188 22.9688 14.2188C10.9069 14.2188 1.09375 24.0319 1.09375 36.0938C1.09375 48.1556 10.9069 57.9688 22.9688 57.9688C29.3869 57.9688 35.4025 55.1819 39.573 50.3125H65.625C67.4341 50.3125 68.9062 48.8403 68.9062 47.0312V25.1562C68.9062 23.3472 67.4341 21.875 65.625 21.875ZM55.7812 24.0625V28.4375H49.2188V24.0625H55.7812ZM37.3122 22.6253C36.8528 23.0005 36.4984 23.4927 36.295 24.0625H30.3363C29.6089 21.1608 28.6005 18.6506 27.3241 16.8908C31.1292 17.7505 34.5997 19.7334 37.3122 22.6253ZM36.0938 45.9375H30.8197C31.3491 43.1758 31.6477 40.1723 31.7067 37.1875H36.0938V45.9375ZM22.9688 55.7812C21.1203 55.7812 19.1505 52.897 17.8566 48.125H28.082C26.787 52.897 24.8172 55.7812 22.9688 55.7812ZM17.3337 45.9375C16.8153 43.3934 16.4894 40.437 16.427 37.1875H29.5116C29.4492 40.437 29.1222 43.3934 28.6048 45.9375H17.3337ZM3.33703 37.1875H14.2308C14.2898 40.1723 14.5884 43.1758 15.1178 45.9375H5.94562C4.43516 43.3366 3.51203 40.3627 3.33703 37.1875ZM22.9688 16.4062C24.8172 16.4062 26.787 19.2905 28.0809 24.0625H17.8555C19.1505 19.2905 21.1203 16.4062 22.9688 16.4062ZM28.6038 26.25C29.1222 28.7941 29.4481 31.7505 29.5105 35H16.427C16.4894 31.7505 16.8164 28.7941 17.3337 26.25H28.6038ZM14.2308 35H3.33703C3.51313 31.8248 4.43516 28.8509 5.94562 26.25H15.1178C14.5884 29.0117 14.2898 32.0152 14.2308 35ZM36.0938 35H31.7067C31.6477 32.0152 31.3491 29.0117 30.8197 26.25H36.0938V35ZM18.5981 16.9116C17.3294 18.6703 16.3253 21.1717 15.6012 24.0625H7.42C10.1675 20.5198 14.0853 17.9408 18.5981 16.9116ZM7.42 48.125H15.6012C16.3253 51.0158 17.3283 53.5172 18.5981 55.2748C14.0853 54.2467 10.1675 51.6677 7.42 48.125ZM27.3241 55.2967C28.6005 53.5369 29.6089 51.0267 30.3363 48.125H36.295C36.4984 48.6948 36.8517 49.187 37.3122 49.5622C34.5997 52.4541 31.1292 54.437 27.3241 55.2967ZM66.7188 47.0312C66.7188 47.635 66.2277 48.125 65.625 48.125H39.375C38.7723 48.125 38.2812 47.635 38.2812 47.0312V25.1562C38.2812 24.5536 38.7723 24.0625 39.375 24.0625H47.0312V30.625H57.9688V24.0625H65.625C66.2277 24.0625 66.7188 24.5536 66.7188 25.1562V47.0312Z" fill="#6791FB"/>
<path d="M18.5938 39.375H20.7812V41.5625H18.5938V39.375Z" fill="#6791FB"/>
<path d="M22.9688 39.375H25.1562V41.5625H22.9688V39.375Z" fill="#6791FB"/>
<path d="M25.1562 30.625H27.3438V32.8125H25.1562V30.625Z" fill="#6791FB"/>
<path d="M20.7812 30.625H22.9688V32.8125H20.7812V30.625Z" fill="#6791FB"/>
</svg>
