<svg width="70" height="70" viewBox="0 0 40 40" fill="none" xmlns="http://www.w3.org/2000/svg">
<path d="M30.625 9.13621L38.8975 4.99996L30.625 0.863708V2.49996H18.75V3.74996H31.875V2.88621L36.1025 4.99996L31.875 7.11371V6.24996H13.75V7.49996H30.625V9.13621Z" fill="#6791FB"/>
<path d="M16.25 2.5H17.5V3.75H16.25V2.5Z" fill="#6791FB"/>
<path d="M13.75 2.5H15V3.75H13.75V2.5Z" fill="#6791FB"/>
<path d="M22.5 30.8637L14.2275 35L22.5 39.1362V37.5H34.375V36.25H21.25V37.1137L17.0225 35L21.25 32.8862V33.75H39.375V32.5H22.5V30.8637Z" fill="#6791FB"/>
<path d="M35.625 36.25H36.875V37.5H35.625V36.25Z" fill="#6791FB"/>
<path d="M38.125 36.25H39.375V37.5H38.125V36.25Z" fill="#6791FB"/>
<path d="M35.625 25H36.875V26.25H35.625V25Z" fill="#6791FB"/>
<path d="M33.125 25H34.375V26.25H33.125V25Z" fill="#6791FB"/>
<path d="M30.625 25H31.875V26.25H30.625V25Z" fill="#6791FB"/>
<path d="M30.625 22.5H36.875V23.75H30.625V22.5Z" fill="#6791FB"/>
<path d="M37.5 12.5H33.125H26.875H22.6131C20.23 9.7175 16.7925 8.125 13.125 8.125C6.2325 8.125 0.625 13.7325 0.625 20.625C0.625 27.5175 6.2325 33.125 13.125 33.125C16.7925 33.125 20.23 31.5325 22.6131 28.75H37.5C38.5337 28.75 39.375 27.9088 39.375 26.875V14.375C39.375 13.3412 38.5337 12.5 37.5 12.5ZM31.875 13.75V16.25H28.125V13.75H31.875ZM21.3212 12.9288C21.0587 13.1431 20.8562 13.4244 20.74 13.75H17.335C16.9194 12.0919 16.3431 10.6575 15.6138 9.65187C17.7881 10.1431 19.7712 11.2763 21.3212 12.9288ZM20.625 26.25H17.6112C17.9137 24.6719 18.0844 22.9556 18.1181 21.25H20.625V26.25ZM13.125 31.875C12.0688 31.875 10.9431 30.2269 10.2038 27.5H16.0469C15.3069 30.2269 14.1812 31.875 13.125 31.875ZM9.905 26.25C9.60875 24.7962 9.4225 23.1069 9.38688 21.25H16.8638C16.8281 23.1069 16.6413 24.7962 16.3456 26.25H9.905ZM1.90688 21.25H8.13188C8.16562 22.9556 8.33625 24.6719 8.63875 26.25H3.3975C2.53437 24.7638 2.00688 23.0644 1.90688 21.25ZM13.125 9.375C14.1812 9.375 15.3069 11.0231 16.0462 13.75H10.2031C10.9431 11.0231 12.0688 9.375 13.125 9.375ZM16.345 15C16.6413 16.4537 16.8275 18.1431 16.8631 20H9.38688C9.4225 18.1431 9.60938 16.4537 9.905 15H16.345ZM8.13188 20H1.90688C2.0075 18.1856 2.53437 16.4862 3.3975 15H8.63875C8.33625 16.5781 8.16562 18.2944 8.13188 20ZM20.625 20H18.1181C18.0844 18.2944 17.9137 16.5781 17.6112 15H20.625V20ZM10.6275 9.66375C9.9025 10.6688 9.32875 12.0981 8.915 13.75H4.24C5.81 11.7256 8.04875 10.2519 10.6275 9.66375ZM4.24 27.5H8.915C9.32875 29.1519 9.90187 30.5812 10.6275 31.5856C8.04875 30.9981 5.81 29.5244 4.24 27.5ZM15.6138 31.5981C16.3431 30.5925 16.9194 29.1581 17.335 27.5H20.74C20.8562 27.8256 21.0581 28.1069 21.3212 28.3212C19.7712 29.9737 17.7881 31.1069 15.6138 31.5981ZM38.125 26.875C38.125 27.22 37.8444 27.5 37.5 27.5H22.5C22.1556 27.5 21.875 27.22 21.875 26.875V14.375C21.875 14.0306 22.1556 13.75 22.5 13.75H26.875V17.5H33.125V13.75H37.5C37.8444 13.75 38.125 14.0306 38.125 14.375V26.875Z" fill="#6791FB"/>
<path d="M10.625 22.5H11.875V23.75H10.625V22.5Z" fill="#6791FB"/>
<path d="M13.125 22.5H14.375V23.75H13.125V22.5Z" fill="#6791FB"/>
<path d="M14.375 17.5H15.625V18.75H14.375V17.5Z" fill="#6791FB"/>
<path d="M11.875 17.5H13.125V18.75H11.875V17.5Z" fill="#6791FB"/>
</svg>
