<svg width="201" height="46" viewBox="0 0 201 46" fill="none" xmlns="http://www.w3.org/2000/svg"><rect width="83.9818" height="45.9901" fill="#5173C9"/><path d="M27.3862 17.9298C25.7545 15.9382 23.739 14.9424 21.3395 14.9424C20.2837 14.9424 19.2999 15.1344 18.3881 15.5183C17.5003 15.9022 16.7325 16.4301 16.0846 17.102C15.4368 17.7498 14.9209 18.5296 14.537 19.4414C14.177 20.3532 13.9971 21.337 13.9971 22.3928C13.9971 23.4726 14.177 24.4684 14.537 25.3802C14.9209 26.292 15.4368 27.0838 16.0846 27.7556C16.7565 28.4275 17.5363 28.9554 18.4241 29.3393C19.3119 29.7232 20.2717 29.9152 21.3035 29.9152C23.559 29.9152 25.5866 28.9554 27.3862 27.0358V35.386L26.6663 35.6379C25.5866 36.0219 24.5788 36.2978 23.643 36.4658C22.7072 36.6577 21.7834 36.7537 20.8716 36.7537C19 36.7537 17.2004 36.4058 15.4728 35.7099C13.7691 34.9901 12.2575 33.9943 10.9377 32.7226C9.64202 31.4269 8.59824 29.9032 7.80642 28.1516C7.01459 26.3759 6.61867 24.4444 6.61867 22.3568C6.61867 20.2693 7.00259 18.3617 7.77042 16.6341C8.56225 14.8824 9.60603 13.3828 10.9017 12.135C12.2215 10.8633 13.7451 9.87952 15.4728 9.18366C17.2004 8.46382 19.012 8.1039 20.9076 8.1039C21.9873 8.1039 23.0431 8.22387 24.0749 8.46382C25.1307 8.67977 26.2344 9.0277 27.3862 9.50759V17.9298ZM47.2384 25.92L44.0711 16.886L40.9038 25.92H47.2384ZM49.11 31.2829H39.0322L37.4125 35.9979H29.8902L40.2199 8.85974H47.9223L58.252 35.9979H50.7297L49.11 31.2829ZM68.3931 20.9891H69.7248C71.1165 20.9891 72.1843 20.7012 72.9281 20.1253C73.672 19.5494 74.0439 18.7216 74.0439 17.6418C74.0439 16.5621 73.672 15.7342 72.9281 15.1584C72.1843 14.5825 71.1165 14.2946 69.7248 14.2946H68.3931V20.9891ZM83.9058 35.9979H75.1237L68.3931 25.5601V35.9979H61.3386V8.85974H72.3163C73.8279 8.85974 75.1477 9.08769 76.2754 9.54359C77.4032 9.9755 78.327 10.5754 79.0468 11.3432C79.7907 12.111 80.3425 12.9988 80.7025 14.0066C81.0864 15.0144 81.2783 16.0942 81.2783 17.2459C81.2783 19.3095 80.7744 20.9891 79.7667 22.2848C78.7829 23.5566 77.3192 24.4204 75.3756 24.8763L83.9058 35.9979Z" fill="white"/><path d="M97.1503 14.8344V35.9979H90.0959V14.8344H84.3011V8.85974H102.945V14.8344H97.1503ZM113.137 20.9891H114.469C115.861 20.9891 116.929 20.7012 117.672 20.1253C118.416 19.5494 118.788 18.7216 118.788 17.6418C118.788 16.5621 118.416 15.7342 117.672 15.1584C116.929 14.5825 115.861 14.2946 114.469 14.2946H113.137V20.9891ZM128.65 35.9979H119.868L113.137 25.5601V35.9979H106.083V8.85974H117.06C118.572 8.85974 119.892 9.08769 121.02 9.54359C122.147 9.9755 123.071 10.5754 123.791 11.3432C124.535 12.111 125.087 12.9988 125.447 14.0066C125.831 15.0144 126.023 16.0942 126.023 17.2459C126.023 19.3095 125.519 20.9891 124.511 22.2848C123.527 23.5566 122.063 24.4204 120.12 24.8763L128.65 35.9979ZM138.409 8.85974V23.6165C138.409 24.4084 138.433 25.2242 138.481 26.064C138.553 26.8798 138.733 27.6237 139.021 28.2955C139.333 28.9674 139.813 29.5193 140.461 29.9512C141.109 30.3591 142.02 30.563 143.196 30.563C144.372 30.563 145.272 30.3591 145.896 29.9512C146.543 29.5193 147.023 28.9674 147.335 28.2955C147.647 27.6237 147.827 26.8798 147.875 26.064C147.947 25.2242 147.983 24.4084 147.983 23.6165V8.85974H155.002V24.5883C155.002 28.8114 154.03 31.8948 152.086 33.8383C150.167 35.7819 147.203 36.7537 143.196 36.7537C139.189 36.7537 136.214 35.7819 134.27 33.8383C132.327 31.8948 131.355 28.8114 131.355 24.5883V8.85974H138.409ZM175.605 15.8062C174.837 15.1824 174.069 14.7265 173.301 14.4385C172.533 14.1266 171.789 13.9706 171.07 13.9706C170.158 13.9706 169.414 14.1866 168.838 14.6185C168.262 15.0504 167.974 15.6143 167.974 16.3101C167.974 16.79 168.118 17.1859 168.406 17.4979C168.694 17.8098 169.066 18.0857 169.522 18.3257C170.002 18.5416 170.53 18.7336 171.106 18.9016C171.705 19.0695 172.293 19.2495 172.869 19.4414C175.173 20.2093 176.852 21.2411 177.908 22.5368C178.988 23.8085 179.528 25.4761 179.528 27.5397C179.528 28.9314 179.288 30.1911 178.808 31.3189C178.352 32.4466 177.668 33.4184 176.756 34.2342C175.869 35.0261 174.765 35.6379 173.445 36.0698C172.149 36.5257 170.674 36.7537 169.018 36.7537C165.587 36.7537 162.407 35.7339 159.48 33.6944L162.503 28.0076C163.559 28.9434 164.603 29.6392 165.635 30.0951C166.667 30.551 167.686 30.779 168.694 30.779C169.846 30.779 170.698 30.5151 171.25 29.9872C171.825 29.4593 172.113 28.8594 172.113 28.1876C172.113 27.7796 172.041 27.4317 171.897 27.1438C171.753 26.8318 171.514 26.5559 171.178 26.316C170.842 26.052 170.398 25.8121 169.846 25.5961C169.318 25.3802 168.67 25.1402 167.902 24.8763C166.99 24.5883 166.091 24.2764 165.203 23.9405C164.339 23.5806 163.559 23.1127 162.863 22.5368C162.192 21.9609 161.64 21.2411 161.208 20.3772C160.8 19.4894 160.596 18.3737 160.596 17.03C160.596 15.6863 160.812 14.4745 161.244 13.3948C161.7 12.291 162.324 11.3552 163.115 10.5874C163.931 9.79553 164.915 9.18367 166.067 8.75176C167.242 8.31985 168.55 8.1039 169.99 8.1039C171.334 8.1039 172.737 8.29586 174.201 8.67977C175.665 9.0397 177.068 9.57958 178.412 10.2994L175.605 15.8062ZM194.442 14.8344V35.9979H187.387V14.8344H181.593V8.85974H200.237V14.8344H194.442Z" fill="black"/></svg>