<svg width="13" height="17" viewBox="0 0 13 17" fill="none" xmlns="http://www.w3.org/2000/svg"><g clip-path="url(#clip0)"><path d="M3.24666 4.804L3.99015 0.924671C4.01437 0.798363 4.1172 0.720233 4.21968 0.749965C4.32223 0.77976 4.38575 0.906319 4.36156 1.0326L3.61805 4.91193C3.5973 5.02007 3.51897 5.09295 3.43252 5.09295C3.41802 5.09295 3.40329 5.09092 3.38857 5.08663C3.28599 5.05684 3.22246 4.93028 3.24666 4.804Z" fill="black"/><path d="M1.04798 16.2737L3.10147 5.5592C3.1257 5.43289 3.22865 5.35473 3.331 5.3845C3.43356 5.41429 3.49708 5.54085 3.47289 5.66713L1.4194 16.3816C1.39865 16.4897 1.32032 16.5626 1.23387 16.5626C1.21937 16.5626 1.20462 16.5606 1.18989 16.5563C1.08731 16.5265 1.02379 16.4 1.04798 16.2737Z" fill="black"/><path d="M11.4291 14.5691C11.5315 14.5393 11.6345 14.6175 11.6587 14.7438L11.9519 16.2738C11.9761 16.4001 11.9126 16.5266 11.81 16.5564C11.7953 16.5607 11.7806 16.5627 11.766 16.5627C11.6796 16.5627 11.6012 16.4898 11.5805 16.3817L11.2873 14.8517C11.263 14.7254 11.3266 14.5989 11.4291 14.5691Z" fill="black"/><path d="M8.78055 0.749985C8.88292 0.72019 8.98586 0.798382 9.01008 0.924691L11.469 13.7544C11.4932 13.8807 11.4296 14.0073 11.3271 14.0371C11.3124 14.0413 11.2976 14.0434 11.2831 14.0434C11.1966 14.0434 11.1183 13.9705 11.0976 13.8624L8.63867 1.03262C8.61447 0.906339 8.678 0.77978 8.78055 0.749985Z" fill="black"/><path d="M0.00728965 16.2644L3.53181 0.914734C3.56047 0.789832 3.66602 0.717298 3.7673 0.752565C3.86871 0.787862 3.92767 0.917704 3.89901 1.04257L0.374488 16.3923C0.350723 16.4957 0.27422 16.5633 0.19099 16.5633C0.173801 16.5633 0.156332 16.5605 0.138965 16.5544C0.0375807 16.5191 -0.0214016 16.3893 0.00728965 16.2644Z" fill="black"/><path d="M9.23271 0.752565C9.33405 0.717298 9.43957 0.789832 9.46821 0.914734L12.9928 16.2644C13.0214 16.3893 12.9625 16.5191 12.8611 16.5544C12.8437 16.5605 12.8262 16.5634 12.8091 16.5634C12.7258 16.5634 12.6493 16.4958 12.6256 16.3923L9.10101 1.04261C9.07237 0.917673 9.13133 0.787862 9.23271 0.752565Z" fill="black"/><path d="M6.00598 0.971388C6.00921 0.841703 6.09648 0.739499 6.20256 0.743782C6.3079 0.747753 6.39068 0.856147 6.3874 0.985832L6.36496 1.88484H6.63491L6.61246 0.985832C6.60921 0.856147 6.69196 0.747753 6.79731 0.743782C6.90136 0.739812 6.99066 0.841703 6.99388 0.971388L7.02237 2.11261C7.02397 2.17613 7.0046 2.23776 6.96864 2.2834C6.93269 2.32902 6.88328 2.35478 6.83164 2.35478H6.16815C6.11653 2.35478 6.0671 2.32902 6.03117 2.2834C5.99522 2.23776 5.97584 2.17613 5.97744 2.11261L6.00598 0.971388Z" fill="black"/><path d="M5.96278 2.70206C5.96593 2.57519 6.05038 2.47437 6.15349 2.47437H6.84648C6.94959 2.47437 7.03402 2.57519 7.03719 2.70206L7.08731 4.70568C7.08891 4.76921 7.06954 4.83083 7.03361 4.87648C6.99766 4.9221 6.94822 4.94789 6.8966 4.94789H6.10337C6.05175 4.94789 6.00232 4.92213 5.96636 4.87648C5.93043 4.83083 5.91106 4.76921 5.91266 4.70568L5.96278 2.70206ZM6.69985 4.47798L6.66148 2.94427H6.33851L6.30015 4.47798H6.69985Z" fill="black"/><path d="M5.89396 5.4589C5.8971 5.33203 5.98158 5.2312 6.08466 5.2312H6.91554C7.01863 5.2312 7.10308 5.33203 7.10625 5.4589L7.16348 7.74568C7.16508 7.80921 7.14571 7.87083 7.10978 7.91648C7.07383 7.9621 7.02442 7.98789 6.97277 7.98789H6.02741C5.97579 7.98789 5.92635 7.96213 5.8904 7.91648C5.85447 7.87083 5.8351 7.80921 5.8367 7.74568L5.89396 5.4589ZM6.77602 7.51798L6.73052 5.70108H6.26966L6.22416 7.51798H6.77602Z" fill="black"/><path d="M5.81028 8.80854C5.81343 8.68164 5.89787 8.58081 6.00099 8.58081H6.99927C7.10238 8.58081 7.1868 8.68164 7.18998 8.80851L7.25967 11.5987C7.26127 11.6622 7.2419 11.7239 7.20595 11.7695C7.17002 11.8152 7.12061 11.8409 7.06899 11.8409H5.93129C5.87967 11.8409 5.83023 11.8152 5.79431 11.7695C5.75835 11.7239 5.73898 11.6623 5.74058 11.5987L5.81028 8.80854ZM6.87224 11.371L6.81425 9.05072H6.18601L6.12809 11.371H6.87224Z" fill="black"/><path d="M5.70706 12.9433C5.71026 12.8164 5.79471 12.7156 5.89782 12.7156H7.10265C7.20577 12.7156 7.29019 12.8164 7.29336 12.9433L7.37784 16.3205C7.38109 16.4502 7.29834 16.5586 7.19299 16.5626C7.08851 16.5665 6.99965 16.4647 6.99642 16.335L6.91763 13.1855H6.08284L6.00406 16.335C6.00088 16.4622 5.91613 16.5627 5.81345 16.5627C5.81147 16.5627 5.80949 16.5627 5.80751 16.5626C5.70216 16.5586 5.61939 16.4502 5.62266 16.3205L5.70706 12.9433Z" fill="black"/></g><defs><clipPath id="clip0"><rect width="13" height="16.0075" fill="white" transform="matrix(-1 0 0 1 13 0.64917)"/></clipPath></defs></svg>