<svg width="671" height="524" viewBox="0 0 671 524" fill="none" xmlns="http://www.w3.org/2000/svg">
<path d="M221.632 61.2804C221.632 61.2804 216.913 62.1038 216.913 65.2391C216.913 68.3743 218.497 73.8848 218.497 73.8848L220.08 79.7753L224.672 83.7024L226.382 81.3588C226.382 81.3588 228.218 79.712 229.928 79.4903C235.786 78.7936 235.818 77.0518 235.818 77.0518L240.916 74.2332C240.916 74.2332 242.88 70.3062 240.916 69.1344C238.953 67.9626 233.253 64.4157 232.778 64.4157C232.271 64.4157 229.517 56.9417 229.517 56.9417L223.722 49.0876C223.722 49.0876 219.668 52.3496 220.428 54.4715C221.22 56.5616 222.392 57.3534 222.012 59.3169C221.632 61.2804 221.632 61.2804 221.632 61.2804Z" fill="url(#paint0_linear)"/>
<path d="M338.86 149.005C336.168 150.588 333.73 151.633 329.17 153.027C317.295 156.669 314.002 157.967 300.829 160.279C287.656 162.591 273.153 156.669 261.626 163.921C250.1 171.173 248.01 171.395 248.01 171.395L242.405 172.504C242.405 172.504 227.3 170.097 224.83 172.377C222.677 174.372 225.368 172.504 215.488 184.348C205.609 196.224 208.965 191.284 205.609 196.224C198.294 206.96 196.394 202.146 199.022 212.059C201.65 221.94 212.86 231.187 212.86 231.187C212.86 231.187 229.992 232.517 233.285 233.816C236.578 235.146 260.961 236.793 260.961 236.793C260.961 236.793 278.409 261.843 281.702 267.1C284.996 272.389 285.249 277.931 287.656 287.527C288.036 289.111 288.352 290.441 288.637 291.549C320.367 260.64 340.095 217.443 340.095 169.622C340.095 162.654 339.683 155.75 338.86 149.005Z" fill="url(#paint1_linear)"/>
<path d="M297.757 147.801C299.34 151.348 300.512 139.124 305.262 138.744C309.98 138.364 305.642 135.197 300.544 132.315C295.414 129.433 291.867 117.462 288.732 113.503C285.566 109.576 293.451 100.899 301.335 97.4786C309.22 94.0583 307.637 101.691 311.184 105.238C314.73 108.785 310.392 111.952 313.559 118.032C316.725 124.144 317.105 125.316 320.589 123.353C324.072 121.389 319.069 119.172 318.53 112.332C318.277 109.038 318.277 105.649 323.407 109.893C328.41 114.042 330.785 128.641 329.772 111.033C307.194 49.5944 250.226 4.81376 182.239 0L207.857 12.8895L221.948 18.6216C221.948 18.6216 242.658 21.2502 244.843 23.0237C247.028 24.7972 247.028 30.086 249.245 31.2261C251.43 32.3662 260.233 40.6319 272.139 43.7355C279.106 45.5407 281.671 52.9513 282.621 58.7785C280.277 59.9819 279.232 63.3706 279.232 64.669C279.232 66.2525 281.196 68.216 280.816 70.2745C280.436 72.333 275.306 71.763 271.759 70.7495C268.213 69.7678 270.176 70.5595 268.213 70.7495C266.249 70.9396 263.083 73.3148 260.328 76.9568C257.573 80.5671 251.651 80.4404 246.933 81.2638C242.215 82.0872 243.386 79.2686 237.085 81.2638C230.783 83.259 228.028 97.0035 230.372 102.926C232.746 108.848 231.543 112.395 229.96 118.095C228.377 123.796 226.192 126.298 225.622 143.526C224.703 172.282 237.433 160.469 245.318 161.641C253.203 162.813 252.031 158.886 253.583 155.719C255.166 152.552 250.036 144.286 249.656 136.812C249.276 129.306 248.865 127.755 249.656 125.728C250.448 123.733 253.995 119.869 257.129 116.322C260.296 112.775 268.561 112.395 271.316 112.395C274.071 112.395 290.221 128.166 295.351 135.26C300.512 142.291 296.174 144.254 297.757 147.801Z" fill="url(#paint2_linear)"/>
<path d="M18.1131 93.2032C18.0814 93.3932 18.0497 93.5833 18.0181 93.7733C17.6064 99.7588 15.0731 106.346 11.6848 113.662C8.8982 119.679 8.32821 121.579 6.58657 123.606C6.42824 123.796 6.26991 124.018 6.17491 124.239C2.1533 138.681 0 153.914 0 169.622C0 172.979 0.0949986 176.336 0.316662 179.661C0.443327 180.104 0.66499 180.548 0.949986 180.928L2.78662 183.176C3.38828 183.905 4.27494 184.348 5.22492 184.38C7.15656 184.411 10.2915 184.981 9.91152 188.053C9.37319 192.487 12.4131 197.174 12.2548 199.074C12.0965 200.974 16.9097 201.449 16.5931 208.955C16.3714 214.909 17.1631 218.678 17.5114 220.008C17.6064 220.356 17.6381 220.736 17.6064 221.084C17.4797 222.858 17.0681 228.463 16.6881 233.182C16.2448 238.883 18.5564 242.24 20.2664 244.9C21.8813 247.402 22.483 248.162 22.5463 253.799C22.5463 254.021 22.578 254.274 22.6413 254.496C45.156 293.544 82.7438 322.807 127.456 334.334C128.026 333.194 128.438 331.991 128.501 331.136V331.104C128.628 329.457 129.641 321.73 129.863 320.115C129.895 319.925 129.895 319.735 129.895 319.545C129.831 317.898 129.483 309.442 130.275 306.655C131.13 303.552 128.723 302.095 123.086 292.119C117.45 282.143 123.118 283.22 124.226 276.918C125.335 270.647 124.86 268.684 126.411 264.978C127.963 261.273 126.411 264.978 125.366 261.716C124.321 258.454 108.742 243.031 104.973 236.634C101.205 230.205 98.1019 234.829 92.4653 233.784C86.8287 232.739 92.4653 233.784 79.7038 232.01C73.3072 231.124 73.0539 232.897 70.9006 232.517C68.114 232.01 65.7707 233.087 61.3374 231.789C56.9041 230.522 50.6976 237.141 47.0243 235.051C43.351 232.992 42.876 231.82 41.1977 230.269C39.5194 228.717 34.1045 228.242 31.8879 221.813C29.7029 215.384 32.0145 216.397 30.3362 210.697C28.6579 204.996 29.2596 204.078 28.6579 203.413C28.0562 202.685 24.003 199.518 26.4729 192.234C27.6129 188.845 25.4596 190.713 26.0296 183.113C26.5996 175.512 32.0779 180.801 34.8961 177.539C37.6828 174.277 41.3877 175.765 44.9343 170.952C48.4809 166.138 55.4475 166.645 61.4641 160.786C67.4807 154.895 73.2756 154.515 73.8139 153.249L92.5919 139.219C92.6869 139.156 92.7819 139.092 92.8453 138.997C93.7319 138.174 98.3552 133.392 93.5419 127.818C88.2853 121.706 95.9485 121.326 88.2853 121.706C84.1371 121.896 80.7804 123.574 78.6272 125.063C77.0438 126.139 74.8589 125.664 73.8772 123.986C73.1172 122.656 72.2622 121.231 71.4389 120.122C69.8556 117.937 66.1823 112.902 64.8207 111.033C64.4724 110.59 64.029 110.21 63.4907 109.988C62.1607 109.386 59.4374 108.215 57.7591 107.645C56.7775 107.328 56.0175 106.568 55.6692 105.618C55.1942 104.256 54.7192 102.926 54.3075 101.627C53.8325 100.107 54.4975 98.4604 55.8908 97.7003L70.8689 89.7196C72.4522 88.8645 74.3839 89.4346 75.2705 90.9864C76.5055 93.1716 78.5322 96.0852 81.1288 97.9537C84.8654 100.551 91.452 101.659 93.7319 101.976C94.2386 102.039 94.7136 101.976 95.1886 101.817C96.3919 101.437 98.8618 100.836 99.2735 102.419C100.762 107.993 104.625 111.92 107.633 114.232C109.47 115.657 112.162 114.77 112.827 112.553L117.83 95.5151C117.957 95.1351 118.115 94.7867 118.337 94.47L128.691 80.4721C130.591 77.8752 130.971 74.4549 129.641 71.5097L127.773 67.3926C126.696 65.0491 124.416 63.434 121.851 63.2439L116.563 62.8322L96.3286 62.3889C95.3469 62.3572 94.4286 61.9138 93.7953 61.1221C92.7819 59.8553 90.787 58.4619 87.9687 61.8505L84.8654 65.5875C84.1687 66.4109 83.1237 66.8543 82.0471 66.7593L68.019 65.5558C67.7656 65.5241 67.5123 65.4925 67.2906 65.3975C66.309 65.0808 63.4274 64.1624 61.5274 63.6556C60.6724 63.434 59.9758 62.8639 59.5324 62.1355C58.9624 61.2171 57.9491 60.1087 57.9175 59.0636C57.6958 45.9208 67.734 34.5831 70.5206 31.7012C48.5126 47.6626 30.4312 68.7227 18.1131 93.2032Z" fill="url(#paint3_linear)"/>
<path d="M510.807 327.272H482.498V334.524H510.807V327.272Z" fill="#3D414A"/>
<path d="M557.515 203.445H217.135V329.046H557.515V203.445Z" fill="url(#paint4_linear)"/>
<path d="M553.683 207.72H220.935V324.77H553.683V207.72Z" fill="url(#paint5_linear)"/>
<path d="M553.683 218.551H441.743L448.393 228.875H553.683V218.551Z" fill="white"/>
<path d="M636.617 364.895C636.617 364.895 658.625 364.895 663.407 364.895C668.188 364.895 668.98 357.548 668.727 352.069C668.473 346.59 665.275 346.052 665.275 346.052L652.704 341.872V335.316L665.813 336.615C665.813 336.615 668.79 336.615 668.79 331.389C668.79 326.164 667.713 291.771 666.89 290.662C666.035 289.585 664.325 289.174 664.325 289.174L660.398 253.736C660.398 253.736 661.317 252.152 661.063 250.727C660.81 249.302 659.733 239.738 654.699 237.648C649.664 235.557 570.34 230.047 568.218 235.304C566.097 240.53 568.218 332.719 568.218 332.719L571.67 334.556H497.381C497.381 334.556 494.119 331.421 492.156 330.882C490.224 330.344 461.028 330.882 461.028 330.882C461.028 330.882 451.655 331.231 448.647 339.623C445.638 348.016 446.177 358.308 446.715 359.702C447.253 361.095 450.768 364.927 450.768 364.927H636.617V364.895Z" fill="url(#paint6_linear)"/>
<path d="M664.293 289.174L603.969 283.632C598.903 283.157 594.501 279.895 592.728 275.176C592.189 273.751 591.778 272.104 591.619 270.204C590.828 260.893 593.994 251.74 600.359 251.74C602.766 251.74 660.303 253.704 660.303 253.704L664.293 289.174Z" fill="#454A54"/>
<path d="M604.729 283.726C604.729 283.726 598.396 267.227 605.584 259.246C608.846 255.604 660.873 258.264 660.873 258.264L664.293 289.174L604.729 283.726Z" fill="#B8B8B8"/>
<path d="M670.183 355.11C669.518 359.385 669.391 364.896 664.737 364.896H595.293C532.784 364.896 450.737 364.896 450.737 364.896C450.737 364.896 441.743 365.022 441.743 363.85C441.743 362.679 441.047 354.635 446.24 355.11C449.597 355.426 533.607 355.331 593.108 355.236C612.899 355.205 629.935 355.173 640.449 355.141C647.067 355.141 651.057 355.11 651.468 355.11C654.508 355.11 654.54 347.414 668.441 350.074C668.473 350.074 670.848 350.834 670.183 355.11Z" fill="url(#paint7_linear)"/>
<path d="M616.794 374.143C627.445 374.143 636.079 365.621 636.079 355.109C636.079 344.597 627.445 336.076 616.794 336.076C606.143 336.076 597.509 344.597 597.509 355.109C597.509 365.621 606.143 374.143 616.794 374.143Z" fill="#3D414A"/>
<path d="M619.897 355.11C619.897 356.82 618.504 358.182 616.762 358.182C615.021 358.182 613.628 356.788 613.628 355.11C613.628 353.431 615.021 352.038 616.762 352.038C618.504 352.038 619.897 353.431 619.897 355.11Z" fill="#ADA9A2"/>
<path d="M616.794 369.044C609.004 369.044 602.703 362.805 602.703 355.109C602.703 347.445 609.036 341.175 616.794 341.175C624.552 341.175 630.886 347.414 630.886 355.109C630.886 362.805 624.552 369.044 616.794 369.044ZM616.794 341.491C609.194 341.491 602.988 347.604 602.988 355.109C602.988 362.615 609.194 368.727 616.794 368.727C624.394 368.727 630.601 362.615 630.601 355.109C630.601 347.604 624.394 341.491 616.794 341.491Z" fill="#ADA9A2"/>
<path d="M618.979 355.11C618.979 356.313 617.997 357.263 616.794 357.263C615.591 357.263 614.609 356.281 614.609 355.11C614.609 353.938 615.591 352.956 616.794 352.956C617.997 352.956 618.979 353.938 618.979 355.11Z" fill="#3D414A"/>
<path d="M640.449 355.11C640.449 358.625 639.657 361.919 638.264 364.895H595.261C593.868 361.95 593.108 358.688 593.076 355.236V355.11C593.076 342.22 603.684 331.738 616.731 331.738C629.841 331.769 640.449 342.22 640.449 355.11Z" fill="#26292E"/>
<path d="M495.703 355.11C495.703 358.625 494.911 361.919 493.518 364.895H450.515C449.122 361.95 448.362 358.688 448.33 355.236V355.11C448.33 342.22 458.938 331.738 471.985 331.738C485.126 331.769 495.703 342.22 495.703 355.11Z" fill="#26292E"/>
<path d="M616.794 374.143C627.445 374.143 636.079 365.621 636.079 355.109C636.079 344.597 627.445 336.076 616.794 336.076C606.143 336.076 597.509 344.597 597.509 355.109C597.509 365.621 606.143 374.143 616.794 374.143Z" fill="#3D414A"/>
<path d="M619.897 355.11C619.897 356.82 618.504 358.182 616.762 358.182C615.021 358.182 613.628 356.788 613.628 355.11C613.628 353.431 615.021 352.038 616.762 352.038C618.504 352.038 619.897 353.431 619.897 355.11Z" fill="#ADA9A2"/>
<path d="M616.794 369.044C609.004 369.044 602.703 362.805 602.703 355.109C602.703 347.445 609.036 341.175 616.794 341.175C624.552 341.175 630.886 347.414 630.886 355.109C630.886 362.805 624.552 369.044 616.794 369.044ZM616.794 341.491C609.194 341.491 602.988 347.604 602.988 355.109C602.988 362.615 609.194 368.727 616.794 368.727C624.394 368.727 630.601 362.615 630.601 355.109C630.601 347.604 624.394 341.491 616.794 341.491Z" fill="#ADA9A2"/>
<path d="M618.979 355.11C618.979 356.313 617.997 357.263 616.794 357.263C615.591 357.263 614.609 356.281 614.609 355.11C614.609 353.938 615.591 352.956 616.794 352.956C617.997 352.956 618.979 353.938 618.979 355.11Z" fill="#3D414A"/>
<path d="M472.048 374.143C482.699 374.143 491.333 365.621 491.333 355.109C491.333 344.597 482.699 336.076 472.048 336.076C461.397 336.076 452.763 344.597 452.763 355.109C452.763 365.621 461.397 374.143 472.048 374.143Z" fill="#3D414A"/>
<path d="M475.183 355.11C475.183 356.82 473.79 358.182 472.048 358.182C470.306 358.182 468.913 356.788 468.913 355.11C468.913 353.431 470.306 352.038 472.048 352.038C473.79 352.038 475.183 353.431 475.183 355.11Z" fill="#ADA9A2"/>
<path d="M472.048 369.044C464.258 369.044 457.956 362.805 457.956 355.109C457.956 347.445 464.29 341.175 472.048 341.175C479.806 341.175 486.139 347.414 486.139 355.109C486.139 362.805 479.838 369.044 472.048 369.044ZM472.048 341.491C464.448 341.491 458.241 347.604 458.241 355.109C458.241 362.615 464.448 368.727 472.048 368.727C479.648 368.727 485.854 362.615 485.854 355.109C485.854 347.604 479.648 341.491 472.048 341.491Z" fill="#ADA9A2"/>
<path d="M474.233 355.11C474.233 356.313 473.251 357.263 472.048 357.263C470.845 357.263 469.863 356.281 469.863 355.11C469.863 353.938 470.845 352.956 472.048 352.956C473.251 352.956 474.233 353.938 474.233 355.11Z" fill="#3D414A"/>
<path d="M652.704 335.316V341.871L665.275 346.052C665.275 346.052 666.953 341.175 665.813 336.614L652.704 335.316Z" fill="url(#paint8_linear)"/>
<path d="M450.198 349.219L443.96 351.911L443.105 365.18L446.81 367.302C446.842 367.271 446.493 356.915 450.198 349.219Z" fill="#3D414A"/>
<path d="M446.208 353.526H442.852V356.851H446.208V353.526Z" fill="#CF7923"/>
<path d="M651.469 340.953L638.517 340.003L638.485 339.813C635.635 322.554 614.799 322.617 614.609 322.617H614.356L610.366 252.026L610.904 252.057L614.862 322.11C617.269 322.173 636.11 323.092 638.992 339.528L650.962 340.415V333.353L655.933 333.479C655.902 329.933 655.68 292.658 654.319 289.301C652.862 285.69 648.999 254.654 648.84 253.356L649.379 253.387C649.41 253.704 653.369 285.564 654.794 289.111C656.25 292.753 656.44 332.086 656.44 333.765V334.05L651.469 333.923V340.953Z" fill="#A8A59C"/>
<path d="M575.445 242.766L575.418 243.303L656.6 247.432L656.627 246.894L575.445 242.766Z" fill="#A8A59C"/>
<path d="M603.051 333.226L572.398 331.263L572.43 330.724L602.893 332.688C603.938 331.959 614.356 324.897 628.036 330.756L627.814 331.231C613.754 325.214 603.209 333.068 603.114 333.163L603.051 333.226Z" fill="#A8A59C"/>
<path d="M655.363 288.509C655.332 288.287 653.685 265.707 653.052 259.753C652.735 256.681 651.848 255.667 651.342 255.319C650.93 255.034 650.36 255.097 649.537 255.129L649.347 253.609C650.265 253.577 651.215 253.387 652.26 254.084C653.559 254.939 654.35 256.807 654.635 259.626C655.237 265.612 656.915 288.192 656.947 288.445L655.363 288.509Z" fill="#3D414A"/>
<path d="M655.268 277.171L648.365 277.646L647.13 260.323L653.939 259.595L655.268 277.171Z" fill="#3D414A"/>
<path d="M619.581 288.509H614.989V296.109H619.581V288.509Z" fill="#A8A59C"/>
<path d="M652.704 335.316V341.871L655.649 342.853V335.601L652.704 335.316Z" fill="url(#paint9_linear)"/>
<path d="M76.6639 53.6163C76.6639 44.9706 69.6656 37.9399 60.9891 37.9399C52.3442 37.9399 45.3143 44.9389 45.3143 53.6163C45.3143 53.9013 45.3143 54.218 45.346 54.5031H45.3143C45.3143 66.4424 60.9891 85.1274 60.9891 85.1274C60.9891 85.1274 76.6639 66.4424 76.6639 54.5031H76.6322C76.6639 54.1864 76.6639 53.9013 76.6639 53.6163ZM61.0208 63.7505C55.4158 63.7505 50.8876 59.2218 50.8876 53.6163C50.8876 48.0108 55.4158 43.4821 61.0208 43.4821C66.6257 43.4821 71.1539 48.0108 71.1539 53.6163C71.1539 59.1901 66.6257 63.7505 61.0208 63.7505Z" fill="#E64646"/>
<path d="M386.518 419.208H271.474H156.431L139.996 480.711H271.474H402.984L386.518 419.208Z" fill="url(#paint10_linear)"/>
<path d="M158.236 435.518H173.277C173.911 435.518 174.386 435.993 174.259 436.532L172.802 443.087C172.707 443.499 172.296 443.784 171.821 443.784H156.494C155.861 443.784 155.386 443.277 155.513 442.739L157.223 436.183C157.381 435.803 157.793 435.518 158.236 435.518Z" fill="white"/>
<path d="M180.212 435.518H191.58L190.06 443.784H178.471L180.212 435.518Z" fill="white"/>
<path d="M197.28 435.518H208.649L207.477 443.784L195.855 443.816L197.28 435.518Z" fill="white"/>
<path d="M214.349 435.518H225.717L224.862 443.784H213.272L214.349 435.518Z" fill="white"/>
<path d="M231.417 435.518H242.816L242.278 443.784H230.657L231.417 435.518Z" fill="white"/>
<path d="M248.485 435.518H259.884L259.663 443.784L248.073 443.816L248.485 435.518Z" fill="white"/>
<path d="M385.093 435.518H368.025L369.861 443.784H387.278L385.093 435.518Z" fill="white"/>
<path d="M362.356 435.518H350.956L352.476 443.784H364.066L362.356 435.518Z" fill="white"/>
<path d="M345.257 435.518H333.888L335.092 443.784L346.681 443.816L345.257 435.518Z" fill="white"/>
<path d="M328.188 435.518H316.82L317.675 443.784H329.297L328.188 435.518Z" fill="white"/>
<path d="M311.12 435.518H299.752L300.291 443.784H311.88L311.12 435.518Z" fill="white"/>
<path d="M294.052 435.518H282.684L282.906 443.784L294.496 443.816L294.052 435.518Z" fill="white"/>
<path d="M265.553 435.518H276.952L277.143 443.784H265.553V435.518Z" fill="white"/>
<path d="M153.233 449.959H177.014L175.684 458.478H151.428L153.233 449.959Z" fill="white"/>
<path d="M388.829 449.959H359.411L361.09 458.478H391.046L388.829 449.959Z" fill="white"/>
<path d="M353.553 449.959H341.773L343.135 458.478H355.105L353.553 449.959Z" fill="white"/>
<path d="M335.915 449.959H324.135L325.148 458.478H337.118L335.915 449.959Z" fill="white"/>
<path d="M318.277 449.959H306.497L307.162 458.478H319.164L318.277 449.959Z" fill="white"/>
<path d="M300.639 449.959H288.859L289.207 458.478H301.177L300.639 449.959Z" fill="white"/>
<path d="M149.686 465.129H174.006L172.232 473.617H147.469L149.686 465.129Z" fill="white"/>
<path d="M180.086 465.129H192.245L190.789 473.617H178.407L180.086 465.129Z" fill="white"/>
<path d="M198.325 465.129H210.485H289.492L289.809 473.617H196.995L198.325 465.129Z" fill="white"/>
<path d="M295.572 465.129H307.732L308.397 473.617H296.016L295.572 465.129Z" fill="white"/>
<path d="M313.812 465.129H325.972L326.953 473.617H314.572L313.812 465.129Z" fill="white"/>
<path d="M332.052 465.129H344.212L345.542 473.617H333.16L332.052 465.129Z" fill="white"/>
<path d="M350.26 465.129H362.42L364.098 473.617H351.716L350.26 465.129Z" fill="white"/>
<path d="M368.499 465.129H392.819L395.036 473.617H370.273L368.499 465.129Z" fill="white"/>
<path d="M283.001 449.959H271.348V458.478H283.254L283.001 449.959Z" fill="white"/>
<path d="M265.363 449.959H253.615L253.298 458.478H265.268L265.363 449.959Z" fill="white"/>
<path d="M247.725 449.959H235.976L235.311 458.478H247.281L247.725 449.959Z" fill="white"/>
<path d="M230.087 449.959H218.338L217.325 458.478H229.327L230.087 449.959Z" fill="white"/>
<path d="M212.448 449.959H200.7L199.37 458.478H211.34L212.448 449.959Z" fill="white"/>
<path d="M194.81 449.959H183.062L181.384 458.478H193.385L194.81 449.959Z" fill="white"/>
<path d="M158.806 430.324L160.738 422.945H166.247L164.474 430.324H158.806Z" fill="white"/>
<path d="M171.789 422.945H182.841L181.289 430.324H170.047L171.789 422.945Z" fill="white"/>
<path d="M188.382 422.945H199.434L198.167 430.324H186.926L188.382 422.945Z" fill="white"/>
<path d="M204.944 422.945H215.995L215.045 430.324H203.772L204.944 422.945Z" fill="white"/>
<path d="M221.537 422.945H232.588L231.891 430.324H220.65L221.537 422.945Z" fill="white"/>
<path d="M238.098 422.945H249.15L248.77 430.324H237.528L238.098 422.945Z" fill="white"/>
<path d="M254.691 422.945H265.743L265.648 430.324H254.375L254.691 422.945Z" fill="white"/>
<path d="M271.253 422.945H282.304L282.494 430.324H271.253V422.945Z" fill="white"/>
<path d="M287.846 422.945H298.897L299.372 430.324H288.131L287.846 422.945Z" fill="white"/>
<path d="M304.407 422.945H315.459L316.25 430.324H304.977L304.407 422.945Z" fill="white"/>
<path d="M321 422.945H332.052L333.097 430.324H321.855L321 422.945Z" fill="white"/>
<path d="M337.562 422.945H348.613L349.975 430.324H338.733L337.562 422.945Z" fill="white"/>
<path d="M354.155 422.945H365.206L366.853 430.324H355.58L354.155 422.945Z" fill="white"/>
<path d="M370.716 422.945H381.768L383.699 430.324H372.458L370.716 422.945Z" fill="white"/>
<path d="M402.984 480.71H139.996V484.352H402.984V480.71Z" fill="url(#paint11_linear)"/>
<path d="M254.158 398.866H290.352V288.91H254.158V398.866Z" fill="#365DC0"/>
<path d="M126.981 341.872H417.519C423.599 341.872 428.507 336.931 428.507 330.882V132.378C428.507 126.298 423.567 121.389 417.519 121.389H126.981C120.902 121.389 115.993 126.329 115.993 132.378V330.882C115.993 336.963 120.933 341.872 126.981 341.872Z" fill="url(#paint12_linear)"/>
<path d="M127.034 301.788L416.938 301.788V132.166L127.034 132.166V301.788Z" fill="white"/>
<path d="M383.858 323.123C383.858 328.697 388.924 333.194 395.194 333.194C401.464 333.194 406.531 328.665 406.531 323.123C406.531 317.55 401.464 313.052 395.194 313.052C388.924 313.052 383.858 317.581 383.858 323.123Z" fill="#365DC0"/>
<path d="M353.68 394.728H190.852V403.025H353.68V394.728Z" fill="url(#paint13_linear)"/>
<path d="M139.585 283.663C139.649 283.696 139.649 283.696 139.585 283.663V283.663Z" fill="#323657"/>
<path opacity="0.95" d="M458.526 272.136H372.774C365.998 272.136 360.52 266.657 360.52 259.879V174.119C360.52 167.341 365.998 161.863 372.774 161.863H458.526C465.303 161.863 470.781 167.341 470.781 174.119V259.879C470.781 266.625 465.303 272.136 458.526 272.136Z" fill="#DCE6FF"/>
<path d="M405.929 198.377C404.599 198.377 403.364 198.156 402.256 197.712C401.116 197.269 400.134 196.636 399.311 195.876C398.487 195.116 397.822 194.197 397.316 193.152C396.809 192.107 396.587 190.999 396.587 189.763C396.587 188.592 396.841 187.483 397.316 186.406C397.822 185.361 398.456 184.443 399.311 183.683C400.134 182.923 401.116 182.321 402.256 181.878C403.396 181.434 404.631 181.213 405.929 181.213C407.227 181.213 408.43 181.434 409.57 181.878C410.71 182.321 411.724 182.923 412.547 183.683C413.37 184.443 414.035 185.361 414.542 186.406C415.017 187.452 415.27 188.592 415.27 189.763C415.27 190.967 415.017 192.107 414.542 193.152C414.035 194.197 413.402 195.084 412.547 195.876C411.724 196.636 410.71 197.269 409.57 197.712C408.43 198.156 407.195 198.377 405.929 198.377ZM399.722 219.343L415.714 200.689L430.47 181.308L433.922 184.38L418.437 202.685L403.174 222.415L399.722 219.343ZM405.929 194.577C406.499 194.577 407.005 194.45 407.48 194.165C407.955 193.912 408.367 193.564 408.747 193.12C409.127 192.677 409.412 192.17 409.634 191.6C409.855 191.03 409.95 190.397 409.95 189.763C409.95 188.433 409.539 187.325 408.747 186.375C407.955 185.456 407.005 184.981 405.897 184.981C405.327 184.981 404.82 185.108 404.346 185.393C403.871 185.646 403.459 185.995 403.079 186.438C402.699 186.881 402.414 187.388 402.192 187.927C401.971 188.497 401.876 189.098 401.876 189.732C401.876 191.062 402.287 192.202 403.079 193.12C403.871 194.102 404.82 194.577 405.929 194.577ZM427.81 222.573C426.48 222.573 425.245 222.351 424.137 221.908C422.997 221.465 422.015 220.863 421.192 220.103C420.369 219.343 419.704 218.456 419.197 217.411C418.69 216.366 418.469 215.257 418.469 214.022C418.469 212.819 418.722 211.679 419.197 210.634C419.672 209.588 420.337 208.702 421.192 207.91C422.015 207.15 422.997 206.517 424.137 206.073C425.277 205.63 426.512 205.408 427.81 205.408C429.14 205.408 430.375 205.63 431.483 206.073C432.623 206.517 433.605 207.15 434.46 207.91C435.315 208.67 435.98 209.588 436.455 210.634C436.93 211.679 437.152 212.787 437.152 214.022C437.152 215.226 436.93 216.366 436.455 217.411C435.98 218.456 435.315 219.343 434.46 220.103C433.605 220.863 432.623 221.465 431.483 221.908C430.343 222.351 429.14 222.573 427.81 222.573ZM427.81 218.773C428.38 218.773 428.887 218.646 429.362 218.361C429.837 218.108 430.248 217.759 430.628 217.316C431.008 216.872 431.293 216.366 431.515 215.827C431.737 215.257 431.832 214.656 431.832 214.022C431.832 213.357 431.705 212.724 431.483 212.122C431.262 211.552 430.977 211.014 430.597 210.602C430.248 210.159 429.805 209.842 429.33 209.588C428.824 209.335 428.317 209.208 427.81 209.208C427.24 209.208 426.734 209.335 426.259 209.62C425.784 209.873 425.372 210.222 424.992 210.665C424.612 211.109 424.327 211.615 424.105 212.185C423.884 212.787 423.789 213.389 423.789 214.022C423.789 215.352 424.2 216.461 424.992 217.411C425.752 218.329 426.702 218.773 427.81 218.773Z" fill="#6791FB"/>
<path d="M392.186 234.892H382.243V224.948H384.079V233.056H392.186V234.892Z" fill="#6791FB"/>
<path d="M451.497 234.892H441.522V233.056H449.66V224.948H451.497V234.892Z" fill="#6791FB"/>
<path d="M384.079 183.588H382.243V173.644H392.186V175.48H384.079V183.588Z" fill="#6791FB"/>
<path d="M451.497 183.588H449.66V175.48H441.522V173.644H451.497V183.588Z" fill="#6791FB"/>
<path opacity="0.95" d="M85.1187 161.863H170.871C177.647 161.863 183.126 167.341 183.126 174.119V259.879C183.126 266.657 177.647 272.136 170.871 272.136H85.1187C78.3422 272.136 72.8639 266.657 72.8639 259.879V174.119C72.8322 167.341 78.3422 161.863 85.1187 161.863Z" fill="#DCE6FF"/>
<path d="M437.88 246.515H386.834V250.062H437.88V246.515Z" fill="#365DC0"/>
<path d="M421.762 255.034H386.834V258.581H421.762V255.034Z" fill="#365DC0"/>
<path d="M123.276 245.312H97.5002V248.859H123.276V245.312Z" fill="#365DC0"/>
<path d="M135.626 253.831H97.5002V257.378H135.626V253.831Z" fill="#365DC0"/>
<path d="M112.32 196.889C112.193 196.762 111.94 196.572 111.592 196.35C111.243 196.129 110.832 195.907 110.325 195.685C109.818 195.464 109.28 195.274 108.71 195.147C108.14 194.989 107.538 194.925 106.937 194.925C105.86 194.925 105.068 195.115 104.53 195.527C103.992 195.907 103.738 196.477 103.738 197.206C103.738 197.617 103.833 197.966 104.023 198.251C104.213 198.536 104.498 198.757 104.878 198.979C105.258 199.201 105.733 199.359 106.303 199.549C106.873 199.707 107.538 199.897 108.298 200.087C109.28 200.341 110.167 200.626 110.958 200.943C111.75 201.259 112.447 201.608 112.985 202.083C113.555 202.526 113.967 203.064 114.283 203.698C114.6 204.331 114.727 205.091 114.727 206.041C114.727 207.118 114.537 208.036 114.125 208.797C113.713 209.557 113.175 210.19 112.478 210.633C111.782 211.108 110.99 211.457 110.103 211.678C109.217 211.9 108.267 211.995 107.285 211.995C105.765 211.995 104.277 211.773 102.82 211.33C101.363 210.887 100.033 210.253 98.8618 209.398L100.572 206.041C100.73 206.2 101.047 206.421 101.49 206.706C101.933 206.991 102.44 207.245 103.073 207.53C103.675 207.815 104.34 208.036 105.068 208.226C105.797 208.416 106.557 208.512 107.317 208.512C109.47 208.512 110.547 207.815 110.547 206.453C110.547 206.01 110.42 205.661 110.167 205.345C109.913 205.028 109.565 204.775 109.122 204.553C108.678 204.331 108.108 204.109 107.475 203.919C106.842 203.729 106.113 203.539 105.322 203.286C104.372 203.033 103.517 202.748 102.82 202.431C102.123 202.114 101.522 201.766 101.047 201.323C100.572 200.911 100.223 200.404 100.002 199.866C99.7801 199.296 99.6535 198.662 99.6535 197.871C99.6535 196.857 99.8435 195.939 100.223 195.147C100.603 194.355 101.11 193.69 101.807 193.183C102.472 192.645 103.263 192.265 104.15 191.98C105.037 191.695 105.987 191.568 107 191.568C108.425 191.568 109.723 191.79 110.895 192.233C112.067 192.677 113.112 193.184 113.998 193.785L112.32 196.889Z" fill="#4BADCC"/>
<path d="M121.345 211.964C120.616 211.964 119.951 211.837 119.35 211.615C118.717 211.394 118.178 211.045 117.735 210.633C117.292 210.222 116.943 209.715 116.69 209.145C116.437 208.575 116.31 207.973 116.31 207.277C116.31 206.58 116.468 205.946 116.785 205.345C117.102 204.743 117.513 204.236 118.083 203.825C118.653 203.413 119.287 203.096 120.078 202.843C120.838 202.621 121.693 202.494 122.611 202.494C123.276 202.494 123.91 202.558 124.543 202.653C125.176 202.779 125.746 202.938 126.221 203.128V202.273C126.221 201.291 125.936 200.531 125.398 200.024C124.828 199.486 124.005 199.232 122.928 199.232C122.136 199.232 121.376 199.359 120.616 199.644C119.856 199.929 119.097 200.341 118.305 200.879L117.133 198.472C119.033 197.206 121.091 196.572 123.276 196.572C125.398 196.572 127.045 197.079 128.248 198.156C129.42 199.201 130.021 200.721 130.021 202.684V207.277C130.021 207.657 130.085 207.942 130.243 208.132C130.37 208.29 130.623 208.385 130.94 208.417V211.647C130.306 211.774 129.736 211.837 129.261 211.837C128.533 211.837 127.995 211.679 127.615 211.362C127.235 211.045 126.981 210.634 126.886 210.095L126.791 209.272C126.126 210.127 125.335 210.792 124.385 211.235C123.435 211.742 122.421 211.964 121.345 211.964ZM122.421 209.208C123.055 209.208 123.656 209.082 124.258 208.86C124.828 208.638 125.271 208.322 125.588 207.942C126 207.625 126.221 207.277 126.221 206.865V205.155C125.778 204.996 125.271 204.838 124.765 204.743C124.226 204.648 123.72 204.585 123.245 204.585C122.263 204.585 121.471 204.806 120.838 205.25C120.205 205.693 119.92 206.263 119.92 206.928C119.92 207.562 120.173 208.1 120.648 208.512C121.123 208.987 121.725 209.208 122.421 209.208Z" fill="#4BADCC"/>
<path d="M133.505 191.062H137.305V206.928C137.305 207.467 137.431 207.91 137.685 208.195C137.938 208.512 138.318 208.638 138.825 208.638C139.046 208.638 139.3 208.607 139.585 208.512C139.87 208.448 140.123 208.353 140.376 208.227L140.883 211.109C140.376 211.362 139.775 211.552 139.11 211.679C138.445 211.805 137.811 211.869 137.273 211.869C136.101 211.869 135.183 211.552 134.518 210.919C133.853 210.285 133.536 209.398 133.536 208.227V191.062H133.505Z" fill="#4BADCC"/>
<path d="M149.338 211.963C148.166 211.963 147.089 211.773 146.108 211.362C145.158 210.95 144.334 210.412 143.638 209.715C142.973 209.018 142.435 208.195 142.086 207.276C141.706 206.358 141.548 205.376 141.548 204.363C141.548 203.318 141.738 202.304 142.086 201.386C142.435 200.467 142.973 199.644 143.638 198.916C144.303 198.219 145.126 197.649 146.108 197.237C147.089 196.825 148.166 196.604 149.369 196.604C150.573 196.604 151.649 196.825 152.599 197.237C153.549 197.649 154.373 198.219 155.038 198.916C155.703 199.612 156.209 200.436 156.558 201.354C156.906 202.273 157.096 203.223 157.096 204.236C157.096 204.489 157.096 204.711 157.096 204.933C157.096 205.155 157.064 205.345 157.033 205.503H145.601C145.664 206.073 145.791 206.611 146.013 207.055C146.234 207.498 146.519 207.878 146.899 208.226C147.248 208.543 147.659 208.796 148.103 208.955C148.546 209.113 149.021 209.208 149.528 209.208C150.288 209.208 150.984 209.018 151.649 208.67C152.314 208.29 152.789 207.815 153.011 207.213L156.273 208.131C155.734 209.272 154.848 210.19 153.676 210.918C152.441 211.615 150.984 211.963 149.338 211.963ZM153.169 203.033C153.074 201.924 152.663 201.037 151.934 200.372C151.206 199.707 150.319 199.359 149.306 199.359C148.799 199.359 148.324 199.454 147.881 199.612C147.438 199.802 147.058 200.056 146.709 200.372C146.361 200.689 146.108 201.069 145.886 201.544C145.664 201.988 145.538 202.494 145.506 203.033H153.169Z" fill="#365DC0"/>
<path opacity="0.95" d="M333.002 290.251H210.992C204.215 290.251 198.737 284.772 198.737 277.994V155.972C198.737 149.195 204.215 143.716 210.992 143.716H333.002C339.778 143.716 345.256 149.195 345.256 155.972V277.994C345.256 284.772 339.778 290.251 333.002 290.251Z" fill="#DCE6FF"/>
<path d="M247.313 224.505H237.37V214.561H239.206V222.668H247.313V224.505Z" fill="#6791FB"/>
<path d="M306.624 224.505H296.649V222.668H304.787V214.561H306.624V224.505Z" fill="#6791FB"/>
<path d="M239.206 165.188H237.37V155.244H247.313V157.08H239.206V165.188Z" fill="#6791FB"/>
<path d="M306.624 165.188H304.787V157.08H296.649V155.244H306.624V165.188Z" fill="#6791FB"/>
<path d="M297.219 215.131H246.743V164.618H297.219V215.131ZM251.461 210.412H292.564V169.337H251.461V210.412Z" fill="#6791FB"/>
<path d="M291.329 175.734H252.601V181.624H291.329V175.734Z" fill="#6791FB"/>
<path d="M307.479 272.769C298.58 272.769 291.329 265.517 291.329 256.617C291.329 247.718 298.58 240.466 307.479 240.466C316.377 240.466 323.628 247.718 323.628 256.617C323.628 265.517 316.409 272.769 307.479 272.769ZM307.479 243.57C300.29 243.57 294.464 249.397 294.464 256.586C294.464 263.775 300.29 269.602 307.479 269.602C314.667 269.602 320.493 263.775 320.493 256.586C320.525 249.429 314.667 243.57 307.479 243.57Z" fill="#6791FB"/>
<path d="M306.465 262.951L299.119 255.636L301.335 253.419L306.465 258.549L313.654 251.36L315.87 253.577L306.465 262.951Z" fill="#6791FB"/>
<path d="M276.921 230.173H267.009V232.01H276.921V230.173Z" fill="#6791FB"/>
<path d="M277.902 250.569H220.302V254.116H277.902V250.569Z" fill="#365DC0"/>
<path d="M247.63 259.088H220.302V262.635H247.63V259.088Z" fill="#365DC0"/>
<path d="M559.94 295.525C559.94 295.525 561.713 292.231 561.998 291.724C562.283 291.218 563.708 290.521 565.45 289.856C567.16 289.191 569.788 289.064 570.042 289.254C570.295 289.444 570.643 289.507 570.928 290.268C571.213 291.028 571.023 291.851 571.023 291.851C571.023 291.851 571.815 292.643 571.498 293.593C571.498 293.593 572.195 294.353 571.688 295.398C571.688 295.398 572.353 296.158 571.91 296.887C571.91 296.887 570.485 297.583 570.01 298.027C569.567 298.438 566.463 299.705 563.297 300.465C563.297 300.465 560.067 300.18 559.94 295.525Z" fill="#EEA886"/>
<path d="M565.102 294.163C565.102 294.163 564.943 296.031 564.627 296.538C564.31 297.045 568.237 298.66 568.237 298.66C568.237 298.66 567.382 294.416 565.102 294.163Z" fill="#CF8C6C"/>
<path d="M568.205 298.882C568.078 298.945 567.92 299.008 567.762 299.04C567.698 299.072 567.603 299.103 567.54 299.135C567.477 299.167 567.382 299.198 567.287 299.23C567.413 299.61 567.508 299.958 567.603 300.275L568.617 300.243C568.522 299.895 568.363 299.42 568.205 298.882ZM567.445 296.38C567.54 296.601 567.667 296.855 567.73 297.076C567.762 297.14 567.762 297.203 567.793 297.235C567.825 297.298 567.825 297.362 567.857 297.425C567.635 296.316 567.508 295.081 567.635 293.846C567.635 293.878 567.603 293.91 567.603 293.941C567.603 293.941 567.603 293.973 567.572 293.973C567.572 293.973 567.572 294.005 567.54 294.005C567.54 294.005 567.54 294.036 567.508 294.036L567.477 294.068C567.413 294.131 567.35 294.195 567.255 294.226L567.223 294.258C567.16 294.29 567.065 294.353 566.97 294.385C566.938 294.385 566.938 294.416 566.907 294.416C566.875 294.416 566.843 294.416 566.843 294.448C566.812 294.448 566.812 294.448 566.78 294.48C566.748 294.48 566.717 294.511 566.685 294.511C566.685 294.701 566.685 294.923 566.685 295.113C566.685 295.113 566.685 295.113 566.717 295.145C566.748 295.176 566.78 295.208 566.812 295.24C566.843 295.271 566.875 295.303 566.907 295.335C566.938 295.398 566.97 295.43 567.033 295.493C567.065 295.525 567.097 295.588 567.128 295.62V295.651C567.16 295.683 567.192 295.746 567.223 295.778C567.318 295.936 567.382 296.063 567.477 296.221C567.382 296.253 567.413 296.316 567.445 296.38ZM587.965 299.958L587.933 299.705L587.68 298.185C587.68 298.122 587.3 296.253 586.255 294.036C585.305 291.946 583.595 289.127 580.871 287.576C579.098 286.562 577.103 286.151 574.95 286.404C574.032 286.499 573.113 286.721 572.132 287.037C571.055 287.386 570.137 287.892 569.377 288.494C569.092 288.716 568.838 288.969 568.617 289.222C568.332 289.539 568.078 289.856 567.857 290.204C567.667 290.521 567.477 290.838 567.35 291.186C567.128 291.693 566.97 292.199 566.875 292.738C566.748 293.308 566.685 293.91 566.685 294.511C566.685 294.701 566.685 294.923 566.685 295.113C566.685 295.778 566.748 296.443 566.875 297.076C566.938 297.457 567.002 297.837 567.097 298.185C567.192 298.565 567.287 298.945 567.382 299.293C567.508 299.673 567.603 300.022 567.698 300.338C567.698 300.37 567.698 300.37 567.73 300.402C567.888 300.877 568.047 301.225 568.11 301.415C568.142 301.51 568.173 301.542 568.173 301.574L568.332 301.89L578.243 301.669L588.25 301.447L587.965 299.958ZM586.223 300.908L582.455 300.877L568.87 300.75C568.838 300.623 568.775 300.497 568.712 300.307C568.712 300.275 568.68 300.243 568.68 300.212C568.553 299.863 568.395 299.388 568.237 298.85C568.205 298.755 568.173 298.692 568.173 298.597C568.11 298.407 568.078 298.217 568.015 298.027C567.952 297.805 567.92 297.583 567.888 297.362C567.667 296.253 567.54 295.018 567.667 293.783C567.667 293.688 567.698 293.625 567.698 293.53C567.793 292.833 567.952 292.136 568.237 291.503C568.617 290.616 569.187 289.856 569.947 289.222C569.978 289.191 570.01 289.191 570.01 289.159C570.675 288.621 571.498 288.177 572.448 287.861C573.208 287.607 573.937 287.417 574.665 287.322C576.787 287.006 578.687 287.322 580.396 288.304C581.03 288.684 581.631 289.159 582.201 289.729C584.83 292.389 586.666 296.823 587.236 299.642C587.268 299.768 587.268 299.895 587.3 299.99C587.363 300.307 587.395 300.592 587.395 300.877L586.223 300.908ZM567.635 293.815C567.635 293.846 567.603 293.878 567.603 293.91C567.603 293.91 567.603 293.941 567.572 293.941C567.572 293.941 567.572 293.973 567.54 293.973C567.54 293.973 567.54 294.005 567.508 294.005L567.477 294.036C567.413 294.1 567.35 294.163 567.255 294.195L567.223 294.226C567.16 294.258 567.065 294.321 566.97 294.353C566.938 294.353 566.938 294.385 566.907 294.385C566.875 294.385 566.843 294.385 566.843 294.416C566.812 294.416 566.812 294.416 566.78 294.448C566.748 294.448 566.717 294.48 566.685 294.48C566.685 294.67 566.685 294.891 566.685 295.081C566.685 295.081 566.685 295.081 566.717 295.113C566.748 295.145 566.78 295.176 566.812 295.208C566.843 295.24 566.875 295.271 566.907 295.303C566.938 295.366 566.97 295.398 567.033 295.461C567.065 295.493 567.097 295.556 567.128 295.588V295.62C567.16 295.651 567.192 295.715 567.223 295.746C567.318 295.905 567.382 296.031 567.477 296.19C567.508 296.253 567.54 296.285 567.54 296.348C567.635 296.57 567.762 296.823 567.825 297.045C567.857 297.108 567.857 297.171 567.888 297.203C567.92 297.267 567.92 297.33 567.952 297.393C567.635 296.285 567.54 295.05 567.635 293.815ZM568.205 298.882C568.078 298.945 567.92 299.008 567.762 299.04C567.698 299.072 567.603 299.103 567.54 299.135C567.477 299.167 567.382 299.198 567.287 299.23C567.413 299.61 567.508 299.958 567.603 300.275L568.617 300.243C568.522 299.895 568.363 299.42 568.205 298.882Z" fill="#23344A"/>
<path d="M610.004 342.459L563.075 348.571L555.095 305.564L604.178 297.171L610.004 342.459Z" fill="#EB4747"/>
<path d="M586.223 300.908V300.845C586.223 300.813 586.223 300.592 586.191 300.243C586.191 300.085 586.16 299.926 586.128 299.736C586.033 298.913 585.843 297.678 585.463 296.285C584.956 294.353 583.975 291.819 582.201 289.792C581.822 289.381 581.441 288.969 580.998 288.62C579.32 287.227 577.293 286.499 574.95 286.372C574 286.34 573.018 286.404 571.973 286.562C569.662 286.942 567.888 287.924 566.653 289.507C566.495 289.697 566.368 289.887 566.242 290.077C565.83 290.742 565.482 291.439 565.26 292.199C565.038 292.896 564.88 293.593 564.817 294.289C564.817 294.416 564.785 294.511 564.785 294.638C564.785 294.764 564.753 294.891 564.753 294.986C564.722 295.461 564.69 295.936 564.722 296.38C564.722 296.538 564.722 296.696 564.722 296.823C564.753 298.121 564.943 299.23 565.07 299.99C565.102 300.116 565.133 300.243 565.133 300.37C565.197 300.718 565.26 300.94 565.292 301.003L565.387 301.383H568.047L579.573 301.415H586.223V300.908ZM567.667 300.338H566.178C566.147 300.18 566.083 299.958 566.052 299.705C565.957 299.135 565.83 298.406 565.767 297.551C565.735 297.013 565.703 296.443 565.735 295.841C565.735 295.429 565.767 295.018 565.83 294.606C565.83 294.543 565.83 294.479 565.862 294.448C565.925 293.941 566.02 293.403 566.147 292.896C566.147 292.864 566.147 292.833 566.178 292.833C566.21 292.738 566.242 292.611 566.273 292.516C566.495 291.851 566.748 291.217 567.128 290.647C567.128 290.616 567.16 290.616 567.16 290.584C567.477 290.077 567.888 289.634 568.332 289.254C568.648 288.969 569.028 288.715 569.408 288.494C570.2 288.05 571.118 287.734 572.163 287.575C573.05 287.449 573.873 287.385 574.665 287.385C576.882 287.449 578.782 288.114 580.333 289.412C583.816 292.294 584.83 297.488 585.115 299.8C585.146 300.021 585.178 300.243 585.178 300.402L568.712 300.37L567.667 300.338Z" fill="#23344A"/>
<path d="M602.753 349.331L547.97 345.119L552.372 300.718L603.291 299.23L602.753 349.331Z" fill="#FAA146"/>
<path d="M449.742 324.755C449.742 324.755 450.185 321.018 450.248 320.448C450.312 319.878 449.52 318.485 448.507 316.933C447.494 315.413 445.404 313.798 445.087 313.798C444.77 313.798 444.454 313.639 443.789 314.114C443.124 314.59 442.807 315.35 442.807 315.35C442.807 315.35 441.699 315.54 441.414 316.521C441.414 316.521 440.4 316.743 440.21 317.915C440.21 317.915 439.229 318.168 439.165 319.023C439.165 319.023 439.925 320.417 440.084 321.018C440.21 321.62 442.015 324.439 444.169 326.877C444.137 326.909 446.955 328.524 449.742 324.755Z" fill="#EEA886"/>
<path d="M453.478 319.34C452.338 318.01 450.818 317.187 448.95 316.902C448.507 316.838 448.064 316.807 447.589 316.775C447.24 316.775 446.924 316.775 446.575 316.775C444.549 316.87 442.775 317.377 441.287 318.295C440.559 318.738 439.925 319.277 439.355 319.91C437.202 322.254 436.41 325.484 436.125 327.764C435.935 329.316 435.935 330.678 435.967 331.438C435.999 331.881 435.999 332.166 436.03 332.198L436.094 332.705L453.32 330.266L455.79 329.918L455.853 329.538C455.853 329.474 455.917 329.158 455.917 328.619C455.98 327.226 455.98 324.502 455.03 322.032C454.682 321.082 454.175 320.164 453.478 319.34ZM454.935 328.778C454.935 328.873 454.935 328.968 454.903 329.063L451.42 329.569L436.949 331.628C436.949 331.533 436.949 331.438 436.949 331.343C436.885 329.348 437.012 323.932 440.084 320.607C440.274 320.417 440.464 320.195 440.685 320.037C442.395 318.517 444.644 317.757 447.43 317.788C447.494 317.788 447.525 317.788 447.589 317.788C448.729 317.82 449.742 318.01 450.597 318.422C451.42 318.802 452.148 319.308 452.75 320.005C453.162 320.48 453.478 320.987 453.763 321.525C455.062 324.122 454.998 327.384 454.935 328.778Z" fill="#23344A"/>
<path d="M415.067 380.525L418.646 334.288L426.689 379.892L421.116 378.942L415.067 380.525Z" fill="#BA3838"/>
<path d="M426.689 379.892L474.346 371.531L466.525 327.131L418.519 333.94L426.689 379.892Z" fill="#E64646"/>
<path d="M478.621 340.337C478.558 340.083 478.495 339.862 478.431 339.608C478.115 338.69 477.608 337.898 476.911 337.233C476.31 336.663 475.581 336.22 474.726 335.84C473.935 335.523 473.175 335.27 472.447 335.143C471.845 335.016 471.243 334.985 470.642 334.985C469.533 335.016 468.457 335.27 467.443 335.745C467.158 335.871 466.905 336.03 466.62 336.188C464.752 337.36 463.453 339.197 462.63 340.653C462.598 340.685 462.598 340.717 462.567 340.748C462.155 341.509 461.838 342.205 461.617 342.775C461.3 343.567 461.142 344.105 461.142 344.137L460.762 345.594L460.698 345.816L460.635 346.101L460.477 346.766L466.525 347.367L468.773 347.589L472.731 347.969L476.975 348.381L477.133 348.127C477.133 348.127 477.165 348.064 477.196 348.001C477.26 347.874 477.355 347.716 477.45 347.462C477.481 347.367 477.545 347.272 477.576 347.177C478.21 345.752 479.191 342.934 478.621 340.337ZM476.721 347.114C476.69 347.209 476.626 347.304 476.595 347.367C476.595 347.399 476.563 347.431 476.563 347.462L473.745 347.272L465.67 346.734L465.29 346.702L462.155 346.481L461.173 346.417C461.173 346.322 461.205 346.227 461.237 346.132C461.237 346.069 461.268 345.974 461.268 345.911C461.268 345.847 461.3 345.784 461.332 345.689C461.49 344.992 461.775 344.169 462.187 343.282C463.073 341.255 464.498 338.975 466.208 337.487C466.272 337.455 466.303 337.391 466.367 337.36C466.747 337.043 467.158 336.758 467.57 336.536C467.665 336.505 467.728 336.441 467.823 336.41C468.52 336.061 469.248 335.871 470.04 335.776C470.072 335.776 470.072 335.776 470.103 335.776C470.927 335.681 471.75 335.745 472.637 335.966C473.238 336.093 473.84 336.283 474.441 336.568C476.12 337.265 477.228 338.373 477.735 339.83C477.925 340.432 478.02 341.033 478.051 341.635C478.083 343.884 477.196 346.101 476.721 347.114Z" fill="#23344A"/>
<path d="M442.554 381.665L481.598 386.764L488.248 350.946L447.43 343.979L442.554 381.665Z" fill="#EB4747"/>
<path d="M434.605 380.525L447.399 344.01L442.554 381.444L438.405 379.892L434.605 380.525Z" fill="#AD3434"/>
<path d="M478.938 337.835L478.906 337.803C477.893 336.22 476.278 335.27 474.157 334.921C473.302 334.795 472.478 334.731 471.687 334.763C470.99 334.795 470.357 334.89 469.723 335.048C469.502 335.111 469.28 335.175 469.058 335.27C468.868 335.333 468.71 335.396 468.52 335.491C468.52 335.491 468.52 335.491 468.488 335.491C467.887 335.776 467.285 336.125 466.778 336.536C466.747 336.568 466.715 336.6 466.683 336.631C466.303 336.948 465.955 337.265 465.638 337.645C465.512 337.803 465.385 337.962 465.258 338.12C464.91 338.595 464.593 339.07 464.308 339.545C463.643 340.748 463.232 341.984 462.947 342.997C462.82 343.409 462.725 343.82 462.662 344.2C462.598 344.485 462.535 344.77 462.503 345.056C462.408 345.562 462.377 346.006 462.345 346.322C462.345 346.417 462.313 346.512 462.313 346.607C462.313 346.734 462.313 346.829 462.313 346.829V346.892V347.272H466.493H467.823H473.397H477.418H479.635L479.73 346.956C479.73 346.924 479.761 346.861 479.793 346.702C480.078 345.594 480.996 341.033 478.938 337.835ZM467.222 337.297C467.602 336.98 467.982 336.726 468.393 336.505L468.425 336.473C469.47 335.935 470.642 335.65 471.94 335.618C472.605 335.586 473.302 335.65 474.03 335.776C474.885 335.903 475.677 336.188 476.342 336.536C477.133 336.98 477.735 337.55 478.241 338.31C478.368 338.468 478.463 338.658 478.558 338.848C479.951 341.604 479.255 345.341 479.033 346.417H477.798H476.943H474.378L465.29 346.449H463.295H463.232C463.263 346.101 463.327 345.531 463.453 344.866C463.802 342.712 464.783 339.292 467.222 337.297Z" fill="#23344A"/>
<path d="M438.405 386.004L447.082 346.512L448.57 387.176L443.852 385.371L438.405 386.004Z" fill="#B06E2A"/>
<path d="M444.137 326.909C444.137 326.909 447.05 329.506 448.57 329.538C450.09 329.569 450.85 325.452 450.85 325.452L449.552 322.919L444.137 326.909Z" fill="#EEA886"/>
<path d="M557.945 297.868C557.945 297.868 559.402 296.475 560.067 295.303C560.7 294.099 563.613 300.402 563.613 300.402C563.613 300.402 559.972 300.56 558.389 301.668C556.805 302.809 557.945 297.868 557.945 297.868Z" fill="#EEA886"/>
<path d="M569.598 289.381C569.598 289.381 565.292 291.186 565.482 291.914C565.672 292.642 566.21 292.801 566.21 292.801L564.753 294.353C564.753 294.353 564.373 295.904 566.178 295.873C566.178 295.873 565.672 297.298 567.413 297.045C567.413 297.045 567.508 298.121 568.332 298.153C569.155 298.185 571.878 296.918 571.878 296.918C571.878 296.918 572.385 296.379 571.72 295.429C571.72 295.429 572.258 294.448 571.53 293.624C571.53 293.624 571.942 292.706 571.055 291.851C571.055 291.851 571.593 289.919 570.042 289.286C570.042 289.222 569.757 289.317 569.598 289.381Z" fill="#DB9C7C"/>
<path d="M562.125 291.629C562.125 291.629 565.323 291.883 567.002 292.801C567.382 292.991 567.73 293.276 567.667 293.72C567.635 294.163 566.938 294.638 565.545 294.575C564.152 294.543 562.347 295.113 562.347 295.113C562.347 295.113 560.922 294.67 562.125 291.629Z" fill="#EEA886"/>
<path d="M446.29 320.702C446.29 320.702 445.34 322.349 445.309 322.919C445.277 323.52 441.129 322.57 441.129 322.57C441.129 322.57 444.264 319.625 446.29 320.702Z" fill="#CF8C6C"/>
<path d="M445.34 314.21C445.34 314.21 447.842 318.168 447.272 318.643C446.67 319.119 446.164 318.96 446.164 318.96L446.449 321.05C446.449 321.05 445.847 322.539 444.39 321.462C444.39 321.462 443.979 322.919 442.712 321.715C442.712 321.715 442.015 322.571 441.319 322.095C440.622 321.652 439.134 319.024 439.134 319.024C439.134 319.024 439.039 318.295 440.147 317.883C440.147 317.883 440.242 316.775 441.35 316.49C441.35 316.49 441.54 315.603 442.744 315.318C442.744 315.318 443.409 313.418 445.055 313.798C445.055 313.83 445.245 314.051 445.34 314.21Z" fill="#DB9C7C"/>
<path d="M450.154 320.353C450.154 320.353 447.399 318.738 445.499 318.485C445.055 318.422 444.644 318.453 444.422 318.833C444.2 319.213 444.485 320.005 445.657 320.765C446.829 321.525 447.969 323.045 447.969 323.045C447.969 323.045 449.425 323.489 450.154 320.353Z" fill="#EEA886"/>
<path d="M501.453 492.984C499.204 493.649 498.539 497.449 496.639 498.589C494.739 499.697 485.461 500.489 485.113 497.576C484.765 494.662 489.008 492.065 490.908 490.608C492.808 489.152 497.083 484.37 497.938 482.469C497.938 482.469 498.698 483.673 500.978 483.293C503.258 482.913 503.638 482.311 503.638 482.311C503.543 484.56 504.334 486.143 504.556 487.03C505.379 490.102 503.701 492.319 501.453 492.984Z" fill="#FAA146"/>
<path d="M516.621 493.522C514.911 495.105 514.562 497.607 512.663 498.716C512.124 499.032 511.016 499.349 509.749 499.602C507.438 500.014 504.493 500.109 503.036 499.254C502.561 498.969 502.244 498.589 502.181 498.051C501.833 495.137 506.139 491.875 508.039 490.418C509.211 489.532 510.414 487.441 511.396 485.541C511.998 484.338 512.504 483.229 512.853 482.501C512.853 482.501 512.948 482.723 513.232 482.913C513.612 483.198 514.373 483.483 515.671 483.261C517.507 482.976 518.204 482.469 518.394 482.311L518.426 482.279L518.457 482.248C518.837 484.053 519.407 485.921 519.661 486.808C520.452 489.785 518.267 492.033 516.621 493.522Z" fill="#FAA146"/>
<path d="M500.218 264.013C500.218 264.013 507.469 263.253 510.098 270.252C512.726 277.251 515.164 279.563 515.481 283.237C516.716 298.121 523.682 294.764 521.719 303.347C519.756 311.929 518.394 313.228 518.394 313.228L501.769 309.966L484.923 310.029C484.923 310.029 491.51 306.736 490.053 299.737C488.596 292.738 484.923 281.242 486.981 273.388C489.071 265.597 495.88 264.615 500.218 264.013Z" fill="#223247"/>
<path d="M448.57 387.176L490.718 385.688L491.478 346.323H447.145L448.57 387.176Z" fill="#FAA146"/>
<path d="M621.056 339.292L604.178 297.171L610.004 342.459L614.913 339.577L621.056 339.292Z" fill="#AD3434"/>
<path d="M614.976 347.938L603.291 299.23L602.753 349.331L608.453 347.146L614.976 347.938Z" fill="#B06E2A"/>
<path d="M488.216 364.026C488.216 364.026 482.105 385.339 481.028 390.786C479.951 396.233 476.975 422.582 476.658 427.079C476.341 431.577 486.633 452.573 487.203 454.093C489.388 459.952 498.286 481.234 498.286 481.234C498.286 481.234 504.018 484.655 503.384 479.651C501.421 464.449 500.503 460.712 499.141 452.827C496.133 435.567 489.958 433.287 490.908 430.785C500.471 405.323 502.403 388.031 503.701 386.543C504.968 385.054 505.158 387.303 505.918 390.628C506.678 393.922 505.601 416.724 506.963 425.496C507.691 430.278 509.338 441.014 509.876 447.19C510.414 453.365 513.201 482.026 513.201 482.026C513.201 482.026 513.581 483.103 517.824 480.728C518.521 480.347 521.909 455.424 522.036 448.045C522.131 440.666 518.901 439.621 521.497 425.369C527.102 394.808 526.311 389.551 519.787 367.573C503.828 313.83 488.216 364.026 488.216 364.026Z" fill="#EEA886"/>
<path d="M562.853 301.573C562.6 301.32 547.084 313.196 545.374 314.178C542.049 316.11 538.407 316.015 534.639 316.236C530.427 316.49 525.614 316.046 521.466 316.87C519.312 317.313 519.059 317.852 517.951 320.163C514.911 326.371 513.929 334.13 513.518 340.97C513.106 348.096 515.829 353.068 518.711 359.339C519.692 361.492 521.054 363.677 519.186 365.641C517.476 367.383 514.151 367.763 511.903 368.048C506.393 368.776 497.969 369.219 492.681 367.034C486.19 364.374 487.361 356.203 486.665 350.503C486.19 346.702 484.353 340.97 483.308 337.297C482.263 333.655 482.168 332.134 482.358 328.239C480.331 333.971 478.621 343.789 473.206 347.431C468.995 350.249 465.227 346.481 462.218 343.852C456.487 338.848 450.755 333.876 444.992 328.873C446.227 327.732 447.43 326.624 448.665 325.484C449.077 325.104 449.077 325.009 449.552 324.661C450.628 323.805 450.502 323.489 451.61 324.249C452.338 324.756 454.333 326.592 454.967 327.194C457.057 329.126 458.862 330.298 460.952 332.23C462.757 333.908 465.86 337.803 468.615 336.442C470.736 335.396 471.338 331.058 472.066 329.126C474.093 323.742 476.151 318.327 478.59 313.101C481.186 307.527 486.95 304.55 492.523 302.334C497.336 300.402 503.828 300.782 508.704 302.049C512.156 302.935 513.359 302.967 516.779 303.917C520.041 304.835 523.112 305.976 526.406 306.672C530.269 307.464 534.227 307.749 538.154 307.812C541.257 307.844 542.524 307.337 545.152 305.532C548.667 303.094 553.797 298.882 557.629 296.95C560.13 295.588 560.985 299.642 562.853 301.573Z" fill="#F0DDD5"/>
<path d="M505.221 293.149C505.221 293.149 504.651 300.402 506.044 302.555C507.438 304.74 504.841 307.686 499.521 306.672C494.17 305.659 494.486 302.65 494.486 302.65C494.486 302.65 495.974 298.185 495.531 294.606C495.12 291.028 505.221 293.149 505.221 293.149Z" fill="#EEA886"/>
<path d="M508.704 301.954C508.704 301.954 503.891 313.196 497.653 315.54C497.653 315.54 491.509 310.093 493.156 301.985C493.156 302.017 501.104 297.963 508.704 301.954Z" fill="#EEA886"/>
<path d="M501.168 268.131C501.168 268.131 510.794 269.524 509.369 283.712C507.976 297.9 499.489 296.792 498.919 296.76C498.349 296.76 490.401 297.045 489.705 279.722C489.705 279.753 489.388 266.927 501.168 268.131Z" fill="#EEA886"/>
<path d="M500.059 273.261C500.059 273.261 504.556 277.98 506.646 280.386C508.736 282.793 508.958 287.385 508.958 287.385C508.958 287.385 512.473 283.078 511.016 278.075C509.559 273.071 506.076 263.348 497.273 266.325C488.47 269.302 488.153 282.477 489.166 289.001C489.166 289.032 493.124 274.623 500.059 273.261Z" fill="#223247"/>
<path d="M496.386 296.19C496.386 296.19 500.503 298.248 504.651 294.986C504.651 294.986 503.068 297.646 500.249 297.805C497.463 297.931 496.386 296.19 496.386 296.19Z" fill="#A77860"/>
<path d="M469.755 335.048C469.343 335.935 468.615 336.378 468.615 336.378C464.213 338.753 463.453 344.359 463.295 346.322H462.377C463.137 335.998 469.755 335.048 469.755 335.048Z" fill="#23344A"/>
<path d="M469.692 335.111C469.692 335.111 462.598 335.46 460.603 346.227L461.332 346.354C461.332 346.354 462.725 338.405 468.393 336.283C468.393 336.283 469.185 335.935 469.692 335.111Z" fill="#23344A"/>
<path d="M519.946 362.189C519.946 362.189 529.667 382.299 523.112 423.121C523.112 423.121 503.321 421.252 473.618 419.131C473.618 419.131 487.14 364.247 487.52 360.764C487.9 357.248 519.946 362.189 519.946 362.189Z" fill="#F0DDD5"/>
<path d="M498.128 480.823C498.128 480.823 500.914 482.659 503.479 480.221L503.669 482.374C503.669 482.374 499.299 486.301 498.128 482.089V480.823Z" fill="#EEA886"/>
<path d="M513.993 480.474C513.993 480.474 515.639 481.963 518.141 479.746L518.457 482.248C518.457 482.248 514.183 486.618 513.043 482.374L513.993 480.474Z" fill="#EEA886"/>
<path d="M498.128 482.058C498.128 482.058 495.848 484.781 496.069 485.225C496.291 485.668 501.263 486.681 502.023 485.605C502.783 484.528 503.669 482.343 503.669 482.343C503.669 482.343 499.299 484.274 498.128 482.058Z" fill="#DB8D3D"/>
<path d="M513.201 481.994C513.201 481.994 511.079 485.003 511.301 485.446C511.523 485.889 515.924 486.618 516.684 485.541C517.444 484.464 518.489 482.216 518.489 482.216C518.489 482.216 514.373 484.211 513.201 481.994Z" fill="#DB8D3D"/>
<path d="M487.235 357.85C487.235 357.85 498.888 362.189 515.734 352.656C515.734 352.656 516.399 354.018 517.159 355.918C517.159 355.918 501.801 365.387 487.52 360.764C487.52 360.764 487.013 358.578 487.235 357.85Z" fill="#FF4D4D"/>
<path d="M483.846 318.422C482.516 321.905 482.358 328.207 482.358 328.207C482.358 328.207 481.915 329.854 481.218 331.818C481.028 322.475 483.846 318.422 483.846 318.422Z" fill="#B0A39C"/>
<path d="M223.405 337.311L244.811 349.092L266.281 315.269L240.283 306.244L223.405 337.311Z" fill="#292C47"/>
<path d="M224.767 336.298L244.78 347.319L264.856 315.681L240.568 307.225L224.767 336.298Z" fill="white"/>
<path d="M217.42 330.376C217.42 330.376 221.157 328.602 222.772 327.652C224.418 326.734 228.598 325.436 228.947 325.15C229.295 324.834 241.423 324.105 242.151 323.472C242.88 322.839 243.608 324.961 240.473 325.657C237.338 326.354 232.968 328.032 232.715 329.268C232.461 330.503 235.945 330.788 236.293 331.801C236.641 332.814 236.198 332.593 235.691 332.815C235.185 333.036 231.575 331.009 229.96 331.579C228.377 332.149 225.938 331.358 224.703 331.769C223.468 332.181 217.547 334.176 217.547 334.176L217.42 330.376Z" fill="#EEA886"/>
<path d="M245.856 344.849C245.856 344.849 248.991 342.03 250.511 340.858C252.031 339.687 254.881 336.203 255.293 336.013C255.704 335.823 261.151 324.675 262.038 324.232C262.924 323.788 261.214 322.3 259.314 324.992C257.446 327.684 254.153 331.167 252.886 330.914C251.619 330.661 252.696 327.272 251.904 326.544C251.081 325.815 251.113 326.322 250.733 326.702C250.321 327.082 250.828 331.294 249.656 332.561C248.485 333.828 248.295 336.456 247.408 337.438C246.553 338.42 242.341 343.265 242.341 343.265L245.856 344.849Z" fill="#EEA886"/>
<path d="M178.439 495.405C178.439 495.405 177.774 500.092 177.679 500.821C177.584 501.517 170.142 500.409 170.142 500.409L169.541 494.803C169.541 494.803 177.521 494.772 178.439 495.405Z" fill="#424773"/>
<path d="M177.742 500.219C177.742 500.219 180.117 503.038 182.397 504.273C184.677 505.508 188.256 505.983 189.617 507.281C190.599 508.2 193.164 512.158 183.696 512.095C174.227 512 169.636 512.665 168.622 511.145C167.609 509.625 170.079 499.902 170.079 499.902C170.079 499.902 172.327 500.726 177.742 500.219Z" fill="#292C47"/>
<path d="M231.797 495.405C231.797 495.405 231.132 500.092 231.037 500.821C230.942 501.517 223.5 500.409 223.5 500.409L222.898 494.803C222.898 494.803 230.878 494.772 231.797 495.405Z" fill="#424773"/>
<path d="M231.1 500.219C231.1 500.219 233.475 503.038 235.755 504.273C238.035 505.508 246.426 506.521 247.788 507.788C248.77 508.707 250.385 512.412 237.053 512.064C227.585 511.81 222.993 512.634 221.98 511.114C220.967 509.593 223.437 499.871 223.437 499.871C223.437 499.871 225.558 500.758 231.1 500.219Z" fill="#292C47"/>
<path d="M184.614 374.65C184.614 374.65 177.616 385.766 178.154 395.805C178.661 405.844 175.621 416.833 174.576 427.316C173.404 439.034 168.622 466.713 168.432 472.983C168.274 479.254 169.192 499.237 169.192 499.237L178.787 499.459C178.787 499.459 186.862 451.005 188.952 446.064C191.042 441.124 201.397 405.876 201.745 401.917C202.03 398.022 184.614 374.65 184.614 374.65Z" fill="#292C47"/>
<path d="M221.442 376.17C221.442 376.17 226.73 403.722 227.395 409.866C228.092 416.01 228.567 439.635 228.915 443.467C229.263 447.299 231.227 493.758 233.095 499.491H220.808C220.808 499.491 211.404 465.699 211.404 449.738C211.404 433.745 204.12 414.997 199.434 404.451C194.747 393.905 183.981 393.651 181.099 374.08C181.099 374.08 217.515 369.963 221.442 376.17Z" fill="#292C47"/>
<path d="M196.267 281.193C196.267 281.193 205.672 277.678 209.978 284.835C214.317 291.993 213.905 306.307 209.155 308.049C204.437 309.822 197.312 308.904 194.874 304.407C192.435 299.942 190.25 293.481 190.377 289.142C190.504 284.835 193.829 282.428 196.267 281.193Z" fill="#EEA886"/>
<path d="M208.173 308.365C208.173 308.365 207.793 310.899 208.427 312.166C209.06 313.401 196.267 313.433 196.267 313.433C196.267 313.433 195.222 306.624 193.259 300.891C191.264 295.159 208.173 308.365 208.173 308.365Z" fill="#EEA886"/>
<path d="M193.227 300.923C193.227 300.923 194.114 302.38 197.724 301.81C201.334 301.24 205.735 296.426 207.255 295.919C208.775 295.381 208.775 294.494 208.775 294.494L209.725 295.888L211.34 295.983C211.34 295.983 209.884 291.676 212.068 289.934C214.285 288.192 209.789 276.031 198.199 280.085C198.199 280.085 189.3 282.523 189.617 287.59C189.965 292.626 191.264 298.39 193.227 300.923Z" fill="#3A3F47"/>
<path d="M209.187 312.008C209.187 312.008 209.155 309.632 208.079 309.379C207.002 309.157 196.14 308.112 194.81 308.619V311.406C194.779 311.438 197.344 312.989 209.187 312.008Z" fill="#E2D2CA"/>
<path d="M208.553 292.657C208.364 291.802 206.179 289.395 205.355 291.992C204.532 294.589 206.59 298.073 207.762 297.788C208.902 297.471 209.06 294.811 208.553 292.657Z" fill="#EEA886"/>
<path d="M252.285 340.225C252.285 340.225 252.253 340.225 252.285 340.225C252.348 340.257 252.348 340.257 252.285 340.225Z" fill="#323657"/>
<path d="M176.697 401.157C176.697 401.157 182.461 402.867 192.277 403.944C202.094 405.021 226.635 403.564 226.793 402.392C226.952 401.22 221.505 359.195 221.822 357.01C222.138 354.856 222.297 347.129 222.297 347.129C222.423 349.251 224.577 357.865 227.173 362.584C228.123 364.294 231.258 369.614 232.778 368.411C240.125 362.552 251.525 340.415 252.221 340.225C251.62 339.972 246.838 337.755 246.141 337.533C245.54 337.343 240.251 342.949 237.021 346.432C235.596 347.984 234.583 349.124 234.583 349.124C233.665 347.034 230.277 333.891 229.232 329.331C226.857 319.07 227.237 318.626 227.237 318.626C220.048 316.441 209.155 312.039 209.155 312.039L194.779 311.438C194.779 311.438 181.574 314.351 176.381 316.695C175.874 316.916 175.874 328.476 174.544 331.516L178.851 340.605C178.851 340.605 181.352 358.625 181.859 366.637C182.081 370.311 176.697 401.157 176.697 401.157Z" fill="#6791FB"/>
<path d="M173.942 346.495C174.322 347.699 176.032 348.744 177.141 349.187C177.837 349.472 178.661 349.567 179.452 349.409L180.022 349.314L189.87 347.477C189.87 347.477 192.024 322.617 176.412 316.663C175.969 316.821 170.491 335.379 173.942 346.495Z" fill="#6791FB"/>
<path d="M177.109 349.187C177.806 349.472 178.629 349.567 179.421 349.409L179.991 349.314L179.009 336.615L177.109 349.187Z" fill="#365DC0"/>
<path d="M234.646 349.092L235.85 354.191C235.85 354.191 237.148 349.061 237.085 346.4C235.66 347.984 234.646 349.092 234.646 349.092Z" fill="#365DC0"/>
<path d="M193.607 282.017C193.607 282.017 181.289 280.592 193.385 301.145L193.607 282.017Z" fill="#3A3F47"/>
<path d="M256.401 313.432L257.636 311.311L247.788 307.89L246.553 310.044L256.401 313.432Z" fill="#292C47"/>
<path d="M62.4774 320.812H27.8662V355.426H62.4774V320.812Z" fill="url(#paint14_linear)"/>
<path d="M49.2093 320.812H41.1661V324.834H49.2093V320.812Z" fill="#FFC59C"/>
<path d="M39.3928 390.073H4.78162V424.687H39.3928V390.073Z" fill="url(#paint15_linear)"/>
<path d="M26.093 390.073H18.0497V394.095H26.093V390.073Z" fill="#FFC59C"/>
<path d="M74.0039 390.073H39.3928V424.687H74.0039V390.073Z" fill="url(#paint16_linear)"/>
<path d="M60.7357 390.073H52.6925V394.095H60.7357V390.073Z" fill="#FFC59C"/>
<path d="M108.615 390.073H74.0039V424.687H108.615V390.073Z" fill="url(#paint17_linear)"/>
<path d="M95.3469 390.073H87.3036V394.095H95.3469V390.073Z" fill="#FFC59C"/>
<path d="M81.6038 355.426H46.9926V390.041H81.6038V355.426Z" fill="url(#paint18_linear)"/>
<path d="M68.3356 355.426H60.2924V359.448H68.3356V355.426Z" fill="#FFC59C"/>
<path d="M46.9926 355.426H12.3815V390.041H46.9926V355.426Z" fill="url(#paint19_linear)"/>
<path d="M33.6927 355.426H25.6495V359.448H33.6927V355.426Z" fill="#FFC59C"/>
<path d="M136.513 344.627C136.513 344.627 135.341 349.251 135.183 349.947C135.025 350.644 127.741 348.712 127.741 348.712V343.043C127.773 343.075 135.69 343.867 136.513 344.627Z" fill="#666FB3"/>
<path d="M135.341 349.377C135.341 349.377 137.368 352.481 139.521 353.938C141.643 355.426 149.876 357.326 151.079 358.752C151.934 359.765 153.138 363.66 139.965 361.887C130.591 360.62 125.968 360.937 125.113 359.322C124.258 357.675 127.773 348.237 127.773 348.237C127.773 348.237 129.768 349.346 135.341 349.377Z" fill="#2D314F"/>
<path d="M161.07 207.905L130.355 523.678L133.665 524L164.379 208.227L161.07 207.905Z" fill="#B3DCFF"/>
<path d="M107.397 202.677L76.6823 518.45L79.9916 518.772L110.706 202.999L107.397 202.677Z" fill="#B3DCFF"/>
<path d="M108.587 207.361L108.266 210.671L161.971 215.885L162.293 212.575L108.587 207.361Z" fill="#B3DCFF"/>
<path d="M106.177 232.352L105.856 235.661L159.562 240.87L159.882 237.56L106.177 232.352Z" fill="#B3DCFF"/>
<path d="M103.743 257.3L103.422 260.609L157.128 265.824L157.449 262.514L103.743 257.3Z" fill="#B3DCFF"/>
<path d="M101.333 282.29L101.012 285.599L154.717 290.808L155.038 287.499L101.333 282.29Z" fill="#B3DCFF"/>
<path d="M98.8962 307.242L98.5753 310.552L152.281 315.761L152.602 312.451L98.8962 307.242Z" fill="#B3DCFF"/>
<path d="M96.4916 332.225L96.1704 335.535L149.876 340.748L150.197 337.439L96.4916 332.225Z" fill="#B3DCFF"/>
<path d="M94.0522 357.18L93.7313 360.49L147.437 365.699L147.758 362.389L94.0522 357.18Z" fill="#B3DCFF"/>
<path d="M91.6478 382.163L91.3266 385.473L145.032 390.687L145.353 387.377L91.6478 382.163Z" fill="#B3DCFF"/>
<path d="M89.2081 407.119L88.8871 410.428L142.593 415.637L142.914 412.328L89.2081 407.119Z" fill="#B3DCFF"/>
<path d="M86.8042 432.102L86.4829 435.412L140.189 440.625L140.51 437.316L86.8042 432.102Z" fill="#B3DCFF"/>
<path d="M84.3684 457.054L84.0471 460.364L137.753 465.578L138.074 462.268L84.3684 457.054Z" fill="#B3DCFF"/>
<path d="M81.9247 482.041L81.6038 485.35L135.309 490.559L135.63 487.25L81.9247 482.041Z" fill="#B3DCFF"/>
<path d="M79.5246 506.992L79.2034 510.302L132.909 515.516L133.23 512.206L79.5246 506.992Z" fill="#B3DCFF"/>
<path d="M207.572 164.111C207.572 164.111 206.875 164.966 206.4 165.188C206.4 165.188 205.482 165.536 204.849 165.821C204.659 165.916 204.469 165.98 204.374 166.075C203.93 166.36 203.044 167.088 201.809 167.436C200.574 167.785 194.969 169.083 194.969 169.083L193.67 165.758L192.72 163.066C192.72 163.066 197.914 156.32 199.022 155.877C199.117 155.845 199.244 155.782 199.339 155.75C200.32 155.434 201.175 155.624 201.714 155.529C201.904 155.497 203.899 155.275 204.31 155.687C204.912 156.257 205.102 156.89 204.975 157.46C204.975 157.46 206.084 158.632 206.179 159.709C206.179 159.709 207.255 160.754 206.97 162.147C207.002 162.084 207.952 163.288 207.572 164.111Z" fill="#EEA886"/>
<path d="M147.406 207.783C148.704 206.96 150.383 205.82 156.178 202.906C166.976 197.491 180.339 187.705 182.872 186.28C186.767 184.094 199.117 169.051 199.117 169.051C198.484 166.771 192.625 162.242 192.625 162.242C192.625 162.242 173.942 179.946 169.857 182.131C166.342 183.999 148.989 185.9 144.208 186.375C143.416 186.47 142.973 186.501 142.973 186.501C138.001 193.279 144.619 209.588 147.406 207.783Z" fill="#6791FB"/>
<path d="M145.506 247.022C145.506 247.022 150.794 266.657 152.188 273.687C153.391 279.799 155.861 296.109 156.209 299.973C156.558 303.837 140.598 341.333 138.951 348.11L124.416 345.767C124.416 345.767 139.743 306.75 135.753 298.073C129.8 285.183 129.04 285.563 124.321 274.954C119.635 264.345 108.9 264.091 106.018 244.361C105.987 244.361 141.58 240.783 145.506 247.022Z" fill="#2D314F"/>
<path d="M119.635 151.602C119.635 151.602 129.293 147.991 133.726 155.339C138.191 162.686 137.748 177.412 132.871 179.218C127.995 181.023 120.68 180.073 118.21 175.481C115.708 170.888 113.46 164.238 113.587 159.773C113.713 155.339 117.102 152.869 119.635 151.602Z" fill="#EEA886"/>
<path d="M131.288 178.774C131.288 178.774 130.908 181.308 131.541 182.543C132.175 183.778 119.413 183.809 119.413 183.809C119.413 183.809 118.368 177.032 116.405 171.3C114.41 165.568 131.288 178.774 131.288 178.774Z" fill="#EEA886"/>
<path d="M116.373 171.3C116.373 171.3 117.26 172.757 120.87 172.187C124.48 171.617 128.881 166.835 130.37 166.296C131.89 165.758 131.89 164.871 131.89 164.871L132.84 166.233L134.423 166.328C134.423 166.328 132.966 162.052 135.151 160.279C137.336 158.537 132.871 146.408 121.313 150.43C121.313 150.43 112.447 152.868 112.763 157.935C113.112 163.034 114.41 168.798 116.373 171.3Z" fill="#D88A51"/>
<path d="M131.668 163.066C131.478 162.211 129.325 159.804 128.501 162.401C127.678 164.998 129.736 168.482 130.908 168.165C132.016 167.88 132.175 165.22 131.668 163.066Z" fill="#EEA886"/>
<path d="M94.8402 215.701C94.9352 216.967 96.3918 218.329 97.3735 219.026C98.0068 219.469 98.7668 219.723 99.5901 219.754L100.16 219.786L110.198 220.134C110.198 220.134 117.671 196.034 103.675 186.818C103.2 186.818 93.8585 204.078 94.8402 215.701Z" fill="#6791FB"/>
<path d="M125.081 359.353C125.936 361 130.56 360.683 139.933 361.919C142.498 362.267 144.524 362.394 146.108 362.362L146.646 356.725C143.891 355.775 140.724 354.793 139.489 353.938C137.368 352.449 135.31 349.377 135.31 349.377C129.736 349.314 127.741 348.237 127.741 348.237C127.741 348.237 124.258 357.706 125.081 359.353Z" fill="#2D314F"/>
<path d="M131.288 181.814C131.288 181.814 123.403 179.977 118.97 181.466L118.305 182.099C118.305 182.099 116.943 184.696 122.041 184.918C127.108 185.14 135.088 185.488 131.288 181.814Z" fill="#6791FB"/>
<path d="M100.508 366.321C100.508 366.321 99.3368 370.944 99.1784 371.641C99.0201 372.338 91.7369 370.406 91.7369 370.406V364.737C91.7685 364.769 99.6534 365.56 100.508 366.321Z" fill="#666FB3"/>
<path d="M105.987 244.362C105.987 244.362 103.327 255.288 102.567 266.245C101.838 276.348 100.508 287.464 99.4634 298.041C98.2918 309.822 94.9668 328.887 94.7768 335.221C94.6185 341.523 89.2986 369.108 89.2986 369.108L102.883 370.659C102.883 370.659 111.718 321.952 113.777 316.948C115.867 311.976 126.19 276.474 126.538 272.484C126.886 268.494 105.987 244.362 105.987 244.362Z" fill="#2D314F"/>
<path d="M99.3368 371.071C99.3368 371.071 101.363 374.174 103.517 375.631C105.638 377.12 113.872 379.02 115.075 380.445C115.93 381.458 117.133 385.354 103.96 383.58C94.5868 382.313 89.9636 382.63 89.1086 381.015C88.2536 379.368 91.7685 369.931 91.7685 369.931C91.7685 369.931 93.7635 371.007 99.3368 371.071Z" fill="#2D314F"/>
<path d="M148.229 271.565C149.401 271.407 145.348 236.919 145.664 234.766C145.886 233.309 145.823 222.129 145.759 215.13L147.026 208.068C147.723 207.561 148.673 206.96 149.781 206.326C151.523 205.313 153.739 204.173 156.178 202.938C155.893 201.259 155.703 199.961 155.608 199.169C155.006 192.962 150.826 189.668 148.451 188.275C147.501 187.705 146.836 187.451 146.836 187.451C145.949 187.071 145.063 186.691 144.208 186.343C138.508 183.999 131.288 181.814 131.288 181.814H119.666C119.666 181.814 110.832 183.588 105.543 185.741C104.878 186.026 104.245 186.375 103.643 186.786L105.227 219.913C105.227 219.913 105.227 219.913 105.227 219.944V219.976C105.923 224.631 106.683 230.142 106.937 234.005C107.032 235.589 105.227 244.045 104.308 251.804L101.015 270.362C101.015 270.362 102.915 278.058 148.229 271.565Z" fill="#6791FB"/>
<defs>
<linearGradient id="paint0_linear" x1="137.463" y1="-103.7" x2="326.224" y2="257.314" gradientUnits="userSpaceOnUse">
<stop offset="0.1654" stop-color="#8DA6E8"/>
<stop offset="1" stop-color="#2749A8"/>
</linearGradient>
<linearGradient id="paint1_linear" x1="123.799" y1="-96.5555" x2="312.56" y2="264.46" gradientUnits="userSpaceOnUse">
<stop offset="0.1654" stop-color="#69FFE9"/>
<stop offset="1" stop-color="#2749A8"/>
</linearGradient>
<linearGradient id="paint2_linear" x1="150.956" y1="-110.755" x2="339.717" y2="250.26" gradientUnits="userSpaceOnUse">
<stop offset="0.1654" stop-color="#A6BDF8"/>
<stop offset="1" stop-color="#2749A8"/>
</linearGradient>
<linearGradient id="paint3_linear" x1="-20.0455" y1="-21.3451" x2="168.716" y2="339.672" gradientUnits="userSpaceOnUse">
<stop offset="0.1654" stop-color="#B5C9FD"/>
<stop offset="1" stop-color="#799CFF"/>
</linearGradient>
<linearGradient id="paint4_linear" x1="387.322" y1="309.575" x2="387.322" y2="127.442" gradientUnits="userSpaceOnUse">
<stop stop-color="#A1A1A1"/>
<stop offset="1" stop-color="#F5F2E4"/>
</linearGradient>
<linearGradient id="paint5_linear" x1="236.371" y1="187.177" x2="707.537" y2="433.897" gradientUnits="userSpaceOnUse">
<stop offset="0.1654" stop-color="#3C445A"/>
<stop offset="0.755208" stop-color="#6791FB"/>
</linearGradient>
<linearGradient id="paint6_linear" x1="557.512" y1="399.639" x2="557.512" y2="250.385" gradientUnits="userSpaceOnUse">
<stop stop-color="#A1A1A1"/>
<stop offset="1" stop-color="#F5F2E4"/>
</linearGradient>
<linearGradient id="paint7_linear" x1="556.014" y1="362.283" x2="556.014" y2="316.458" gradientUnits="userSpaceOnUse">
<stop offset="0.0103627" stop-color="#8A8A8A"/>
<stop offset="1" stop-color="#F5F2E4"/>
</linearGradient>
<linearGradient id="paint8_linear" x1="667.807" y1="337.329" x2="650.726" y2="343.816" gradientUnits="userSpaceOnUse">
<stop stop-color="#FFFAED"/>
<stop offset="0.4623" stop-color="#D9D5CA"/>
<stop offset="1" stop-color="#ADA9A2"/>
</linearGradient>
<linearGradient id="paint9_linear" x1="651.734" y1="340.14" x2="667.682" y2="333.155" gradientUnits="userSpaceOnUse">
<stop stop-color="#F27B1F"/>
<stop offset="1" stop-color="#E8E3D8"/>
</linearGradient>
<linearGradient id="paint10_linear" x1="139.982" y1="449.949" x2="402.98" y2="449.949" gradientUnits="userSpaceOnUse">
<stop stop-color="#ABC1FA"/>
<stop offset="1" stop-color="#365DC0"/>
</linearGradient>
<linearGradient id="paint11_linear" x1="18.0857" y1="482.519" x2="281.084" y2="482.519" gradientUnits="userSpaceOnUse">
<stop stop-color="#2A52B8"/>
<stop offset="1" stop-color="#4E70C7"/>
</linearGradient>
<linearGradient id="paint12_linear" x1="106.567" y1="231.628" x2="453.787" y2="231.628" gradientUnits="userSpaceOnUse">
<stop stop-color="#5570B4"/>
<stop offset="1" stop-color="#ADC4FF"/>
</linearGradient>
<linearGradient id="paint13_linear" x1="190.85" y1="398.868" x2="353.687" y2="398.868" gradientUnits="userSpaceOnUse">
<stop stop-color="#365DC0"/>
<stop offset="1" stop-color="#85A5F4"/>
</linearGradient>
<linearGradient id="paint14_linear" x1="45.1927" y1="314.532" x2="45.1927" y2="349.844" gradientUnits="userSpaceOnUse">
<stop stop-color="#FFA35F"/>
<stop offset="1" stop-color="#E39155"/>
</linearGradient>
<linearGradient id="paint15_linear" x1="22.0804" y1="383.786" x2="22.0804" y2="419.098" gradientUnits="userSpaceOnUse">
<stop stop-color="#FFA35F"/>
<stop offset="1" stop-color="#E39155"/>
</linearGradient>
<linearGradient id="paint16_linear" x1="56.7036" y1="383.786" x2="56.7036" y2="419.098" gradientUnits="userSpaceOnUse">
<stop stop-color="#FFA35F"/>
<stop offset="1" stop-color="#E39155"/>
</linearGradient>
<linearGradient id="paint17_linear" x1="91.3267" y1="383.786" x2="91.3267" y2="419.098" gradientUnits="userSpaceOnUse">
<stop stop-color="#FFA35F"/>
<stop offset="1" stop-color="#E39155"/>
</linearGradient>
<linearGradient id="paint18_linear" x1="64.3124" y1="349.159" x2="64.3124" y2="384.471" gradientUnits="userSpaceOnUse">
<stop stop-color="#FFA35F"/>
<stop offset="1" stop-color="#E39155"/>
</linearGradient>
<linearGradient id="paint19_linear" x1="29.6892" y1="353.222" x2="29.6892" y2="382.572" gradientUnits="userSpaceOnUse">
<stop stop-color="#FFA35F"/>
<stop offset="1" stop-color="#E39155"/>
</linearGradient>
</defs>
</svg>
